Grotesca Reforma-Magra estreita.ufo
<glyph name="exclam" format="2">
	<advance width="131"/>
	<unicode hex="0021"/>
	<outline>
		<contour>
			<point x="28" y="800" type="line"/>
			<point x="48" y="173" type="line"/>
			<point x="83" y="173" type="line"/>
			<point x="103" y="800" type="line"/>
		</contour>
		<component base="period" xOffset="-6"/>
	</outline>
</glyph>
<glyph name="numbersign" format="2">
	<advance width="400"/>
	<unicode hex="0023"/>
	<outline>
		<contour>
			<point x="30" y="230" type="line"/>
			<point x="96" y="230" type="line"/>
			<point x="70" y="0" type="line"/>
			<point x="121" y="0" type="line"/>
			<point x="147" y="230" type="line"/>
			<point x="216" y="230" type="line"/>
			<point x="190" y="0" type="line"/>
			<point x="241" y="0" type="line"/>
			<point x="267" y="230" type="line"/>
			<point x="340" y="230" type="line"/>
			<point x="340" y="280" type="line"/>
			<point x="272" y="280" type="line"/>
			<point x="299" y="520" type="line"/>
			<point x="370" y="520" type="line"/>
			<point x="370" y="570" type="line"/>
			<point x="304" y="570" type="line"/>
			<point x="330" y="800" type="line"/>
			<point x="279" y="800" type="line"/>
			<point x="253" y="570" type="line"/>
			<point x="184" y="570" type="line"/>
			<point x="210" y="800" type="line"/>
			<point x="159" y="800" type="line"/>
			<point x="133" y="570" type="line"/>
			<point x="60" y="570" type="line"/>
			<point x="60" y="520" type="line"/>
			<point x="128" y="520" type="line"/>
			<point x="101" y="280" type="line"/>
			<point x="30" y="280" type="line"/>
		</contour>
		<contour>
			<point x="152" y="280" type="line"/>
			<point x="179" y="520" type="line"/>
			<point x="248" y="520" type="line"/>
			<point x="221" y="280" type="line"/>
		</contour>
	</outline>
</glyph>
<glyph name="dollar" format="2">
	<advance width="251"/>
	<unicode hex="0024"/>
	<outline>
		<contour>
			<point x="96" y="-120" type="line"/>
			<point x="151" y="-120" type="line"/>
			<point x="151" y="16" type="line"/>
			<point x="96" y="16" type="line"/>
		</contour>
		<contour>
			<point x="96" y="784" type="line"/>
			<point x="151" y="784" type="line"/>
			<point x="151" y="920" type="line"/>
			<point x="96" y="920" type="line"/>
		</contour>
		<component base="S"/>
	</outline>
</glyph>
<glyph name="ampersand" format="2">
	<advance width="431"/>
	<unicode hex="0026"/>
	<outline>
		<contour>
			<point x="388" y="5" type="curve"/>
			<point x="388" y="53" type="line"/>
			<point x="380" y="51"/>
			<point x="369" y="50"/>
			<point x="357" y="50" type="curve" smooth="yes"/>
			<point x="329" y="50"/>
			<point x="307" y="68"/>
			<point x="297" y="99" type="curve" smooth="yes"/>
			<point x="152" y="546" type="line" smooth="yes"/>
			<point x="132" y="607"/>
			<point x="121" y="667"/>
			<point x="121" y="709" type="curve" smooth="yes"/>
			<point x="121" y="742"/>
			<point x="135" y="761"/>
			<point x="160" y="761" type="curve" smooth="yes"/>
			<point x="184" y="761"/>
			<point x="198" y="742"/>
			<point x="198" y="709" type="curve" smooth="yes"/>
			<point x="198" y="679"/>
			<point x="195" y="648"/>
			<point x="190" y="625" type="curve" smooth="yes"/>
			<point x="181" y="582"/>
			<point x="158" y="517"/>
			<point x="129" y="451" type="curve" smooth="yes"/>
			<point x="98" y="379" type="line" smooth="yes"/>
			<point x="76" y="328"/>
			<point x="59" y="277"/>
			<point x="48" y="230" type="curve" smooth="yes"/>
			<point x="38" y="188"/>
			<point x="32" y="150"/>
			<point x="32" y="119" type="curve" smooth="yes"/>
			<point x="32" y="34"/>
			<point x="82" y="-16"/>
			<point x="166" y="-16" type="curve" smooth="yes"/>
			<point x="273" y="-16"/>
			<point x="336" y="91"/>
			<point x="336" y="272" type="curve" smooth="yes"/>
			<point x="336" y="408" type="line"/>
			<point x="286" y="408" type="line"/>
			<point x="286" y="272" type="line" smooth="yes"/>
			<point x="286" y="122"/>
			<point x="241" y="34"/>
			<point x="166" y="34" type="curve" smooth="yes"/>
			<point x="114" y="34"/>
			<point x="84" y="66"/>
			<point x="84" y="119" type="curve" smooth="yes"/>
			<point x="84" y="144"/>
			<point x="89" y="181"/>
			<point x="98" y="218" type="curve" smooth="yes"/>
			<point x="110" y="267"/>
			<point x="129" y="323"/>
			<point x="150" y="371" type="curve" smooth="yes"/>
			<point x="181" y="441" type="line" smooth="yes"/>
			<point x="209" y="504"/>
			<point x="230" y="566"/>
			<point x="238" y="609" type="curve" smooth="yes"/>
			<point x="245" y="647"/>
			<point x="248" y="682"/>
			<point x="248" y="704" type="curve" smooth="yes"/>
			<point x="248" y="771"/>
			<point x="216" y="811"/>
			<point x="162" y="811" type="curve" smooth="yes"/>
			<point x="102" y="811"/>
			<point x="66" y="771"/>
			<point x="66" y="704" type="curve" smooth="yes"/>
			<point x="66" y="660"/>
			<point x="80" y="594"/>
			<point x="102" y="526" type="curve" smooth="yes"/>
			<point x="246" y="79" type="line" smooth="yes"/>
			<point x="262" y="29"/>
			<point x="301" y="0"/>
			<point x="350" y="0" type="curve" smooth="yes"/>
			<point x="363" y="0"/>
			<point x="378" y="2"/>
		</contour>
	</outline>
</glyph>
<glyph name="quotesingle" format="2">
	<advance width="133"/>
	<unicode hex="0027"/>
	<outline>
		<contour>
			<point x="39" y="700" type="line"/>
			<point x="49" y="570" type="line"/>
			<point x="84" y="570" type="line"/>
			<point x="94" y="700" type="line"/>
			<point x="94" y="820" type="line"/>
			<point x="39" y="820" type="line"/>
		</contour>
	</outline>
</glyph>
<glyph name="parenleft" format="2">
	<advance width="178"/>
	<unicode hex="0028"/>
	<outline>
		<contour>
			<point x="33" y="-45" type="line" smooth="yes"/>
			<point x="33" y="-136"/>
			<point x="81" y="-190"/>
			<point x="162" y="-190" type="curve"/>
			<point x="168" y="-140" type="line"/>
			<point x="118" y="-140"/>
			<point x="88" y="-107"/>
			<point x="88" y="-50" type="curve" smooth="yes"/>
			<point x="88" y="690" type="line" smooth="yes"/>
			<point x="88" y="747"/>
			<point x="118" y="780"/>
			<point x="168" y="780" type="curve"/>
			<point x="162" y="830" type="line"/>
			<point x="81" y="830"/>
			<point x="33" y="776"/>
			<point x="33" y="685" type="curve" smooth="yes"/>
		</contour>
	</outline>
</glyph>
<glyph name="parenright" format="2">
	<advance width="178"/>
	<unicode hex="0029"/>
	<outline>
		<contour>
			<point x="145" y="-45" type="curve" smooth="yes"/>
			<point x="145" y="685" type="line" smooth="yes"/>
			<point x="145" y="776"/>
			<point x="97" y="830"/>
			<point x="16" y="830" type="curve"/>
			<point x="10" y="780" type="line"/>
			<point x="60" y="780"/>
			<point x="90" y="747"/>
			<point x="90" y="690" type="curve" smooth="yes"/>
			<point x="90" y="-50" type="line" smooth="yes"/>
			<point x="90" y="-107"/>
			<point x="60" y="-140"/>
			<point x="10" y="-140" type="curve"/>
			<point x="16" y="-190" type="line"/>
			<point x="97" y="-190"/>
			<point x="145" y="-136"/>
		</contour>
	</outline>
</glyph>
<glyph name="asterisk" format="2">
	<advance width="241"/>
	<unicode hex="002A"/>
	<outline>
		<contour>
			<point x="22" y="645" type="line"/>
			<point x="42" y="609" type="line"/>
			<point x="45" y="609" type="line"/>
			<point x="105" y="652" type="line"/>
			<point x="98" y="578" type="line"/>
			<point x="100" y="576" type="line"/>
			<point x="141" y="576" type="line"/>
			<point x="143" y="578" type="line"/>
			<point x="136" y="652" type="line"/>
			<point x="196" y="609" type="line"/>
			<point x="199" y="609" type="line"/>
			<point x="219" y="645" type="line"/>
			<point x="218" y="647" type="line"/>
			<point x="151" y="678" type="line"/>
			<point x="218" y="709" type="line"/>
			<point x="219" y="711" type="line"/>
			<point x="199" y="747" type="line"/>
			<point x="196" y="747" type="line"/>
			<point x="136" y="704" type="line"/>
			<point x="143" y="778" type="line"/>
			<point x="141" y="780" type="line"/>
			<point x="100" y="780" type="line"/>
			<point x="98" y="778" type="line"/>
			<point x="105" y="704" type="line"/>
			<point x="45" y="747" type="line"/>
			<point x="42" y="747" type="line"/>
			<point x="22" y="711" type="line"/>
			<point x="23" y="709" type="line"/>
			<point x="90" y="678" type="line"/>
			<point x="23" y="647" type="line"/>
		</contour>
	</outline>
</glyph>
<glyph name="comma" format="2">
	<advance width="143"/>
	<unicode hex="002C"/>
	<outline>
		<contour>
			<point x="44" y="-97" type="line"/>
			<point x="72" y="-97" type="line"/>
			<point x="104" y="0" type="line"/>
			<point x="104" y="100" type="line"/>
			<point x="39" y="100" type="line"/>
			<point x="39" y="0" type="line"/>
			<point x="69" y="0" type="line"/>
		</contour>
	</outline>
</glyph>
<glyph name="hyphen" format="2">
	<advance width="188"/>
	<unicode hex="002D"/>
	<outline>
		<contour>
			<point x="34" y="316" type="line"/>
			<point x="154" y="316" type="line"/>
			<point x="154" y="361" type="line"/>
			<point x="34" y="361" type="line"/>
		</contour>
	</outline>
</glyph>
<glyph name="period" format="2">
	<advance width="143"/>
	<unicode hex="002E"/>
	<outline>
		<contour>
			<point x="39" y="0" type="line"/>
			<point x="104" y="0" type="line"/>
			<point x="104" y="100" type="line"/>
			<point x="39" y="100" type="line"/>
		</contour>
	</outline>
</glyph>
<glyph name="zero" format="2">
	<advance width="248"/>
	<unicode hex="0030"/>
	<outline>
		<contour>
			<point x="33" y="76" type="line" smooth="yes"/>
			<point x="33" y="22"/>
			<point x="65" y="-10"/>
			<point x="123" y="-10" type="curve" smooth="yes"/>
			<point x="183" y="-10"/>
			<point x="215" y="22"/>
			<point x="215" y="75" type="curve" smooth="yes"/>
			<point x="215" y="704" type="line" smooth="yes"/>
			<point x="215" y="758"/>
			<point x="183" y="790"/>
			<point x="125" y="790" type="curve" smooth="yes"/>
			<point x="65" y="790"/>
			<point x="33" y="758"/>
			<point x="33" y="705" type="curve" smooth="yes"/>
		</contour>
		<contour>
			<point x="88" y="75" type="curve" smooth="yes"/>
			<point x="88" y="700" type="line" smooth="yes"/>
			<point x="88" y="725"/>
			<point x="99" y="740"/>
			<point x="124" y="740" type="curve" smooth="yes"/>
			<point x="149" y="740"/>
			<point x="160" y="727"/>
			<point x="160" y="705" type="curve" smooth="yes"/>
			<point x="160" y="80" type="line" smooth="yes"/>
			<point x="160" y="55"/>
			<point x="149" y="40"/>
			<point x="124" y="40" type="curve" smooth="yes"/>
			<point x="99" y="40"/>
			<point x="88" y="53"/>
		</contour>
	</outline>
</glyph>
<glyph name="one" format="2">
	<advance width="208"/>
	<unicode hex="0031"/>
	<outline>
		<contour>
			<point x="23" y="504" type="curve"/>
			<point x="64" y="474" type="line"/>
			<point x="88" y="515"/>
			<point x="104" y="561"/>
			<point x="106" y="600" type="curve"/>
			<point x="110" y="600" type="line"/>
			<point x="110" y="0" type="line"/>
			<point x="165" y="0" type="line"/>
			<point x="165" y="780" type="line"/>
			<point x="120" y="780" type="line"/>
			<point x="107" y="685"/>
			<point x="71" y="583"/>
		</contour>
	</outline>
</glyph>
<glyph name="two" format="2">
	<advance width="257"/>
	<unicode hex="0032"/>
	<outline>
		<contour>
			<point x="43" y="590" type="line"/>
			<point x="93" y="590" type="line"/>
			<point x="93" y="700" type="line" smooth="yes"/>
			<point x="93" y="725"/>
			<point x="105" y="740"/>
			<point x="126" y="740" type="curve" smooth="yes"/>
			<point x="147" y="740"/>
			<point x="159" y="727"/>
			<point x="159" y="705" type="curve" smooth="yes"/>
			<point x="159" y="515"/>
			<point x="112" y="272"/>
			<point x="33" y="50" type="curve"/>
			<point x="33" y="0" type="line"/>
			<point x="224" y="0" type="line"/>
			<point x="224" y="50" type="line"/>
			<point x="88" y="50" type="line"/>
			<point x="88" y="54" type="line"/>
			<point x="167" y="275"/>
			<point x="214" y="513"/>
			<point x="214" y="695" type="curve" smooth="yes"/>
			<point x="214" y="755"/>
			<point x="182" y="790"/>
			<point x="127" y="790" type="curve" smooth="yes"/>
			<point x="74" y="790"/>
			<point x="43" y="758"/>
			<point x="43" y="705" type="curve" smooth="yes"/>
		</contour>
	</outline>
</glyph>
<glyph name="three" format="2">
	<advance width="251"/>
	<unicode hex="0033"/>
	<outline>
		<contour>
			<point x="33" y="86" type="line" smooth="yes"/>
			<point x="33" y="26"/>
			<point x="67" y="-10"/>
			<point x="125" y="-10" type="curve" smooth="yes"/>
			<point x="185" y="-10"/>
			<point x="220" y="25"/>
			<point x="220" y="85" type="curve" smooth="yes"/>
			<point x="220" y="345" type="line" smooth="yes"/>
			<point x="220" y="390"/>
			<point x="198" y="420"/>
			<point x="162" y="425" type="curve"/>
			<point x="162" y="429" type="line"/>
			<point x="192" y="435"/>
			<point x="210" y="463"/>
			<point x="210" y="505" type="curve" smooth="yes"/>
			<point x="210" y="694" type="line" smooth="yes"/>
			<point x="210" y="754"/>
			<point x="177" y="790"/>
			<point x="122" y="790" type="curve" smooth="yes"/>
			<point x="66" y="790"/>
			<point x="33" y="755"/>
			<point x="33" y="695" type="curve" smooth="yes"/>
			<point x="33" y="541" type="line"/>
			<point x="88" y="541" type="line"/>
			<point x="88" y="690" type="line" smooth="yes"/>
			<point x="88" y="721"/>
			<point x="100" y="740"/>
			<point x="121" y="740" type="curve" smooth="yes"/>
			<point x="142" y="740"/>
			<point x="155" y="723"/>
			<point x="155" y="695" type="curve" smooth="yes"/>
			<point x="155" y="500" type="line" smooth="yes"/>
			<point x="155" y="469"/>
			<point x="142" y="450"/>
			<point x="121" y="450" type="curve" smooth="yes"/>
			<point x="105" y="450" type="line"/>
			<point x="105" y="400" type="line"/>
			<point x="126" y="400" type="line" smooth="yes"/>
			<point x="147" y="400"/>
			<point x="160" y="381"/>
			<point x="160" y="350" type="curve" smooth="yes"/>
			<point x="160" y="90" type="line" smooth="yes"/>
			<point x="160" y="59"/>
			<point x="146" y="40"/>
			<point x="123" y="40" type="curve" smooth="yes"/>
			<point x="101" y="40"/>
			<point x="88" y="57"/>
			<point x="88" y="85" type="curve" smooth="yes"/>
			<point x="88" y="261" type="line"/>
			<point x="33" y="261" type="line"/>
		</contour>
	</outline>
</glyph>
<glyph name="four" format="2">
	<advance width="255"/>
	<unicode hex="0034"/>
	<outline>
		<contour>
			<point x="233" y="190" type="line"/>
			<point x="233" y="240" type="line"/>
			<point x="67" y="240" type="line"/>
			<point x="67" y="244" type="line"/>
			<point x="95" y="346"/>
			<point x="120" y="487"/>
			<point x="134" y="625" type="curve"/>
			<point x="138" y="625" type="line"/>
			<point x="138" y="0" type="line"/>
			<point x="193" y="0" type="line"/>
			<point x="193" y="780" type="line"/>
			<point x="133" y="780" type="line"/>
			<point x="102" y="569"/>
			<point x="61" y="369"/>
			<point x="23" y="240" type="curve"/>
			<point x="23" y="190" type="line"/>
		</contour>
	</outline>
</glyph>
<glyph name="five" format="2">
	<advance width="257"/>
	<unicode hex="0035"/>
	<outline>
		<contour>
			<point x="33" y="86" type="line" smooth="yes"/>
			<point x="33" y="26"/>
			<point x="69" y="-10"/>
			<point x="130" y="-10" type="curve" smooth="yes"/>
			<point x="189" y="-10"/>
			<point x="224" y="25"/>
			<point x="224" y="85" type="curve" smooth="yes"/>
			<point x="224" y="436" type="line" smooth="yes"/>
			<point x="224" y="508"/>
			<point x="197" y="550"/>
			<point x="152" y="550" type="curve" smooth="yes"/>
			<point x="128" y="550"/>
			<point x="108" y="539"/>
			<point x="97" y="521" type="curve"/>
			<point x="93" y="521" type="line"/>
			<point x="98" y="730" type="line"/>
			<point x="208" y="730" type="line"/>
			<point x="208" y="780" type="line"/>
			<point x="53" y="780" type="line"/>
			<point x="43" y="465" type="line"/>
			<point x="90" y="458" type="line"/>
			<point x="90" y="484"/>
			<point x="104" y="500"/>
			<point x="127" y="500" type="curve" smooth="yes"/>
			<point x="153" y="500"/>
			<point x="169" y="480"/>
			<point x="169" y="447" type="curve" smooth="yes"/>
			<point x="169" y="90" type="line" smooth="yes"/>
			<point x="169" y="59"/>
			<point x="153" y="40"/>
			<point x="126" y="40" type="curve" smooth="yes"/>
			<point x="99" y="40"/>
			<point x="83" y="57"/>
			<point x="83" y="85" type="curve" smooth="yes"/>
			<point x="83" y="246" type="line"/>
			<point x="33" y="246" type="line"/>
		</contour>
	</outline>
</glyph>
<glyph name="six" format="2">
	<advance width="252"/>
	<unicode hex="0036"/>
	<outline>
		<contour>
			<point x="33" y="86" type="line" smooth="yes"/>
			<point x="33" y="26"/>
			<point x="67" y="-10"/>
			<point x="125" y="-10" type="curve" smooth="yes"/>
			<point x="184" y="-10"/>
			<point x="219" y="25"/>
			<point x="219" y="85" type="curve" smooth="yes"/>
			<point x="219" y="391" type="line" smooth="yes"/>
			<point x="219" y="441"/>
			<point x="193" y="471"/>
			<point x="148" y="471" type="curve" smooth="yes"/>
			<point x="117" y="471"/>
			<point x="96" y="459"/>
			<point x="92" y="440" type="curve"/>
			<point x="88" y="440" type="line"/>
			<point x="88" y="700" type="line" smooth="yes"/>
			<point x="88" y="725"/>
			<point x="102" y="740"/>
			<point x="126" y="740" type="curve" smooth="yes"/>
			<point x="150" y="740"/>
			<point x="164" y="727"/>
			<point x="164" y="705" type="curve" smooth="yes"/>
			<point x="164" y="572" type="line"/>
			<point x="214" y="572" type="line"/>
			<point x="214" y="694" type="line" smooth="yes"/>
			<point x="214" y="754"/>
			<point x="181" y="790"/>
			<point x="124" y="790" type="curve" smooth="yes"/>
			<point x="67" y="790"/>
			<point x="33" y="755"/>
			<point x="33" y="695" type="curve" smooth="yes"/>
		</contour>
		<contour>
			<point x="88" y="75" type="curve" smooth="yes"/>
			<point x="88" y="381" type="line" smooth="yes"/>
			<point x="88" y="406"/>
			<point x="103" y="421"/>
			<point x="128" y="421" type="curve" smooth="yes"/>
			<point x="151" y="421"/>
			<point x="164" y="406"/>
			<point x="164" y="381" type="curve" smooth="yes"/>
			<point x="164" y="80" type="line" smooth="yes"/>
			<point x="164" y="55"/>
			<point x="150" y="40"/>
			<point x="126" y="40" type="curve" smooth="yes"/>
			<point x="102" y="40"/>
			<point x="88" y="53"/>
		</contour>
	</outline>
</glyph>
<glyph name="seven" format="2">
	<advance width="254"/>
	<unicode hex="0037"/>
	<outline>
		<contour>
			<point x="23" y="730" type="line"/>
			<point x="191" y="730" type="line"/>
			<point x="191" y="726" type="line"/>
			<point x="118" y="577"/>
			<point x="75" y="308"/>
			<point x="75" y="0" type="curve"/>
			<point x="130" y="0" type="line"/>
			<point x="130" y="284"/>
			<point x="168" y="555"/>
			<point x="233" y="730" type="curve"/>
			<point x="233" y="780" type="line"/>
			<point x="23" y="780" type="line"/>
		</contour>
	</outline>
</glyph>
<glyph name="eight" format="2">
	<advance width="252"/>
	<unicode hex="0038"/>
	<outline>
		<contour>
			<point x="33" y="75" type="line" smooth="yes"/>
			<point x="33" y="22"/>
			<point x="68" y="-10"/>
			<point x="127" y="-10" type="curve" smooth="yes"/>
			<point x="185" y="-10"/>
			<point x="219" y="22"/>
			<point x="219" y="75" type="curve" smooth="yes"/>
			<point x="219" y="365" type="line" smooth="yes"/>
			<point x="219" y="401"/>
			<point x="199" y="427"/>
			<point x="166" y="434" type="curve"/>
			<point x="166" y="438" type="line"/>
			<point x="196" y="445"/>
			<point x="214" y="470"/>
			<point x="214" y="505" type="curve" smooth="yes"/>
			<point x="214" y="694" type="line" smooth="yes"/>
			<point x="214" y="754"/>
			<point x="182" y="790"/>
			<point x="127" y="790" type="curve" smooth="yes"/>
			<point x="71" y="790"/>
			<point x="38" y="754"/>
			<point x="38" y="694" type="curve" smooth="yes"/>
			<point x="38" y="505" type="line" smooth="yes"/>
			<point x="38" y="470"/>
			<point x="56" y="445"/>
			<point x="86" y="438" type="curve"/>
			<point x="86" y="434" type="line"/>
			<point x="53" y="427"/>
			<point x="33" y="401"/>
			<point x="33" y="365" type="curve" smooth="yes"/>
		</contour>
		<contour>
			<point x="88" y="80" type="curve" smooth="yes"/>
			<point x="88" y="370" type="line" smooth="yes"/>
			<point x="88" y="395"/>
			<point x="102" y="410"/>
			<point x="126" y="410" type="curve" smooth="yes"/>
			<point x="150" y="410"/>
			<point x="164" y="395"/>
			<point x="164" y="370" type="curve" smooth="yes"/>
			<point x="164" y="80" type="line" smooth="yes"/>
			<point x="164" y="55"/>
			<point x="150" y="40"/>
			<point x="125" y="40" type="curve" smooth="yes"/>
			<point x="102" y="40"/>
			<point x="88" y="55"/>
		</contour>
		<contour>
			<point x="93" y="500" type="curve" smooth="yes"/>
			<point x="93" y="695" type="line" smooth="yes"/>
			<point x="93" y="723"/>
			<point x="105" y="740"/>
			<point x="126" y="740" type="curve" smooth="yes"/>
			<point x="147" y="740"/>
			<point x="159" y="723"/>
			<point x="159" y="695" type="curve" smooth="yes"/>
			<point x="159" y="500" type="line" smooth="yes"/>
			<point x="159" y="475"/>
			<point x="147" y="460"/>
			<point x="126" y="460" type="curve" smooth="yes"/>
			<point x="105" y="460"/>
			<point x="93" y="475"/>
		</contour>
	</outline>
</glyph>
<glyph name="nine" format="2">
	<advance width="252"/>
	<unicode hex="0039"/>
	<outline>
		<contour>
			<point x="219" y="694" type="line" smooth="yes"/>
			<point x="219" y="754"/>
			<point x="185" y="790"/>
			<point x="127" y="790" type="curve" smooth="yes"/>
			<point x="68" y="790"/>
			<point x="33" y="755"/>
			<point x="33" y="695" type="curve" smooth="yes"/>
			<point x="33" y="389" type="line" smooth="yes"/>
			<point x="33" y="339"/>
			<point x="59" y="309"/>
			<point x="104" y="309" type="curve" smooth="yes"/>
			<point x="146" y="309"/>
			<point x="175" y="332"/>
			<point x="183" y="370" type="curve"/>
			<point x="164" y="370" type="line"/>
			<point x="164" y="80" type="line" smooth="yes"/>
			<point x="164" y="55"/>
			<point x="150" y="40"/>
			<point x="126" y="40" type="curve" smooth="yes"/>
			<point x="102" y="40"/>
			<point x="88" y="53"/>
			<point x="88" y="75" type="curve" smooth="yes"/>
			<point x="88" y="208" type="line"/>
			<point x="38" y="208" type="line"/>
			<point x="38" y="86" type="line" smooth="yes"/>
			<point x="38" y="26"/>
			<point x="71" y="-10"/>
			<point x="128" y="-10" type="curve" smooth="yes"/>
			<point x="185" y="-10"/>
			<point x="219" y="25"/>
			<point x="219" y="85" type="curve" smooth="yes"/>
		</contour>
		<contour>
			<point x="164" y="705" type="curve" smooth="yes"/>
			<point x="164" y="399" type="line" smooth="yes"/>
			<point x="164" y="374"/>
			<point x="149" y="359"/>
			<point x="124" y="359" type="curve" smooth="yes"/>
			<point x="101" y="359"/>
			<point x="88" y="374"/>
			<point x="88" y="399" type="curve" smooth="yes"/>
			<point x="88" y="700" type="line" smooth="yes"/>
			<point x="88" y="725"/>
			<point x="102" y="740"/>
			<point x="126" y="740" type="curve" smooth="yes"/>
			<point x="150" y="740"/>
			<point x="164" y="727"/>
		</contour>
	</outline>
</glyph>
<glyph name="question" format="2">
	<advance width="251"/>
	<unicode hex="003F"/>
	<outline>
		<contour>
			<point x="32" y="550" type="line"/>
			<point x="87" y="550" type="line"/>
			<point x="87" y="690" type="line" smooth="yes"/>
			<point x="87" y="721"/>
			<point x="101" y="740"/>
			<point x="125" y="740" type="curve" smooth="yes"/>
			<point x="149" y="740"/>
			<point x="163" y="723"/>
			<point x="163" y="694" type="curve" smooth="yes"/>
			<point x="163" y="668"/>
			<point x="161" y="635"/>
			<point x="157" y="606" type="curve" smooth="yes"/>
			<point x="152" y="567"/>
			<point x="144" y="524"/>
			<point x="137" y="490" type="curve" smooth="yes"/>
			<point x="120" y="410" type="line" smooth="yes"/>
			<point x="114" y="380"/>
			<point x="108" y="340"/>
			<point x="103" y="303" type="curve" smooth="yes"/>
			<point x="99" y="275"/>
			<point x="97" y="241"/>
			<point x="97" y="213" type="curve" smooth="yes"/>
			<point x="97" y="173" type="line"/>
			<point x="152" y="173" type="line"/>
			<point x="152" y="213" type="line" smooth="yes"/>
			<point x="152" y="234"/>
			<point x="154" y="265"/>
			<point x="157" y="299" type="curve" smooth="yes"/>
			<point x="159" y="324"/>
			<point x="166" y="362"/>
			<point x="174" y="401" type="curve" smooth="yes"/>
			<point x="191" y="481" type="line" smooth="yes"/>
			<point x="200" y="525"/>
			<point x="208" y="569"/>
			<point x="212" y="600" type="curve" smooth="yes"/>
			<point x="215" y="624"/>
			<point x="218" y="655"/>
			<point x="218" y="684" type="curve" smooth="yes"/>
			<point x="218" y="751"/>
			<point x="184" y="790"/>
			<point x="126" y="790" type="curve" smooth="yes"/>
			<point x="67" y="790"/>
			<point x="32" y="755"/>
			<point x="32" y="695" type="curve" smooth="yes"/>
		</contour>
		<component base="period" xOffset="53"/>
	</outline>
</glyph>
<glyph name="at" format="2">
	<advance width="464"/>
	<unicode hex="0040"/>
	<outline>
		<contour>
			<point x="290" y="524" type="line"/>
			<point x="276" y="572"/>
			<point x="246" y="600"/>
			<point x="210" y="600" type="curve" smooth="yes"/>
			<point x="172" y="600"/>
			<point x="149" y="570"/>
			<point x="149" y="520" type="curve" smooth="yes"/>
			<point x="149" y="200" type="line" smooth="yes"/>
			<point x="149" y="150"/>
			<point x="174" y="120"/>
			<point x="215" y="120" type="curve" smooth="yes"/>
			<point x="250" y="120"/>
			<point x="278" y="148"/>
			<point x="290" y="196" type="curve"/>
			<point x="290" y="258" type="line"/>
			<point x="265" y="258" type="line"/>
			<point x="265" y="210" type="line" smooth="yes"/>
			<point x="265" y="182"/>
			<point x="252" y="165"/>
			<point x="230" y="165" type="curve" smooth="yes"/>
			<point x="211" y="165"/>
			<point x="199" y="178"/>
			<point x="199" y="200" type="curve" smooth="yes"/>
			<point x="199" y="510" type="line" smooth="yes"/>
			<point x="199" y="538"/>
			<point x="212" y="555"/>
			<point x="234" y="555" type="curve" smooth="yes"/>
			<point x="253" y="555"/>
			<point x="265" y="538"/>
			<point x="265" y="510" type="curve"/>
			<point x="290" y="510" type="line"/>
		</contour>
		<contour>
			<point x="33" y="156" type="line" smooth="yes"/>
			<point x="33" y="14"/>
			<point x="115" y="-70"/>
			<point x="253" y="-70" type="curve" smooth="yes"/>
			<point x="292" y="-70"/>
			<point x="334" y="-59"/>
			<point x="364" y="-41" type="curve"/>
			<point x="364" y="-2" type="line"/>
			<point x="359" y="1" type="line"/>
			<point x="329" y="-15"/>
			<point x="290" y="-25"/>
			<point x="254" y="-25" type="curve" smooth="yes"/>
			<point x="147" y="-25"/>
			<point x="83" y="34"/>
			<point x="83" y="135" type="curve" smooth="yes"/>
			<point x="83" y="580" type="line" smooth="yes"/>
			<point x="83" y="684"/>
			<point x="138" y="745"/>
			<point x="232" y="745" type="curve" smooth="yes"/>
			<point x="326" y="745"/>
			<point x="381" y="686"/>
			<point x="381" y="585" type="curve" smooth="yes"/>
			<point x="381" y="215" type="line" smooth="yes"/>
			<point x="381" y="184"/>
			<point x="369" y="165"/>
			<point x="348" y="165" type="curve" smooth="yes"/>
			<point x="327" y="165"/>
			<point x="315" y="178"/>
			<point x="315" y="200" type="curve" smooth="yes"/>
			<point x="315" y="590" type="line"/>
			<point x="275" y="590" type="line"/>
			<point x="265" y="515" type="line"/>
			<point x="265" y="221" type="line" smooth="yes"/>
			<point x="265" y="158"/>
			<point x="295" y="120"/>
			<point x="347" y="120" type="curve" smooth="yes"/>
			<point x="400" y="120"/>
			<point x="431" y="153"/>
			<point x="431" y="210" type="curve" smooth="yes"/>
			<point x="431" y="564" type="line" smooth="yes"/>
			<point x="431" y="706"/>
			<point x="357" y="790"/>
			<point x="233" y="790" type="curve" smooth="yes"/>
			<point x="107" y="790"/>
			<point x="33" y="706"/>
			<point x="33" y="565" type="curve" smooth="yes"/>
		</contour>
	</outline>
</glyph>
<glyph name="A" format="2">
	<advance width="247"/>
	<unicode hex="0041"/>
	<anchor x="226" y="10" name="ogonek"/>
	<anchor x="122" y="0" name="bottom"/>
	<anchor x="122" y="800" name="top"/>
	<outline>
		<contour>
			<point x="226" y="0" type="line"/>
			<point x="158" y="800" type="line"/>
			<point x="86" y="800" type="line"/>
			<point x="23" y="0" type="line"/>
			<point x="78" y="0" type="line"/>
			<point x="113" y="600" type="line"/>
			<point x="117" y="730" type="line"/>
			<point x="123" y="730" type="line"/>
			<point x="127" y="600" type="line"/>
			<point x="166" y="0" type="line"/>
		</contour>
		<contour>
			<point x="63" y="240" type="line"/>
			<point x="63" y="190" type="line"/>
			<point x="188" y="190" type="line"/>
			<point x="188" y="240" type="line"/>
		</contour>
	</outline>
</glyph>
<glyph name="B" format="2">
	<advance width="246"/>
	<unicode hex="0042"/>
	<outline>
		<contour>
			<point x="43" y="0" type="line"/>
			<point x="133" y="0" type="line" smooth="yes"/>
			<point x="185" y="0"/>
			<point x="215" y="32"/>
			<point x="215" y="86" type="curve" smooth="yes"/>
			<point x="215" y="354" type="line" smooth="yes"/>
			<point x="215" y="389"/>
			<point x="197" y="411"/>
			<point x="167" y="414" type="curve"/>
			<point x="167" y="420" type="line"/>
			<point x="194" y="424"/>
			<point x="210" y="445"/>
			<point x="210" y="476" type="curve" smooth="yes"/>
			<point x="210" y="714" type="line" smooth="yes"/>
			<point x="210" y="768"/>
			<point x="180" y="800"/>
			<point x="128" y="800" type="curve" smooth="yes"/>
			<point x="43" y="800" type="line"/>
		</contour>
		<contour>
			<point x="98" y="50" type="line"/>
			<point x="98" y="390" type="line"/>
			<point x="132" y="390" type="line" smooth="yes"/>
			<point x="150" y="390"/>
			<point x="160" y="378"/>
			<point x="160" y="359" type="curve" smooth="yes"/>
			<point x="160" y="81" type="line" smooth="yes"/>
			<point x="160" y="62"/>
			<point x="150" y="50"/>
			<point x="132" y="50" type="curve" smooth="yes"/>
		</contour>
		<contour>
			<point x="98" y="440" type="line"/>
			<point x="98" y="750" type="line"/>
			<point x="127" y="750" type="line" smooth="yes"/>
			<point x="145" y="750"/>
			<point x="155" y="738"/>
			<point x="155" y="719" type="curve" smooth="yes"/>
			<point x="155" y="471" type="line" smooth="yes"/>
			<point x="155" y="452"/>
			<point x="145" y="440"/>
			<point x="127" y="440" type="curve" smooth="yes"/>
		</contour>
	</outline>
</glyph>
<glyph name="C" format="2">
	<advance width="241"/>
	<unicode hex="0043"/>
	<anchor x="121" y="800" name="top"/>
	<anchor x="121" y="0" name="bottom"/>
	<outline>
		<contour>
			<point x="209" y="280" type="line"/>
			<point x="154" y="280" type="line"/>
			<point x="154" y="80" type="line" smooth="yes"/>
			<point x="154" y="55"/>
			<point x="142" y="40"/>
			<point x="121" y="40" type="curve" smooth="yes"/>
			<point x="100" y="40"/>
			<point x="88" y="53"/>
			<point x="88" y="75" type="curve" smooth="yes"/>
			<point x="88" y="720" type="line" smooth="yes"/>
			<point x="88" y="745"/>
			<point x="100" y="760"/>
			<point x="121" y="760" type="curve" smooth="yes"/>
			<point x="142" y="760"/>
			<point x="154" y="747"/>
			<point x="154" y="725" type="curve" smooth="yes"/>
			<point x="154" y="524" type="line"/>
			<point x="209" y="524" type="line"/>
			<point x="209" y="724" type="line" smooth="yes"/>
			<point x="209" y="778"/>
			<point x="177" y="810"/>
			<point x="122" y="810" type="curve" smooth="yes"/>
			<point x="66" y="810"/>
			<point x="33" y="778"/>
			<point x="33" y="725" type="curve" smooth="yes"/>
			<point x="33" y="76" type="line" smooth="yes"/>
			<point x="33" y="22"/>
			<point x="65" y="-10"/>
			<point x="120" y="-10" type="curve" smooth="yes"/>
			<point x="176" y="-10"/>
			<point x="209" y="22"/>
			<point x="209" y="75" type="curve" smooth="yes"/>
		</contour>
	</outline>
</glyph>
<glyph name="D" format="2">
	<advance width="258"/>
	<unicode hex="0044"/>
	<anchor x="134" y="400" name="center"/>
	<anchor x="134" y="0" name="bottom"/>
	<anchor x="134" y="800" name="top"/>
	<outline>
		<contour>
			<point x="43" y="0" type="line"/>
			<point x="136" y="0" type="line" smooth="yes"/>
			<point x="192" y="0"/>
			<point x="225" y="30"/>
			<point x="225" y="80" type="curve" smooth="yes"/>
			<point x="225" y="714" type="line" smooth="yes"/>
			<point x="225" y="768"/>
			<point x="193" y="800"/>
			<point x="138" y="800" type="curve" smooth="yes"/>
			<point x="43" y="800" type="line"/>
		</contour>
		<contour>
			<point x="98" y="50" type="line"/>
			<point x="98" y="750" type="line"/>
			<point x="137" y="750" type="line" smooth="yes"/>
			<point x="158" y="750"/>
			<point x="170" y="739"/>
			<point x="170" y="720" type="curve" smooth="yes"/>
			<point x="170" y="85" type="line" smooth="yes"/>
			<point x="170" y="63"/>
			<point x="158" y="50"/>
			<point x="137" y="50" type="curve" smooth="yes"/>
		</contour>
	</outline>
</glyph>
<glyph name="E" format="2">
	<advance width="220"/>
	<unicode hex="0045"/>
	<anchor x="198" y="10" name="ogonek"/>
	<anchor x="116" y="800" name="top"/>
	<anchor x="43" y="800" name="topleft"/>
	<anchor x="121" y="0" name="bottom"/>
	<outline>
		<contour>
			<point x="43" y="0" type="line"/>
			<point x="198" y="0" type="line"/>
			<point x="198" y="50" type="line"/>
			<point x="98" y="50" type="line"/>
			<point x="98" y="420" type="line"/>
			<point x="173" y="420" type="line"/>
			<point x="173" y="470" type="line"/>
			<point x="98" y="470" type="line"/>
			<point x="98" y="750" type="line"/>
			<point x="188" y="750" type="line"/>
			<point x="188" y="800" type="line"/>
			<point x="43" y="800" type="line"/>
		</contour>
	</outline>
</glyph>
<glyph name="F" format="2">
	<advance width="220"/>
	<unicode hex="0046"/>
	<outline>
		<contour>
			<point x="43" y="0" type="line"/>
			<point x="98" y="0" type="line"/>
			<point x="98" y="420" type="line"/>
			<point x="168" y="420" type="line"/>
			<point x="168" y="470" type="line"/>
			<point x="98" y="470" type="line"/>
			<point x="98" y="750" type="line"/>
			<point x="198" y="750" type="line"/>
			<point x="198" y="800" type="line"/>
			<point x="43" y="800" type="line"/>
		</contour>
	</outline>
</glyph>
<glyph name="I" format="2">
	<advance width="141"/>
	<unicode hex="0049"/>
	<anchor x="98" y="10" name="ogonek"/>
	<anchor x="71" y="800" name="top"/>
	<anchor x="43" y="800" name="topleft"/>
	<anchor x="71" y="0" name="bottom"/>
	<outline>
		<contour>
			<point x="98" y="800" type="line"/>
			<point x="43" y="800" type="line"/>
			<point x="43" y="0" type="line"/>
			<point x="98" y="0" type="line"/>
		</contour>
	</outline>
</glyph>
<glyph name="K" format="2">
	<advance width="256"/>
	<unicode hex="004B"/>
	<anchor x="127" y="800" name="top"/>
	<anchor x="127" y="0" name="bottom"/>
	<outline>
		<contour>
			<point x="43" y="0" type="line"/>
			<point x="98" y="0" type="line"/>
			<point x="98" y="365" type="line"/>
			<point x="103" y="448" type="line"/>
			<point x="109" y="448" type="line"/>
			<point x="174" y="0" type="line"/>
			<point x="235" y="0" type="line"/>
			<point x="147" y="497" type="line"/>
			<point x="222" y="800" type="line"/>
			<point x="165" y="800" type="line"/>
			<point x="108" y="522" type="line"/>
			<point x="102" y="480" type="line"/>
			<point x="96" y="480" type="line"/>
			<point x="98" y="522" type="line"/>
			<point x="98" y="800" type="line"/>
			<point x="43" y="800" type="line"/>
		</contour>
	</outline>
</glyph>
<glyph name="L" format="2">
	<advance width="219"/>
	<unicode hex="004C"/>
	<anchor x="70" y="400" name="center"/>
	<anchor x="68" y="800" name="top"/>
	<anchor x="128" y="820" name="topright"/>
	<anchor x="128" y="0" name="bottom"/>
	<outline>
		<contour>
			<point x="198" y="0" type="line"/>
			<point x="198" y="50" type="line"/>
			<point x="98" y="50" type="line"/>
			<point x="98" y="800" type="line"/>
			<point x="43" y="800" type="line"/>
			<point x="43" y="0" type="line"/>
		</contour>
	</outline>
</glyph>
<glyph name="M" format="2">
	<advance width="391"/>
	<unicode hex="004D"/>
	<outline>
		<contour>
			<point x="348" y="0" type="line"/>
			<point x="348" y="800" type="line"/>
			<point x="275" y="800" type="line"/>
			<point x="202" y="193" type="line"/>
			<point x="198" y="70" type="line"/>
			<point x="192" y="70" type="line"/>
			<point x="188" y="193" type="line"/>
			<point x="118" y="800" type="line"/>
			<point x="43" y="800" type="line"/>
			<point x="43" y="0" type="line"/>
			<point x="93" y="0" type="line"/>
			<point x="93" y="516" type="line"/>
			<point x="83" y="730" type="line"/>
			<point x="89" y="730" type="line"/>
			<point x="104" y="516" type="line"/>
			<point x="164" y="0" type="line"/>
			<point x="220" y="0" type="line"/>
			<point x="282" y="516" type="line"/>
			<point x="301" y="730" type="line"/>
			<point x="307" y="730" type="line"/>
			<point x="293" y="516" type="line"/>
			<point x="293" y="0" type="line"/>
		</contour>
	</outline>
</glyph>
<glyph name="N" format="2">
	<advance width="293"/>
	<unicode hex="004E"/>
	<anchor x="152" y="800" name="top"/>
	<anchor x="152" y="0" name="bottom"/>
	<outline>
		<contour>
			<point x="43" y="800" type="line"/>
			<point x="43" y="0" type="line"/>
			<point x="93" y="0" type="line"/>
			<point x="93" y="600" type="line"/>
			<point x="83" y="730" type="line"/>
			<point x="89" y="730" type="line"/>
			<point x="104" y="600" type="line"/>
			<point x="176" y="0" type="line"/>
			<point x="250" y="0" type="line"/>
			<point x="250" y="800" type="line"/>
			<point x="200" y="800" type="line"/>
			<point x="200" y="200" type="line"/>
			<point x="210" y="70" type="line"/>
			<point x="204" y="70" type="line"/>
			<point x="189" y="200" type="line"/>
			<point x="119" y="800" type="line"/>
		</contour>
	</outline>
</glyph>
<glyph name="P" format="2">
	<advance width="247"/>
	<unicode hex="0050"/>
	<outline>
		<contour>
			<point x="43" y="0" type="line"/>
			<point x="98" y="0" type="line"/>
			<point x="98" y="370" type="line"/>
			<point x="131" y="370" type="line" smooth="yes"/>
			<point x="184" y="370"/>
			<point x="215" y="402"/>
			<point x="215" y="456" type="curve" smooth="yes"/>
			<point x="215" y="714" type="line" smooth="yes"/>
			<point x="215" y="768"/>
			<point x="185" y="800"/>
			<point x="133" y="800" type="curve" smooth="yes"/>
			<point x="43" y="800" type="line"/>
		</contour>
		<contour>
			<point x="98" y="420" type="line"/>
			<point x="98" y="750" type="line"/>
			<point x="132" y="750" type="line" smooth="yes"/>
			<point x="150" y="750"/>
			<point x="160" y="738"/>
			<point x="160" y="719" type="curve" smooth="yes"/>
			<point x="160" y="451" type="line" smooth="yes"/>
			<point x="160" y="432"/>
			<point x="150" y="420"/>
			<point x="132" y="420" type="curve" smooth="yes"/>
		</contour>
	</outline>
</glyph>
<glyph name="Q" format="2">
	<advance width="242"/>
	<unicode hex="0051"/>
	<outline>
		<contour>
			<point x="33" y="76" type="line" smooth="yes"/>
			<point x="33" y="22"/>
			<point x="65" y="-10"/>
			<point x="120" y="-10" type="curve" smooth="yes"/>
			<point x="176" y="-10"/>
			<point x="209" y="22"/>
			<point x="209" y="75" type="curve" smooth="yes"/>
			<point x="209" y="724" type="line" smooth="yes"/>
			<point x="209" y="778"/>
			<point x="177" y="810"/>
			<point x="122" y="810" type="curve" smooth="yes"/>
			<point x="66" y="810"/>
			<point x="33" y="778"/>
			<point x="33" y="725" type="curve" smooth="yes"/>
		</contour>
		<contour>
			<point x="88" y="75" type="curve" smooth="yes"/>
			<point x="88" y="720" type="line" smooth="yes"/>
			<point x="88" y="745"/>
			<point x="100" y="760"/>
			<point x="121" y="760" type="curve" smooth="yes"/>
			<point x="142" y="760"/>
			<point x="154" y="747"/>
			<point x="154" y="725" type="curve" smooth="yes"/>
			<point x="154" y="80" type="line" smooth="yes"/>
			<point x="154" y="55"/>
			<point x="142" y="40"/>
			<point x="121" y="40" type="curve" smooth="yes"/>
			<point x="100" y="40"/>
			<point x="88" y="53"/>
		</contour>
		<contour>
			<point x="122" y="14" type="line"/>
			<point x="122" y="4" type="line" smooth="yes"/>
			<point x="122" y="-46"/>
			<point x="147" y="-76"/>
			<point x="190" y="-76" type="curve" smooth="yes"/>
			<point x="197" y="-76"/>
			<point x="204" y="-75"/>
			<point x="209" y="-73" type="curve"/>
			<point x="209" y="-23" type="line"/>
			<point x="203" y="-25"/>
			<point x="196" y="-26"/>
			<point x="190" y="-26" type="curve" smooth="yes"/>
			<point x="166" y="-26"/>
			<point x="152" y="-13"/>
			<point x="152" y="9" type="curve" smooth="yes"/>
			<point x="152" y="14" type="line"/>
		</contour>
	</outline>
</glyph>
<glyph name="R" format="2">
	<advance width="270"/>
	<unicode hex="0052"/>
	<anchor x="121" y="800" name="top"/>
	<anchor x="141" y="0" name="bottom"/>
	<outline>
		<contour>
			<point x="43" y="0" type="line"/>
			<point x="98" y="0" type="line"/>
			<point x="98" y="390" type="line"/>
			<point x="135" y="390" type="line"/>
			<point x="193" y="0" type="line"/>
			<point x="249" y="0" type="line"/>
			<point x="189" y="379" type="line" smooth="yes"/>
			<point x="187" y="390"/>
			<point x="178" y="400"/>
			<point x="165" y="406" type="curve"/>
			<point x="165" y="410" type="line"/>
			<point x="196" y="417"/>
			<point x="215" y="443"/>
			<point x="215" y="480" type="curve" smooth="yes"/>
			<point x="215" y="710" type="line" smooth="yes"/>
			<point x="215" y="767"/>
			<point x="183" y="800"/>
			<point x="128" y="800" type="curve" smooth="yes"/>
			<point x="43" y="800" type="line"/>
		</contour>
		<contour>
			<point x="98" y="440" type="line"/>
			<point x="98" y="750" type="line"/>
			<point x="127" y="750" type="line" smooth="yes"/>
			<point x="148" y="750"/>
			<point x="160" y="737"/>
			<point x="160" y="715" type="curve" smooth="yes"/>
			<point x="160" y="475" type="line" smooth="yes"/>
			<point x="160" y="453"/>
			<point x="148" y="440"/>
			<point x="127" y="440" type="curve" smooth="yes"/>
		</contour>
	</outline>
</glyph>
<glyph name="S" format="2">
	<advance width="251"/>
	<unicode hex="0053"/>
	<anchor x="123" y="800" name="top"/>
	<anchor x="123" y="0" name="bottom"/>
	<outline>
		<contour>
			<point x="32" y="230" type="line"/>
			<point x="32" y="85" type="line" smooth="yes"/>
			<point x="32" y="25"/>
			<point x="67" y="-10"/>
			<point x="127" y="-10" type="curve" smooth="yes"/>
			<point x="184" y="-10"/>
			<point x="218" y="27"/>
			<point x="218" y="90" type="curve" smooth="yes"/>
			<point x="218" y="118"/>
			<point x="214" y="160"/>
			<point x="207" y="201" type="curve" smooth="yes"/>
			<point x="199" y="250"/>
			<point x="186" y="306"/>
			<point x="173" y="351" type="curve" smooth="yes"/>
			<point x="138" y="472" type="line" smooth="yes"/>
			<point x="123" y="524"/>
			<point x="110" y="579"/>
			<point x="103" y="619" type="curve" smooth="yes"/>
			<point x="96" y="658"/>
			<point x="92" y="693"/>
			<point x="92" y="715" type="curve" smooth="yes"/>
			<point x="92" y="720" type="line" smooth="yes"/>
			<point x="92" y="745"/>
			<point x="104" y="760"/>
			<point x="125" y="760" type="curve" smooth="yes"/>
			<point x="146" y="760"/>
			<point x="158" y="745"/>
			<point x="158" y="720" type="curve" smooth="yes"/>
			<point x="158" y="574" type="line"/>
			<point x="213" y="574" type="line"/>
			<point x="213" y="719" type="line" smooth="yes"/>
			<point x="213" y="776"/>
			<point x="180" y="810"/>
			<point x="124" y="810" type="curve" smooth="yes"/>
			<point x="69" y="810"/>
			<point x="37" y="775"/>
			<point x="37" y="715" type="curve" smooth="yes"/>
			<point x="37" y="691"/>
			<point x="41" y="652"/>
			<point x="48" y="612" type="curve" smooth="yes"/>
			<point x="55" y="571"/>
			<point x="69" y="513"/>
			<point x="85" y="457" type="curve" smooth="yes"/>
			<point x="120" y="336" type="line" smooth="yes"/>
			<point x="133" y="292"/>
			<point x="145" y="239"/>
			<point x="153" y="194" type="curve" smooth="yes"/>
			<point x="160" y="152"/>
			<point x="163" y="113"/>
			<point x="163" y="90" type="curve" smooth="yes"/>
			<point x="163" y="85" type="line" smooth="yes"/>
			<point x="163" y="57"/>
			<point x="149" y="40"/>
			<point x="125" y="40" type="curve" smooth="yes"/>
			<point x="101" y="40"/>
			<point x="87" y="57"/>
			<point x="87" y="85" type="curve" smooth="yes"/>
			<point x="87" y="230" type="line"/>
		</contour>
	</outline>
</glyph>
<glyph name="T" format="2">
	<advance width="229"/>
	<unicode hex="0054"/>
	<anchor x="116" y="400" name="center"/>
	<anchor x="116" y="0" name="bottom"/>
	<anchor x="116" y="800" name="top"/>
	<outline>
		<contour>
			<point x="23" y="800" type="line"/>
			<point x="23" y="750" type="line"/>
			<point x="88" y="750" type="line"/>
			<point x="88" y="0" type="line"/>
			<point x="143" y="0" type="line"/>
			<point x="143" y="750" type="line"/>
			<point x="208" y="750" type="line"/>
			<point x="208" y="800" type="line"/>
		</contour>
	</outline>
</glyph>
<glyph name="U" format="2">
	<advance width="262"/>
	<unicode hex="0055"/>
	<anchor x="184" y="10" name="ogonek"/>
	<anchor x="131" y="800" name="top"/>
	<anchor x="249" y="800" name="topright"/>
	<anchor x="131" y="0" name="bottom"/>
	<outline>
		<contour>
			<point x="219" y="800" type="line"/>
			<point x="164" y="800" type="line"/>
			<point x="164" y="80" type="line" smooth="yes"/>
			<point x="164" y="55"/>
			<point x="152" y="40"/>
			<point x="131" y="40" type="curve" smooth="yes"/>
			<point x="110" y="40"/>
			<point x="98" y="53"/>
			<point x="98" y="75" type="curve" smooth="yes"/>
			<point x="98" y="800" type="line"/>
			<point x="43" y="800" type="line"/>
			<point x="43" y="76" type="line" smooth="yes"/>
			<point x="43" y="22"/>
			<point x="75" y="-10"/>
			<point x="130" y="-10" type="curve" smooth="yes"/>
			<point x="186" y="-10"/>
			<point x="219" y="22"/>
			<point x="219" y="75" type="curve" smooth="yes"/>
		</contour>
	</outline>
</glyph>
<glyph name="V" format="2">
	<advance width="247"/>
	<unicode hex="0056"/>
	<outline>
		<contour>
			<point x="23" y="800" type="line"/>
			<point x="89" y="0" type="line"/>
			<point x="161" y="0" type="line"/>
			<point x="226" y="800" type="line"/>
			<point x="171" y="800" type="line"/>
			<point x="132" y="200" type="line"/>
			<point x="129" y="70" type="line"/>
			<point x="123" y="70" type="line"/>
			<point x="120" y="200" type="line"/>
			<point x="83" y="800" type="line"/>
		</contour>
	</outline>
</glyph>
<glyph name="W" format="2">
	<advance width="387"/>
	<unicode hex="0057"/>
	<guideline x="247" y="264" angle="0"/>
	<anchor x="197" y="800" name="top"/>
	<anchor x="197" y="0" name="bottom"/>
	<outline>
		<contour>
			<point x="23" y="800" type="line"/>
			<point x="79" y="0" type="line"/>
			<point x="161" y="0" type="line"/>
			<point x="194" y="590" type="line"/>
			<point x="194" y="730" type="line"/>
			<point x="200" y="730" type="line"/>
			<point x="200" y="590" type="line"/>
			<point x="234" y="0" type="line"/>
			<point x="311" y="0" type="line"/>
			<point x="366" y="800" type="line"/>
			<point x="311" y="800" type="line"/>
			<point x="281" y="200" type="line"/>
			<point x="278" y="70" type="line"/>
			<point x="272" y="70" type="line"/>
			<point x="269" y="200" type="line"/>
			<point x="233" y="800" type="line"/>
			<point x="161" y="800" type="line"/>
			<point x="124" y="200" type="line"/>
			<point x="121" y="70" type="line"/>
			<point x="115" y="70" type="line"/>
			<point x="112" y="200" type="line"/>
			<point x="83" y="800" type="line"/>
		</contour>
	</outline>
</glyph>
<glyph name="X" format="2">
	<advance width="269"/>
	<unicode hex="0058"/>
	<outline>
		<contour>
			<point x="23" y="0" type="line"/>
			<point x="75" y="0" type="line"/>
			<point x="122" y="279" type="line"/>
			<point x="126" y="369" type="line"/>
			<point x="132" y="369" type="line"/>
			<point x="136" y="279" type="line"/>
			<point x="188" y="0" type="line"/>
			<point x="248" y="0" type="line"/>
			<point x="165" y="405" type="line"/>
			<point x="226" y="800" type="line"/>
			<point x="174" y="800" type="line"/>
			<point x="140" y="533" type="line"/>
			<point x="136" y="441" type="line"/>
			<point x="130" y="441" type="line"/>
			<point x="126" y="533" type="line"/>
			<point x="87" y="800" type="line"/>
			<point x="27" y="800" type="line"/>
			<point x="96" y="405" type="line"/>
		</contour>
	</outline>
</glyph>
<glyph name="Y" format="2">
	<advance width="247"/>
	<unicode hex="0059"/>
	<guideline x="-97" y="800" angle="90"/>
	<guideline x="341" y="800" angle="90"/>
	<anchor x="125" y="800" name="top"/>
	<anchor x="125" y="0" name="bottom"/>
	<anchor x="-7" y="800" name="topleft"/>
	<outline>
		<contour>
			<point x="23" y="800" type="line"/>
			<point x="97" y="270" type="line"/>
			<point x="97" y="0" type="line"/>
			<point x="152" y="0" type="line"/>
			<point x="152" y="270" type="line"/>
			<point x="226" y="800" type="line"/>
			<point x="171" y="800" type="line"/>
			<point x="130" y="440" type="line"/>
			<point x="129" y="380" type="line"/>
			<point x="123" y="380" type="line"/>
			<point x="122" y="440" type="line"/>
			<point x="83" y="800" type="line"/>
		</contour>
	</outline>
</glyph>
<glyph name="Z" format="2">
	<advance width="240"/>
	<unicode hex="005A"/>
	<anchor x="121" y="800" name="top"/>
	<anchor x="121" y="0" name="bottom"/>
	<outline>
		<contour>
			<point x="22" y="0" type="line"/>
			<point x="218" y="0" type="line"/>
			<point x="218" y="50" type="line"/>
			<point x="71" y="50" type="line"/>
			<point x="71" y="54" type="line"/>
			<point x="81" y="60" type="line"/>
			<point x="208" y="764" type="line"/>
			<point x="208" y="800" type="line"/>
			<point x="42" y="800" type="line"/>
			<point x="42" y="750" type="line"/>
			<point x="158" y="750" type="line"/>
			<point x="158" y="746" type="line"/>
			<point x="148" y="740" type="line"/>
			<point x="22" y="36" type="line"/>
		</contour>
	</outline>
</glyph>
<glyph name="bracketright" format="2">
	<advance width="201"/>
	<unicode hex="005D"/>
	<outline>
		<contour>
			<point x="153" y="-180" type="line"/>
			<point x="153" y="820" type="line"/>
			<point x="48" y="820" type="line"/>
			<point x="48" y="770" type="line"/>
			<point x="98" y="770" type="line"/>
			<point x="98" y="-130" type="line"/>
			<point x="48" y="-130" type="line"/>
			<point x="48" y="-180" type="line"/>
		</contour>
	</outline>
</glyph>
<glyph name="underscore" format="2">
	<advance width="200"/>
	<unicode hex="005F"/>
	<outline>
		<contour>
			<point x="0" y="-96" type="line"/>
			<point x="200" y="-96" type="line"/>
			<point x="200" y="-46" type="line"/>
			<point x="0" y="-46" type="line"/>
		</contour>
	</outline>
</glyph>
<glyph name="a" format="2">
	<advance width="220"/>
	<unicode hex="0061"/>
	<anchor x="208" y="10" name="ogonek"/>
	<anchor x="84" y="0" name="bottom"/>
	<anchor x="115" y="590" name="top"/>
	<outline>
		<contour>
			<point x="36" y="410" type="line"/>
			<point x="86" y="410" type="line"/>
			<point x="86" y="525" type="line" smooth="yes"/>
			<point x="86" y="544"/>
			<point x="96" y="555"/>
			<point x="114" y="555" type="curve" smooth="yes"/>
			<point x="132" y="555"/>
			<point x="142" y="544"/>
			<point x="142" y="525" type="curve" smooth="yes"/>
			<point x="142" y="80" type="line" smooth="yes"/>
			<point x="142" y="50"/>
			<point x="148" y="20"/>
			<point x="159" y="0" type="curve"/>
			<point x="208" y="0" type="line"/>
			<point x="210" y="4" type="line"/>
			<point x="199" y="26"/>
			<point x="192" y="59"/>
			<point x="192" y="89" type="curve" smooth="yes"/>
			<point x="192" y="514" type="line" smooth="yes"/>
			<point x="192" y="568"/>
			<point x="163" y="600"/>
			<point x="115" y="600" type="curve" smooth="yes"/>
			<point x="65" y="600"/>
			<point x="36" y="568"/>
			<point x="36" y="515" type="curve" smooth="yes"/>
		</contour>
		<contour>
			<point x="162" y="90" type="line"/>
			<point x="142" y="90" type="line"/>
			<point x="142" y="59"/>
			<point x="129" y="40"/>
			<point x="107" y="40" type="curve" smooth="yes"/>
			<point x="88" y="40"/>
			<point x="76" y="55"/>
			<point x="76" y="80" type="curve" smooth="yes"/>
			<point x="76" y="210" type="line" smooth="yes"/>
			<point x="76" y="244"/>
			<point x="92" y="272"/>
			<point x="118" y="286" type="curve" smooth="yes"/>
			<point x="167" y="312" type="line"/>
			<point x="167" y="359" type="line"/>
			<point x="95" y="319" type="line" smooth="yes"/>
			<point x="48" y="293"/>
			<point x="26" y="249"/>
			<point x="26" y="200" type="curve" smooth="yes"/>
			<point x="26" y="70" type="line" smooth="yes"/>
			<point x="26" y="20"/>
			<point x="44" y="-10"/>
			<point x="84" y="-10" type="curve" smooth="yes"/>
			<point x="125" y="-10"/>
			<point x="154" y="22"/>
			<point x="162" y="76" type="curve"/>
		</contour>
	</outline>
</glyph>
<glyph name="c" format="2">
	<advance width="210"/>
	<unicode hex="0063"/>
	<anchor x="106" y="590" name="top"/>
	<anchor x="106" y="0" name="bottom"/>
	<outline>
		<contour>
			<point x="132" y="394" type="line"/>
			<point x="182" y="394" type="line"/>
			<point x="182" y="522" type="line" smooth="yes"/>
			<point x="182" y="571"/>
			<point x="153" y="600"/>
			<point x="105" y="600" type="curve" smooth="yes"/>
			<point x="55" y="600"/>
			<point x="26" y="570"/>
			<point x="26" y="520" type="curve" smooth="yes"/>
			<point x="26" y="71" type="line" smooth="yes"/>
			<point x="26" y="20"/>
			<point x="55" y="-10"/>
			<point x="103" y="-10" type="curve" smooth="yes"/>
			<point x="153" y="-10"/>
			<point x="182" y="19"/>
			<point x="182" y="68" type="curve" smooth="yes"/>
			<point x="182" y="195" type="line"/>
			<point x="132" y="195" type="line"/>
			<point x="132" y="71" type="line" smooth="yes"/>
			<point x="132" y="52"/>
			<point x="122" y="40"/>
			<point x="104" y="40" type="curve" smooth="yes"/>
			<point x="86" y="40"/>
			<point x="76" y="50"/>
			<point x="76" y="68" type="curve" smooth="yes"/>
			<point x="76" y="523" type="line" smooth="yes"/>
			<point x="76" y="540"/>
			<point x="86" y="550"/>
			<point x="104" y="550" type="curve" smooth="yes"/>
			<point x="122" y="550"/>
			<point x="132" y="539"/>
			<point x="132" y="520" type="curve" smooth="yes"/>
		</contour>
	</outline>
</glyph>
<glyph name="e" format="2">
	<advance width="210"/>
	<unicode hex="0065"/>
	<anchor x="147" y="10" name="ogonek"/>
	<anchor x="105" y="0" name="bottom"/>
	<anchor x="105" y="590" name="top"/>
	<outline>
		<contour>
			<point x="182" y="195" type="line"/>
			<point x="132" y="195" type="line"/>
			<point x="132" y="71" type="line" smooth="yes"/>
			<point x="132" y="52"/>
			<point x="122" y="40"/>
			<point x="104" y="40" type="curve" smooth="yes"/>
			<point x="86" y="40"/>
			<point x="76" y="50"/>
			<point x="76" y="68" type="curve" smooth="yes"/>
			<point x="76" y="523" type="line" smooth="yes"/>
			<point x="76" y="540"/>
			<point x="86" y="550"/>
			<point x="104" y="550" type="curve" smooth="yes"/>
			<point x="122" y="550"/>
			<point x="132" y="539"/>
			<point x="132" y="520" type="curve" smooth="yes"/>
			<point x="132" y="329" type="line"/>
			<point x="157" y="354" type="line"/>
			<point x="66" y="354" type="line"/>
			<point x="66" y="309" type="line"/>
			<point x="182" y="309" type="line"/>
			<point x="182" y="522" type="line" smooth="yes"/>
			<point x="182" y="571"/>
			<point x="153" y="600"/>
			<point x="105" y="600" type="curve" smooth="yes"/>
			<point x="55" y="600"/>
			<point x="26" y="570"/>
			<point x="26" y="520" type="curve" smooth="yes"/>
			<point x="26" y="71" type="line" smooth="yes"/>
			<point x="26" y="20"/>
			<point x="55" y="-10"/>
			<point x="103" y="-10" type="curve" smooth="yes"/>
			<point x="153" y="-10"/>
			<point x="182" y="19"/>
			<point x="182" y="68" type="curve" smooth="yes"/>
		</contour>
	</outline>
</glyph>
<glyph name="g" format="2">
	<advance width="214"/>
	<unicode hex="0067"/>
	<anchor x="105" y="590" name="top"/>
	<anchor x="105" y="-180" name="bottom"/>
	<outline>
		<contour>
			<point x="26" y="-105" type="line" smooth="yes"/>
			<point x="26" y="-158"/>
			<point x="58" y="-190"/>
			<point x="105" y="-190" type="curve" smooth="yes"/>
			<point x="150" y="-190"/>
			<point x="182" y="-158"/>
			<point x="182" y="-104" type="curve" smooth="yes"/>
			<point x="182" y="590" type="line"/>
			<point x="142" y="590" type="line"/>
			<point x="132" y="515" type="line"/>
			<point x="132" y="-120" type="line" smooth="yes"/>
			<point x="132" y="-136"/>
			<point x="118" y="-145"/>
			<point x="104" y="-145" type="curve" smooth="yes"/>
			<point x="90" y="-145"/>
			<point x="76" y="-134"/>
			<point x="76" y="-115" type="curve" smooth="yes"/>
			<point x="76" y="-50" type="line"/>
			<point x="26" y="-50" type="line"/>
		</contour>
		<contour>
			<point x="147" y="544" type="line"/>
			<point x="140" y="579"/>
			<point x="116" y="600"/>
			<point x="83" y="600" type="curve" smooth="yes"/>
			<point x="47" y="600"/>
			<point x="26" y="570"/>
			<point x="26" y="520" type="curve" smooth="yes"/>
			<point x="26" y="60" type="line" smooth="yes"/>
			<point x="26" y="13"/>
			<point x="45" y="-10"/>
			<point x="77" y="-10" type="curve" smooth="yes"/>
			<point x="113" y="-10"/>
			<point x="139" y="15"/>
			<point x="147" y="56" type="curve"/>
			<point x="147" y="75" type="line"/>
			<point x="132" y="75" type="line"/>
			<point x="132" y="50"/>
			<point x="121" y="35"/>
			<point x="102" y="35" type="curve" smooth="yes"/>
			<point x="86" y="35"/>
			<point x="76" y="46"/>
			<point x="76" y="65" type="curve" smooth="yes"/>
			<point x="76" y="510" type="line" smooth="yes"/>
			<point x="76" y="538"/>
			<point x="87" y="555"/>
			<point x="106" y="555" type="curve" smooth="yes"/>
			<point x="122" y="555"/>
			<point x="132" y="540"/>
			<point x="132" y="515" type="curve"/>
			<point x="147" y="515" type="line"/>
		</contour>
	</outline>
</glyph>
<glyph name="h" format="2">
	<advance width="214"/>
	<unicode hex="0068"/>
	<outline>
		<contour>
			<point x="30" y="820" type="line"/>
			<point x="30" y="0" type="line"/>
			<point x="80" y="0" type="line"/>
			<point x="80" y="820" type="line"/>
		</contour>
		<contour>
			<point x="65" y="515" type="line"/>
			<point x="80" y="515" type="line"/>
			<point x="80" y="540"/>
			<point x="91" y="555"/>
			<point x="110" y="555" type="curve" smooth="yes"/>
			<point x="126" y="555"/>
			<point x="136" y="544"/>
			<point x="136" y="525" type="curve" smooth="yes"/>
			<point x="136" y="0" type="line"/>
			<point x="186" y="0" type="line"/>
			<point x="186" y="530" type="line" smooth="yes"/>
			<point x="186" y="577"/>
			<point x="167" y="600"/>
			<point x="135" y="600" type="curve" smooth="yes"/>
			<point x="99" y="600"/>
			<point x="73" y="575"/>
			<point x="65" y="534" type="curve"/>
		</contour>
	</outline>
</glyph>
<glyph name="k" format="2">
	<advance width="227"/>
	<unicode hex="006B"/>
	<anchor x="115" y="820" name="top"/>
	<anchor x="119" y="0" name="bottom"/>
	<outline>
		<contour>
			<point x="30" y="0" type="line"/>
			<point x="80" y="0" type="line"/>
			<point x="80" y="323" type="line"/>
			<point x="92" y="368" type="line"/>
			<point x="96" y="368" type="line"/>
			<point x="154" y="0" type="line"/>
			<point x="209" y="0" type="line"/>
			<point x="128" y="414" type="line"/>
			<point x="189" y="590" type="line"/>
			<point x="139" y="590" type="line"/>
			<point x="87" y="419" type="line"/>
			<point x="80" y="382" type="line"/>
			<point x="76" y="382" type="line"/>
			<point x="80" y="420" type="line"/>
			<point x="80" y="820" type="line"/>
			<point x="30" y="820" type="line"/>
		</contour>
	</outline>
</glyph>
<glyph name="l" format="2">
	<advance width="112"/>
	<unicode hex="006C"/>
	<anchor x="53" y="410" name="center"/>
	<anchor x="53" y="820" name="top"/>
	<anchor x="110" y="820" name="topright"/>
	<anchor x="53" y="0" name="bottom"/>
	<outline>
		<contour>
			<point x="30" y="820" type="line"/>
			<point x="30" y="0" type="line"/>
			<point x="80" y="0" type="line"/>
			<point x="80" y="820" type="line"/>
		</contour>
	</outline>
</glyph>
<glyph name="m" format="2">
	<advance width="314"/>
	<unicode hex="006D"/>
	<guideline x="231" y="479" angle="0"/>
	<anchor x="107" y="590" name="top"/>
	<anchor x="107" y="0" name="bottom"/>
	<outline>
		<contour>
			<point x="30" y="590" type="line"/>
			<point x="30" y="0" type="line"/>
			<point x="80" y="0" type="line"/>
			<point x="80" y="515" type="line"/>
			<point x="70" y="590" type="line"/>
		</contour>
		<contour>
			<point x="133" y="520" type="curve" smooth="yes"/>
			<point x="133" y="0" type="line"/>
			<point x="183" y="0" type="line"/>
			<point x="183" y="525" type="line" smooth="yes"/>
			<point x="183" y="572"/>
			<point x="164" y="600"/>
			<point x="132" y="600" type="curve" smooth="yes"/>
			<point x="98" y="600"/>
			<point x="73" y="575"/>
			<point x="65" y="534" type="curve"/>
			<point x="65" y="510" type="line"/>
			<point x="80" y="510" type="line"/>
			<point x="80" y="535"/>
			<point x="91" y="550"/>
			<point x="110" y="550" type="curve" smooth="yes"/>
			<point x="124" y="550"/>
			<point x="133" y="539"/>
		</contour>
		<contour>
			<point x="236" y="520" type="curve" smooth="yes"/>
			<point x="236" y="0" type="line"/>
			<point x="286" y="0" type="line"/>
			<point x="286" y="525" type="line" smooth="yes"/>
			<point x="286" y="572"/>
			<point x="267" y="600"/>
			<point x="235" y="600" type="curve" smooth="yes"/>
			<point x="201" y="600"/>
			<point x="176" y="575"/>
			<point x="168" y="534" type="curve"/>
			<point x="168" y="510" type="line"/>
			<point x="183" y="510" type="line"/>
			<point x="183" y="535"/>
			<point x="194" y="550"/>
			<point x="213" y="550" type="curve" smooth="yes"/>
			<point x="227" y="550"/>
			<point x="236" y="539"/>
		</contour>
	</outline>
</glyph>
<glyph name="n" format="2">
	<advance width="214"/>
	<unicode hex="006E"/>
	<anchor x="107" y="590" name="top"/>
	<anchor x="107" y="0" name="bottom"/>
	<outline>
		<contour>
			<point x="30" y="590" type="line"/>
			<point x="30" y="0" type="line"/>
			<point x="80" y="0" type="line"/>
			<point x="80" y="515" type="line"/>
			<point x="70" y="590" type="line"/>
		</contour>
		<contour>
			<point x="136" y="525" type="curve" smooth="yes"/>
			<point x="136" y="0" type="line"/>
			<point x="186" y="0" type="line"/>
			<point x="186" y="530" type="line" smooth="yes"/>
			<point x="186" y="577"/>
			<point x="167" y="600"/>
			<point x="135" y="600" type="curve" smooth="yes"/>
			<point x="99" y="600"/>
			<point x="73" y="575"/>
			<point x="65" y="534" type="curve"/>
			<point x="65" y="515" type="line"/>
			<point x="80" y="515" type="line"/>
			<point x="80" y="540"/>
			<point x="91" y="555"/>
			<point x="110" y="555" type="curve" smooth="yes"/>
			<point x="126" y="555"/>
			<point x="136" y="544"/>
		</contour>
	</outline>
</glyph>
<glyph name="o" format="2">
	<advance width="210"/>
	<unicode hex="006F"/>
	<guideline x="102" y="450" angle="0"/>
	<guideline x="96" y="90" angle="0"/>
	<anchor x="104" y="295" name="center"/>
	<anchor x="147" y="10" name="ogonek"/>
	<anchor x="105" y="590" name="top"/>
	<anchor x="182" y="590" name="topright"/>
	<anchor x="104" y="0" name="bottom"/>
	<outline>
		<contour>
			<point x="26" y="66" type="line" smooth="yes"/>
			<point x="26" y="18"/>
			<point x="55" y="-10"/>
			<point x="103" y="-10" type="curve" smooth="yes"/>
			<point x="153" y="-10"/>
			<point x="182" y="17"/>
			<point x="182" y="63" type="curve" smooth="yes"/>
			<point x="182" y="527" type="line" smooth="yes"/>
			<point x="182" y="573"/>
			<point x="153" y="600"/>
			<point x="105" y="600" type="curve" smooth="yes"/>
			<point x="55" y="600"/>
			<point x="26" y="572"/>
			<point x="26" y="525" type="curve" smooth="yes"/>
		</contour>
		<contour>
			<point x="76" y="63" type="curve" smooth="yes"/>
			<point x="76" y="528" type="line" smooth="yes"/>
			<point x="76" y="545"/>
			<point x="86" y="555"/>
			<point x="104" y="555" type="curve" smooth="yes"/>
			<point x="122" y="555"/>
			<point x="132" y="544"/>
			<point x="132" y="525" type="curve" smooth="yes"/>
			<point x="132" y="66" type="line" smooth="yes"/>
			<point x="132" y="47"/>
			<point x="122" y="35"/>
			<point x="104" y="35" type="curve" smooth="yes"/>
			<point x="86" y="35"/>
			<point x="76" y="45"/>
		</contour>
	</outline>
</glyph>
<glyph name="q" format="2">
	<advance width="214"/>
	<unicode hex="0071"/>
	<outline>
		<contour>
			<point x="182" y="-180" type="line"/>
			<point x="182" y="590" type="line"/>
			<point x="142" y="590" type="line"/>
			<point x="132" y="515" type="line"/>
			<point x="132" y="-180" type="line"/>
		</contour>
		<contour>
			<point x="147" y="544" type="line"/>
			<point x="140" y="579"/>
			<point x="116" y="600"/>
			<point x="83" y="600" type="curve" smooth="yes"/>
			<point x="47" y="600"/>
			<point x="26" y="570"/>
			<point x="26" y="520" type="curve" smooth="yes"/>
			<point x="26" y="60" type="line" smooth="yes"/>
			<point x="26" y="13"/>
			<point x="45" y="-10"/>
			<point x="77" y="-10" type="curve" smooth="yes"/>
			<point x="113" y="-10"/>
			<point x="139" y="15"/>
			<point x="147" y="56" type="curve"/>
			<point x="147" y="75" type="line"/>
			<point x="132" y="75" type="line"/>
			<point x="132" y="50"/>
			<point x="121" y="35"/>
			<point x="102" y="35" type="curve" smooth="yes"/>
			<point x="86" y="35"/>
			<point x="76" y="46"/>
			<point x="76" y="65" type="curve" smooth="yes"/>
			<point x="76" y="510" type="line" smooth="yes"/>
			<point x="76" y="538"/>
			<point x="87" y="555"/>
			<point x="106" y="555" type="curve" smooth="yes"/>
			<point x="122" y="555"/>
			<point x="132" y="540"/>
			<point x="132" y="515" type="curve"/>
			<point x="147" y="515" type="line"/>
		</contour>
	</outline>
</glyph>
<glyph name="r" format="2">
	<advance width="172"/>
	<unicode hex="0072"/>
	<anchor x="87" y="590" name="top"/>
	<anchor x="105" y="0" name="bottom"/>
	<outline>
		<contour>
			<point x="30" y="590" type="line"/>
			<point x="30" y="0" type="line"/>
			<point x="80" y="0" type="line"/>
			<point x="80" y="515" type="line"/>
			<point x="70" y="590" type="line"/>
		</contour>
		<contour>
			<point x="147" y="535" type="line"/>
			<point x="147" y="598" type="line"/>
			<point x="144" y="599"/>
			<point x="140" y="600"/>
			<point x="135" y="600" type="curve" smooth="yes"/>
			<point x="104" y="600"/>
			<point x="78" y="561"/>
			<point x="65" y="494" type="curve"/>
			<point x="65" y="435" type="line"/>
			<point x="80" y="435" type="line"/>
			<point x="80" y="498"/>
			<point x="100" y="535"/>
			<point x="135" y="535" type="curve" smooth="yes"/>
		</contour>
	</outline>
</glyph>
<glyph name="s" format="2">
	<advance width="195"/>
	<unicode hex="0073"/>
	<anchor x="96" y="590" name="top"/>
	<anchor x="99" y="0" name="bottom"/>
	<outline>
		<contour>
			<point x="15" y="155" type="line"/>
			<point x="15" y="85" type="line" smooth="yes"/>
			<point x="15" y="25"/>
			<point x="45" y="-10"/>
			<point x="95" y="-10" type="curve" smooth="yes"/>
			<point x="147" y="-10"/>
			<point x="177" y="26"/>
			<point x="177" y="86" type="curve" smooth="yes"/>
			<point x="177" y="117"/>
			<point x="173" y="155"/>
			<point x="166" y="190" type="curve" smooth="yes"/>
			<point x="162" y="211"/>
			<point x="149" y="250"/>
			<point x="128" y="297" type="curve" smooth="yes"/>
			<point x="109" y="340" type="line" smooth="yes"/>
			<point x="97" y="366"/>
			<point x="86" y="399"/>
			<point x="79" y="427" type="curve" smooth="yes"/>
			<point x="73" y="450"/>
			<point x="70" y="483"/>
			<point x="70" y="518" type="curve" smooth="yes"/>
			<point x="70" y="522" type="line" smooth="yes"/>
			<point x="70" y="543"/>
			<point x="79" y="555"/>
			<point x="94" y="555" type="curve" smooth="yes"/>
			<point x="112" y="555"/>
			<point x="122" y="543"/>
			<point x="122" y="522" type="curve" smooth="yes"/>
			<point x="122" y="441" type="line"/>
			<point x="172" y="441" type="line"/>
			<point x="172" y="514" type="line" smooth="yes"/>
			<point x="172" y="568"/>
			<point x="144" y="600"/>
			<point x="96" y="600" type="curve" smooth="yes"/>
			<point x="48" y="600"/>
			<point x="20" y="570"/>
			<point x="20" y="520" type="curve" smooth="yes"/>
			<point x="20" y="485"/>
			<point x="24" y="447"/>
			<point x="31" y="417" type="curve" smooth="yes"/>
			<point x="38" y="386"/>
			<point x="51" y="349"/>
			<point x="64" y="319" type="curve" smooth="yes"/>
			<point x="83" y="276" type="line" smooth="yes"/>
			<point x="99" y="239"/>
			<point x="112" y="203"/>
			<point x="118" y="178" type="curve" smooth="yes"/>
			<point x="124" y="153"/>
			<point x="127" y="119"/>
			<point x="127" y="89" type="curve" smooth="yes"/>
			<point x="127" y="82" type="line" smooth="yes"/>
			<point x="127" y="52"/>
			<point x="115" y="35"/>
			<point x="96" y="35" type="curve" smooth="yes"/>
			<point x="77" y="35"/>
			<point x="65" y="51"/>
			<point x="65" y="77" type="curve" smooth="yes"/>
			<point x="65" y="155" type="line"/>
		</contour>
	</outline>
</glyph>
<glyph name="t" format="2">
	<advance width="200"/>
	<unicode hex="0074"/>
	<anchor x="100" y="295" name="center"/>
	<anchor x="100" y="590" name="top"/>
	<anchor x="155" y="820" name="topright"/>
	<anchor x="130" y="0" name="bottom"/>
	<outline>
		<contour>
			<point x="75" y="58" type="line" smooth="yes"/>
			<point x="75" y="18"/>
			<point x="98" y="-5"/>
			<point x="137" y="-5" type="curve" smooth="yes"/>
			<point x="150" y="-5"/>
			<point x="165" y="-3"/>
			<point x="175" y="0" type="curve"/>
			<point x="175" y="47" type="line"/>
			<point x="169" y="46"/>
			<point x="161" y="45"/>
			<point x="153" y="45" type="curve" smooth="yes"/>
			<point x="135" y="45"/>
			<point x="125" y="55"/>
			<point x="125" y="73" type="curve" smooth="yes"/>
			<point x="125" y="740" type="line"/>
			<point x="105" y="740" type="line"/>
			<point x="75" y="690" type="line"/>
		</contour>
		<contour>
			<point x="25" y="545" type="line"/>
			<point x="175" y="545" type="line"/>
			<point x="175" y="590" type="line"/>
			<point x="25" y="590" type="line"/>
		</contour>
	</outline>
</glyph>
<glyph name="u" format="2">
	<advance width="218"/>
	<unicode hex="0075"/>
	<anchor x="186" y="10" name="ogonek"/>
	<anchor x="111" y="590" name="top"/>
	<anchor x="198" y="590" name="topright"/>
	<anchor x="111" y="0" name="bottom"/>
	<outline>
		<contour>
			<point x="186" y="0" type="line"/>
			<point x="186" y="590" type="line"/>
			<point x="136" y="590" type="line"/>
			<point x="136" y="75" type="line"/>
			<point x="146" y="0" type="line"/>
		</contour>
		<contour>
			<point x="80" y="70" type="curve" smooth="yes"/>
			<point x="80" y="590" type="line"/>
			<point x="30" y="590" type="line"/>
			<point x="30" y="65" type="line" smooth="yes"/>
			<point x="30" y="18"/>
			<point x="49" y="-10"/>
			<point x="81" y="-10" type="curve" smooth="yes"/>
			<point x="117" y="-10"/>
			<point x="143" y="15"/>
			<point x="151" y="56" type="curve"/>
			<point x="151" y="80" type="line"/>
			<point x="136" y="80" type="line"/>
			<point x="136" y="55"/>
			<point x="125" y="40"/>
			<point x="106" y="40" type="curve" smooth="yes"/>
			<point x="90" y="40"/>
			<point x="80" y="51"/>
		</contour>
	</outline>
</glyph>
<glyph name="v" format="2">
	<advance width="220"/>
	<unicode hex="0076"/>
	<outline>
		<contour>
			<point x="15" y="590" type="line"/>
			<point x="79" y="0" type="line"/>
			<point x="138" y="0" type="line"/>
			<point x="202" y="590" type="line"/>
			<point x="151" y="590" type="line"/>
			<point x="118" y="172" type="line"/>
			<point x="112" y="50" type="line"/>
			<point x="108" y="50" type="line"/>
			<point x="102" y="172" type="line"/>
			<point x="70" y="590" type="line"/>
		</contour>
	</outline>
</glyph>
<glyph name="w" format="2">
	<advance width="345"/>
	<unicode hex="0077"/>
	<guideline x="174" y="221" angle="0"/>
	<anchor x="168" y="590" name="top"/>
	<anchor x="168" y="0" name="bottom"/>
	<outline>
		<contour>
			<point x="15" y="590" type="line"/>
			<point x="69" y="0" type="line"/>
			<point x="128" y="0" type="line"/>
			<point x="163" y="366" type="line"/>
			<point x="167" y="540" type="line"/>
			<point x="173" y="540" type="line"/>
			<point x="178" y="366" type="line"/>
			<point x="214" y="0" type="line"/>
			<point x="273" y="0" type="line"/>
			<point x="327" y="590" type="line"/>
			<point x="276" y="590" type="line"/>
			<point x="252" y="231" type="line"/>
			<point x="246" y="51" type="line"/>
			<point x="240" y="51" type="line"/>
			<point x="234" y="231" type="line"/>
			<point x="199" y="590" type="line"/>
			<point x="143" y="590" type="line"/>
			<point x="112" y="231" type="line"/>
			<point x="106" y="51" type="line"/>
			<point x="100" y="51" type="line"/>
			<point x="94" y="231" type="line"/>
			<point x="70" y="590" type="line"/>
		</contour>
	</outline>
</glyph>
<glyph name="x" format="2">
	<advance width="232"/>
	<unicode hex="0078"/>
	<outline>
		<contour>
			<point x="15" y="0" type="line"/>
			<point x="67" y="0" type="line"/>
			<point x="104" y="215" type="line"/>
			<point x="109" y="275" type="line"/>
			<point x="115" y="275" type="line"/>
			<point x="120" y="215" type="line"/>
			<point x="159" y="0" type="line"/>
			<point x="214" y="0" type="line"/>
			<point x="150" y="306" type="line"/>
			<point x="198" y="590" type="line"/>
			<point x="148" y="590" type="line"/>
			<point x="118" y="392" type="line"/>
			<point x="114" y="332" type="line"/>
			<point x="108" y="332" type="line"/>
			<point x="104" y="392" type="line"/>
			<point x="75" y="590" type="line"/>
			<point x="22" y="590" type="line"/>
			<point x="74" y="301" type="line"/>
		</contour>
	</outline>
</glyph>
<glyph name="y" format="2">
	<advance width="220"/>
	<unicode hex="0079"/>
	<guideline x="-74" y="231" angle="0"/>
	<anchor x="110" y="590" name="top"/>
	<anchor x="106" y="0" name="bottom"/>
	<outline>
		<contour>
			<point x="15" y="590" type="line"/>
			<point x="84" y="0" type="line"/>
			<point x="63" y="-180" type="line"/>
			<point x="118" y="-180" type="line"/>
			<point x="202" y="590" type="line"/>
			<point x="151" y="590" type="line"/>
			<point x="117" y="166" type="line"/>
			<point x="115" y="50" type="line"/>
			<point x="109" y="50" type="line"/>
			<point x="107" y="166" type="line"/>
			<point x="70" y="590" type="line"/>
		</contour>
	</outline>
</glyph>
<glyph name="z" format="2">
	<advance width="207"/>
	<unicode hex="007A"/>
	<guideline x="185" y="55" angle="0"/>
	<anchor x="104" y="590" name="top"/>
	<anchor x="104" y="0" name="bottom"/>
	<outline>
		<contour>
			<point x="22" y="0" type="line"/>
			<point x="185" y="0" type="line"/>
			<point x="185" y="45" type="line"/>
			<point x="67" y="45" type="line"/>
			<point x="67" y="49" type="line"/>
			<point x="77" y="55" type="line"/>
			<point x="185" y="554" type="line"/>
			<point x="185" y="590" type="line"/>
			<point x="36" y="590" type="line"/>
			<point x="36" y="545" type="line"/>
			<point x="139" y="545" type="line"/>
			<point x="139" y="541" type="line"/>
			<point x="129" y="535" type="line"/>
			<point x="22" y="36" type="line"/>
		</contour>
	</outline>
</glyph>
<glyph name="braceright" format="2">
	<advance width="231"/>
	<unicode hex="007D"/>
	<outline>
		<contour>
			<point x="183" y="295" type="line"/>
			<point x="183" y="345" type="line"/>
			<point x="163" y="345" type="line" smooth="yes"/>
			<point x="138" y="345"/>
			<point x="123" y="364"/>
			<point x="123" y="395" type="curve" smooth="yes"/>
			<point x="123" y="409"/>
			<point x="124" y="426"/>
			<point x="125" y="440" type="curve" smooth="yes"/>
			<point x="151" y="695" type="line" smooth="yes"/>
			<point x="152" y="707"/>
			<point x="153" y="721"/>
			<point x="153" y="735" type="curve" smooth="yes"/>
			<point x="153" y="795"/>
			<point x="118" y="830"/>
			<point x="58" y="830" type="curve"/>
			<point x="48" y="780" type="line"/>
			<point x="79" y="780"/>
			<point x="98" y="765"/>
			<point x="98" y="740" type="curve" smooth="yes"/>
			<point x="98" y="724"/>
			<point x="97" y="709"/>
			<point x="96" y="699" type="curve" smooth="yes"/>
			<point x="70" y="446" type="line" smooth="yes"/>
			<point x="69" y="432"/>
			<point x="68" y="414"/>
			<point x="68" y="400" type="curve" smooth="yes"/>
			<point x="68" y="356"/>
			<point x="92" y="327"/>
			<point x="132" y="322" type="curve"/>
			<point x="132" y="318" type="line"/>
			<point x="92" y="313"/>
			<point x="68" y="284"/>
			<point x="68" y="240" type="curve" smooth="yes"/>
			<point x="68" y="226"/>
			<point x="69" y="208"/>
			<point x="70" y="194" type="curve" smooth="yes"/>
			<point x="96" y="-59" type="line" smooth="yes"/>
			<point x="97" y="-69"/>
			<point x="98" y="-84"/>
			<point x="98" y="-100" type="curve" smooth="yes"/>
			<point x="98" y="-125"/>
			<point x="79" y="-140"/>
			<point x="48" y="-140" type="curve"/>
			<point x="58" y="-190" type="line"/>
			<point x="118" y="-190"/>
			<point x="153" y="-155"/>
			<point x="153" y="-95" type="curve" smooth="yes"/>
			<point x="153" y="-81"/>
			<point x="152" y="-67"/>
			<point x="151" y="-55" type="curve" smooth="yes"/>
			<point x="125" y="200" type="line" smooth="yes"/>
			<point x="124" y="214"/>
			<point x="123" y="231"/>
			<point x="123" y="245" type="curve" smooth="yes"/>
			<point x="123" y="276"/>
			<point x="138" y="295"/>
			<point x="163" y="295" type="curve" smooth="yes"/>
		</contour>
	</outline>
</glyph>
<glyph name="cent" format="2">
	<advance width="210"/>
	<unicode hex="00A2"/>
	<outline>
		<contour>
			<point x="78" y="-120" type="line"/>
			<point x="128" y="-120" type="line"/>
			<point x="128" y="16" type="line"/>
			<point x="78" y="16" type="line"/>
		</contour>
		<contour>
			<point x="78" y="574" type="line"/>
			<point x="128" y="574" type="line"/>
			<point x="128" y="710" type="line"/>
			<point x="78" y="710" type="line"/>
		</contour>
		<component base="c"/>
	</outline>
</glyph>
<glyph name="sterling" format="2">
	<advance width="310"/>
	<unicode hex="00A3"/>
	<outline>
		<contour>
			<point x="257" y="54" type="line"/>
			<point x="253" y="54" type="line"/>
			<point x="247" y="45"/>
			<point x="234" y="40"/>
			<point x="218" y="40" type="curve" smooth="yes"/>
			<point x="209" y="40"/>
			<point x="194" y="44"/>
			<point x="179" y="52" type="curve" smooth="yes"/>
			<point x="169" y="57" type="line" smooth="yes"/>
			<point x="153" y="65"/>
			<point x="136" y="70"/>
			<point x="123" y="70" type="curve" smooth="yes"/>
			<point x="110" y="70"/>
			<point x="97" y="66"/>
			<point x="88" y="60" type="curve"/>
			<point x="85" y="63" type="line"/>
			<point x="133" y="135"/>
			<point x="161" y="236"/>
			<point x="161" y="336" type="curve" smooth="yes"/>
			<point x="161" y="364"/>
			<point x="158" y="403"/>
			<point x="152" y="442" type="curve" smooth="yes"/>
			<point x="125" y="612" type="line" smooth="yes"/>
			<point x="121" y="638"/>
			<point x="118" y="665"/>
			<point x="118" y="684" type="curve" smooth="yes"/>
			<point x="118" y="719"/>
			<point x="134" y="740"/>
			<point x="161" y="740" type="curve" smooth="yes"/>
			<point x="188" y="740"/>
			<point x="204" y="718"/>
			<point x="204" y="680" type="curve" smooth="yes"/>
			<point x="204" y="549" type="line"/>
			<point x="259" y="549" type="line"/>
			<point x="259" y="675" type="line" smooth="yes"/>
			<point x="259" y="747"/>
			<point x="222" y="790"/>
			<point x="160" y="790" type="curve" smooth="yes"/>
			<point x="99" y="790"/>
			<point x="63" y="751"/>
			<point x="63" y="684" type="curve" smooth="yes"/>
			<point x="63" y="665"/>
			<point x="67" y="634"/>
			<point x="72" y="601" type="curve" smooth="yes"/>
			<point x="99" y="431" type="line" smooth="yes"/>
			<point x="104" y="400"/>
			<point x="106" y="365"/>
			<point x="106" y="336" type="curve" smooth="yes"/>
			<point x="106" y="250"/>
			<point x="79" y="139"/>
			<point x="32" y="38" type="curve"/>
			<point x="59" y="6" type="line"/>
			<point x="63" y="6" type="line"/>
			<point x="76" y="14"/>
			<point x="94" y="19"/>
			<point x="111" y="19" type="curve" smooth="yes"/>
			<point x="124" y="19"/>
			<point x="139" y="16"/>
			<point x="153" y="9" type="curve" smooth="yes"/>
			<point x="163" y="4" type="line" smooth="yes"/>
			<point x="180" y="-5"/>
			<point x="199" y="-10"/>
			<point x="216" y="-10" type="curve" smooth="yes"/>
			<point x="238" y="-10"/>
			<point x="260" y="-1"/>
			<point x="275" y="14" type="curve" smooth="yes"/>
			<point x="278" y="17" type="line"/>
		</contour>
		<contour>
			<point x="45" y="340" type="line"/>
			<point x="215" y="340" type="line"/>
			<point x="225" y="390" type="line"/>
			<point x="55" y="390" type="line"/>
		</contour>
	</outline>
</glyph>
<glyph name="currency" format="2">
	<advance width="388"/>
	<unicode hex="00A4"/>
	<outline>
		<contour>
			<point x="148" y="249" type="line"/>
			<point x="109" y="288" type="line"/>
			<point x="20" y="199" type="line"/>
			<point x="59" y="160" type="line"/>
		</contour>
		<contour>
			<point x="59" y="508" type="line"/>
			<point x="20" y="469" type="line"/>
			<point x="109" y="380" type="line"/>
			<point x="148" y="419" type="line"/>
		</contour>
		<contour>
			<point x="195" y="224" type="curve" smooth="yes"/>
			<point x="268" y="224"/>
			<point x="304" y="260"/>
			<point x="304" y="335" type="curve" smooth="yes"/>
			<point x="304" y="408"/>
			<point x="268" y="444"/>
			<point x="195" y="444" type="curve" smooth="yes"/>
			<point x="120" y="444"/>
			<point x="84" y="408"/>
			<point x="84" y="335" type="curve" smooth="yes"/>
			<point x="84" y="260"/>
			<point x="120" y="224"/>
		</contour>
		<contour>
			<point x="194" y="279" type="curve" smooth="yes"/>
			<point x="157" y="279"/>
			<point x="139" y="297"/>
			<point x="139" y="334" type="curve" smooth="yes"/>
			<point x="139" y="371"/>
			<point x="157" y="389"/>
			<point x="194" y="389" type="curve" smooth="yes"/>
			<point x="231" y="389"/>
			<point x="249" y="371"/>
			<point x="249" y="334" type="curve" smooth="yes"/>
			<point x="249" y="297"/>
			<point x="231" y="279"/>
		</contour>
		<contour>
			<point x="279" y="288" type="line"/>
			<point x="240" y="249" type="line"/>
			<point x="329" y="160" type="line"/>
			<point x="368" y="199" type="line"/>
		</contour>
		<contour>
			<point x="368" y="469" type="line"/>
			<point x="329" y="508" type="line"/>
			<point x="240" y="419" type="line"/>
			<point x="279" y="380" type="line"/>
		</contour>
	</outline>
</glyph>
<glyph name="yen" format="2">
	<advance width="247"/>
	<unicode hex="00A5"/>
	<outline>
		<contour>
			<point x="35" y="225" type="line"/>
			<point x="205" y="225" type="line"/>
			<point x="215" y="275" type="line"/>
			<point x="45" y="275" type="line"/>
		</contour>
		<contour>
			<point x="145" y="405" type="line"/>
			<point x="145" y="355" type="line"/>
			<point x="205" y="355" type="line"/>
			<point x="215" y="405" type="line"/>
		</contour>
		<contour>
			<point x="105" y="355" type="line"/>
			<point x="105" y="405" type="line"/>
			<point x="45" y="405" type="line"/>
			<point x="35" y="355" type="line"/>
		</contour>
		<component base="Y"/>
	</outline>
</glyph>
<glyph name="section" format="2">
	<advance width="266"/>
	<unicode hex="00A7"/>
	<outline>
		<contour>
			<point x="218" y="634" type="line"/>
			<point x="218" y="699" type="line" smooth="yes"/>
			<point x="218" y="756"/>
			<point x="185" y="790"/>
			<point x="129" y="790" type="curve" smooth="yes"/>
			<point x="74" y="790"/>
			<point x="42" y="755"/>
			<point x="42" y="695" type="curve" smooth="yes"/>
			<point x="42" y="676"/>
			<point x="47" y="647"/>
			<point x="53" y="617" type="curve" smooth="yes"/>
			<point x="55" y="607"/>
			<point x="60" y="590"/>
			<point x="68" y="571" type="curve" smooth="yes"/>
			<point x="88" y="522" type="line"/>
			<point x="70" y="515"/>
			<point x="56" y="503"/>
			<point x="46" y="487" type="curve" smooth="yes"/>
			<point x="37" y="473"/>
			<point x="32" y="455"/>
			<point x="32" y="435" type="curve" smooth="yes"/>
			<point x="32" y="413"/>
			<point x="36" y="387"/>
			<point x="44" y="357" type="curve" smooth="yes"/>
			<point x="52" y="325"/>
			<point x="65" y="290"/>
			<point x="81" y="255" type="curve" smooth="yes"/>
			<point x="117" y="175" type="line" smooth="yes"/>
			<point x="134" y="136"/>
			<point x="148" y="98"/>
			<point x="156" y="65" type="curve" smooth="yes"/>
			<point x="163" y="36"/>
			<point x="168" y="10"/>
			<point x="168" y="-10" type="curve" smooth="yes"/>
			<point x="168" y="-15" type="line" smooth="yes"/>
			<point x="168" y="-43"/>
			<point x="154" y="-60"/>
			<point x="130" y="-60" type="curve" smooth="yes"/>
			<point x="106" y="-60"/>
			<point x="92" y="-43"/>
			<point x="92" y="-15" type="curve" smooth="yes"/>
			<point x="92" y="70" type="line"/>
			<point x="37" y="70" type="line"/>
			<point x="37" y="-15" type="line" smooth="yes"/>
			<point x="37" y="-75"/>
			<point x="72" y="-110"/>
			<point x="132" y="-110" type="curve" smooth="yes"/>
			<point x="189" y="-110"/>
			<point x="223" y="-73"/>
			<point x="223" y="-10" type="curve" smooth="yes"/>
			<point x="223" y="14"/>
			<point x="219" y="43"/>
			<point x="211" y="75" type="curve" smooth="yes"/>
			<point x="207" y="91"/>
			<point x="199" y="115"/>
			<point x="189" y="142" type="curve" smooth="yes"/>
			<point x="182" y="161" type="line"/>
			<point x="198" y="169"/>
			<point x="211" y="181"/>
			<point x="220" y="196" type="curve" smooth="yes"/>
			<point x="229" y="211"/>
			<point x="233" y="230"/>
			<point x="233" y="250" type="curve" smooth="yes"/>
			<point x="233" y="273"/>
			<point x="229" y="301"/>
			<point x="222" y="331" type="curve" smooth="yes"/>
			<point x="213" y="368"/>
			<point x="198" y="410"/>
			<point x="179" y="452" type="curve" smooth="yes"/>
			<point x="143" y="532" type="line" smooth="yes"/>
			<point x="128" y="564"/>
			<point x="117" y="596"/>
			<point x="109" y="624" type="curve" smooth="yes"/>
			<point x="101" y="652"/>
			<point x="97" y="676"/>
			<point x="97" y="695" type="curve" smooth="yes"/>
			<point x="97" y="700" type="line" smooth="yes"/>
			<point x="97" y="725"/>
			<point x="109" y="740"/>
			<point x="130" y="740" type="curve" smooth="yes"/>
			<point x="151" y="740"/>
			<point x="163" y="725"/>
			<point x="163" y="700" type="curve" smooth="yes"/>
			<point x="163" y="634" type="line"/>
		</contour>
		<contour>
			<point x="87" y="435" type="curve" smooth="yes"/>
			<point x="87" y="440" type="line" smooth="yes"/>
			<point x="87" y="456"/>
			<point x="95" y="472"/>
			<point x="109" y="479" type="curve"/>
			<point x="114" y="464"/>
			<point x="120" y="450"/>
			<point x="127" y="435" type="curve" smooth="yes"/>
			<point x="147" y="390" type="line" smooth="yes"/>
			<point x="167" y="345"/>
			<point x="179" y="296"/>
			<point x="179" y="257" type="curve" smooth="yes"/>
			<point x="179" y="252" type="line" smooth="yes"/>
			<point x="179" y="235"/>
			<point x="170" y="215"/>
			<point x="159" y="206" type="curve"/>
			<point x="156" y="221"/>
			<point x="149" y="238"/>
			<point x="143" y="252" type="curve" smooth="yes"/>
			<point x="123" y="297" type="line" smooth="yes"/>
			<point x="100" y="350"/>
			<point x="87" y="401"/>
		</contour>
	</outline>
</glyph>
<glyph name="copyright" format="2">
	<advance width="866"/>
	<unicode hex="00A9"/>
	<outline>
		<contour>
			<point x="433" y="800" type="curve" smooth="yes"/>
			<point x="212" y="800"/>
			<point x="33" y="621"/>
			<point x="33" y="400" type="curve" smooth="yes"/>
			<point x="33" y="179"/>
			<point x="212" y="0"/>
			<point x="433" y="0" type="curve" smooth="yes"/>
			<point x="656" y="0"/>
			<point x="833" y="179"/>
			<point x="833" y="400" type="curve" smooth="yes"/>
			<point x="833" y="621"/>
			<point x="654" y="800"/>
		</contour>
		<contour>
			<point x="433" y="760" type="curve" smooth="yes"/>
			<point x="633" y="760"/>
			<point x="793" y="600"/>
			<point x="793" y="400" type="curve" smooth="yes"/>
			<point x="793" y="200"/>
			<point x="633" y="40"/>
			<point x="433" y="40" type="curve" smooth="yes"/>
			<point x="233" y="40"/>
			<point x="73" y="200"/>
			<point x="73" y="400" type="curve" smooth="yes"/>
			<point x="73" y="600"/>
			<point x="233" y="760"/>
		</contour>
		<contour>
			<point x="504" y="355" type="line"/>
			<point x="459" y="355" type="line"/>
			<point x="459" y="231" type="line" smooth="yes"/>
			<point x="459" y="212"/>
			<point x="450" y="201"/>
			<point x="434" y="201" type="curve" smooth="yes"/>
			<point x="418" y="201"/>
			<point x="409" y="211"/>
			<point x="409" y="227" type="curve" smooth="yes"/>
			<point x="409" y="570" type="line" smooth="yes"/>
			<point x="409" y="589"/>
			<point x="418" y="600"/>
			<point x="434" y="600" type="curve" smooth="yes"/>
			<point x="450" y="600"/>
			<point x="459" y="590"/>
			<point x="459" y="573" type="curve" smooth="yes"/>
			<point x="459" y="448" type="line"/>
			<point x="504" y="448" type="line"/>
			<point x="504" y="573" type="line" smooth="yes"/>
			<point x="504" y="615"/>
			<point x="478" y="640"/>
			<point x="435" y="640" type="curve" smooth="yes"/>
			<point x="390" y="640"/>
			<point x="364" y="615"/>
			<point x="364" y="573" type="curve" smooth="yes"/>
			<point x="364" y="228" type="line" smooth="yes"/>
			<point x="364" y="185"/>
			<point x="390" y="160"/>
			<point x="433" y="160" type="curve" smooth="yes"/>
			<point x="478" y="160"/>
			<point x="504" y="185"/>
			<point x="504" y="227" type="curve" smooth="yes"/>
		</contour>
	</outline>
</glyph>
<glyph name="ordfeminine" format="2">
	<advance width="158"/>
	<unicode hex="00AA"/>
	<guideline x="38" y="439" angle="0"/>
	<outline>
		<contour>
			<point x="32" y="695" type="line"/>
			<point x="67" y="695" type="line"/>
			<point x="67" y="763" type="line" smooth="yes"/>
			<point x="67" y="775"/>
			<point x="74" y="782"/>
			<point x="85" y="782" type="curve" smooth="yes"/>
			<point x="96" y="782"/>
			<point x="102" y="775"/>
			<point x="102" y="763" type="curve" smooth="yes"/>
			<point x="102" y="496" type="line" smooth="yes"/>
			<point x="102" y="475"/>
			<point x="106" y="457"/>
			<point x="112" y="445" type="curve"/>
			<point x="147" y="445" type="line"/>
			<point x="148" y="448" type="line"/>
			<point x="141" y="461"/>
			<point x="137" y="480"/>
			<point x="137" y="499" type="curve" smooth="yes"/>
			<point x="137" y="759" type="line" smooth="yes"/>
			<point x="137" y="792"/>
			<point x="118" y="811"/>
			<point x="85" y="811" type="curve" smooth="yes"/>
			<point x="52" y="811"/>
			<point x="32" y="792"/>
			<point x="32" y="759" type="curve" smooth="yes"/>
		</contour>
		<contour>
			<point x="114" y="502" type="line"/>
			<point x="102" y="502" type="line"/>
			<point x="102" y="483"/>
			<point x="94" y="471"/>
			<point x="80" y="471" type="curve" smooth="yes"/>
			<point x="68" y="471"/>
			<point x="61" y="480"/>
			<point x="61" y="496" type="curve" smooth="yes"/>
			<point x="61" y="573" type="line" smooth="yes"/>
			<point x="61" y="593"/>
			<point x="71" y="610"/>
			<point x="87" y="618" type="curve" smooth="yes"/>
			<point x="117" y="633" type="line"/>
			<point x="117" y="664" type="line"/>
			<point x="73" y="640" type="line" smooth="yes"/>
			<point x="43" y="624"/>
			<point x="26" y="597"/>
			<point x="26" y="567" type="curve" smooth="yes"/>
			<point x="26" y="488" type="line" smooth="yes"/>
			<point x="26" y="457"/>
			<point x="41" y="439"/>
			<point x="66" y="439" type="curve" smooth="yes"/>
			<point x="91" y="439"/>
			<point x="109" y="459"/>
			<point x="114" y="492" type="curve"/>
		</contour>
		<contour>
			<point x="32" y="391" type="line"/>
			<point x="32" y="355" type="line"/>
			<point x="144" y="355" type="line"/>
			<point x="144" y="391" type="line"/>
		</contour>
	</outline>
</glyph>
<glyph name="registered" format="2">
	<advance width="504"/>
	<unicode hex="00AE"/>
	<outline>
		<contour>
			<point x="252" y="349" type="curve" smooth="yes"/>
			<point x="379" y="349"/>
			<point x="482" y="452"/>
			<point x="482" y="579" type="curve" smooth="yes"/>
			<point x="482" y="706"/>
			<point x="379" y="809"/>
			<point x="252" y="809" type="curve" smooth="yes"/>
			<point x="125" y="809"/>
			<point x="22" y="706"/>
			<point x="22" y="579" type="curve" smooth="yes"/>
			<point x="22" y="452"/>
			<point x="125" y="349"/>
		</contour>
		<contour>
			<point x="252" y="374" type="curve" smooth="yes"/>
			<point x="139" y="374"/>
			<point x="47" y="466"/>
			<point x="47" y="579" type="curve" smooth="yes"/>
			<point x="47" y="692"/>
			<point x="139" y="784"/>
			<point x="252" y="784" type="curve" smooth="yes"/>
			<point x="365" y="784"/>
			<point x="457" y="692"/>
			<point x="457" y="579" type="curve" smooth="yes"/>
			<point x="457" y="466"/>
			<point x="365" y="374"/>
		</contour>
		<contour>
			<point x="214" y="437" type="line"/>
			<point x="240" y="437" type="line"/>
			<point x="240" y="577" type="line"/>
			<point x="257" y="577" type="line"/>
			<point x="284" y="437" type="line"/>
			<point x="310" y="437" type="line"/>
			<point x="282" y="572" type="line" smooth="yes"/>
			<point x="281" y="578"/>
			<point x="277" y="583"/>
			<point x="271" y="585" type="curve"/>
			<point x="271" y="589" type="line"/>
			<point x="285" y="592"/>
			<point x="294" y="603"/>
			<point x="294" y="619" type="curve" smooth="yes"/>
			<point x="294" y="685" type="line" smooth="yes"/>
			<point x="294" y="712"/>
			<point x="279" y="727"/>
			<point x="254" y="727" type="curve" smooth="yes"/>
			<point x="214" y="727" type="line"/>
		</contour>
		<contour>
			<point x="240" y="601" type="line"/>
			<point x="240" y="704" type="line"/>
			<point x="253" y="704" type="line" smooth="yes"/>
			<point x="263" y="704"/>
			<point x="269" y="698"/>
			<point x="269" y="687" type="curve" smooth="yes"/>
			<point x="269" y="617" type="line" smooth="yes"/>
			<point x="269" y="607"/>
			<point x="263" y="601"/>
			<point x="253" y="601" type="curve" smooth="yes"/>
		</contour>
	</outline>
</glyph>
<glyph name="degree" format="2">
	<advance width="252"/>
	<unicode hex="00B0"/>
	<outline>
		<contour>
			<point x="126" y="502" type="curve" smooth="yes"/>
			<point x="179" y="502"/>
			<point x="216" y="539"/>
			<point x="216" y="592" type="curve" smooth="yes"/>
			<point x="216" y="645"/>
			<point x="179" y="682"/>
			<point x="126" y="682" type="curve" smooth="yes"/>
			<point x="73" y="682"/>
			<point x="36" y="645"/>
			<point x="36" y="592" type="curve" smooth="yes"/>
			<point x="36" y="539"/>
			<point x="73" y="502"/>
		</contour>
		<contour>
			<point x="126" y="547" type="curve" smooth="yes"/>
			<point x="100" y="547"/>
			<point x="81" y="566"/>
			<point x="81" y="592" type="curve" smooth="yes"/>
			<point x="81" y="618"/>
			<point x="100" y="637"/>
			<point x="126" y="637" type="curve" smooth="yes"/>
			<point x="152" y="637"/>
			<point x="171" y="618"/>
			<point x="171" y="592" type="curve" smooth="yes"/>
			<point x="171" y="566"/>
			<point x="152" y="547"/>
		</contour>
	</outline>
</glyph>
<glyph name="paragraph" format="2">
	<advance width="355"/>
	<unicode hex="00B6"/>
	<outline>
		<contour>
			<point x="212" y="0" type="line"/>
			<point x="212" y="800" type="line"/>
			<point x="170" y="800" type="line" smooth="yes"/>
			<point x="90" y="800"/>
			<point x="33" y="744"/>
			<point x="33" y="664" type="curve" smooth="yes"/>
			<point x="33" y="435" type="line" smooth="yes"/>
			<point x="33" y="356"/>
			<point x="91" y="300"/>
			<point x="172" y="300" type="curve"/>
			<point x="172" y="0" type="line"/>
		</contour>
		<contour>
			<point x="272" y="800" type="line"/>
			<point x="272" y="0" type="line"/>
			<point x="312" y="0" type="line"/>
			<point x="312" y="800" type="line"/>
		</contour>
	</outline>
</glyph>
<glyph name="ordmasculine" format="2">
	<advance width="158"/>
	<unicode hex="00BA"/>
	<outline>
		<contour>
			<point x="26" y="485" type="line" smooth="yes"/>
			<point x="26" y="456"/>
			<point x="49" y="439"/>
			<point x="77" y="439" type="curve" smooth="yes"/>
			<point x="107" y="439"/>
			<point x="130" y="456"/>
			<point x="130" y="483" type="curve" smooth="yes"/>
			<point x="130" y="761" type="line" smooth="yes"/>
			<point x="130" y="789"/>
			<point x="107" y="805"/>
			<point x="79" y="805" type="curve" smooth="yes"/>
			<point x="49" y="805"/>
			<point x="26" y="788"/>
			<point x="26" y="760" type="curve" smooth="yes"/>
		</contour>
		<contour>
			<point x="61" y="485" type="curve" smooth="yes"/>
			<point x="61" y="760" type="line" smooth="yes"/>
			<point x="61" y="770"/>
			<point x="67" y="776"/>
			<point x="78" y="776" type="curve" smooth="yes"/>
			<point x="89" y="776"/>
			<point x="95" y="769"/>
			<point x="95" y="758" type="curve" smooth="yes"/>
			<point x="95" y="487" type="line" smooth="yes"/>
			<point x="95" y="476"/>
			<point x="89" y="468"/>
			<point x="78" y="468" type="curve" smooth="yes"/>
			<point x="67" y="468"/>
			<point x="61" y="474"/>
		</contour>
		<contour>
			<point x="28" y="391" type="line"/>
			<point x="28" y="355" type="line"/>
			<point x="128" y="355" type="line"/>
			<point x="128" y="391" type="line"/>
		</contour>
	</outline>
</glyph>
<glyph name="AE" format="2">
	<advance width="340"/>
	<unicode hex="00C6"/>
	<outline>
		<contour>
			<point x="23" y="0" type="line"/>
			<point x="78" y="0" type="line"/>
			<point x="149" y="750" type="line"/>
			<point x="163" y="750" type="line"/>
			<point x="163" y="0" type="line"/>
			<point x="318" y="0" type="line"/>
			<point x="318" y="50" type="line"/>
			<point x="218" y="50" type="line"/>
			<point x="218" y="420" type="line"/>
			<point x="293" y="420" type="line"/>
			<point x="293" y="470" type="line"/>
			<point x="218" y="470" type="line"/>
			<point x="218" y="750" type="line"/>
			<point x="308" y="750" type="line"/>
			<point x="308" y="800" type="line"/>
			<point x="109" y="800" type="line"/>
		</contour>
		<contour>
			<point x="63" y="240" type="line"/>
			<point x="63" y="190" type="line"/>
			<point x="188" y="190" type="line"/>
			<point x="188" y="240" type="line"/>
		</contour>
	</outline>
</glyph>
<glyph name="Oslash" format="2">
	<advance width="254"/>
	<unicode hex="00D8"/>
	<outline>
		<contour>
			<point x="250" y="430" type="line"/>
			<point x="250" y="480" type="line"/>
			<point x="8" y="362" type="line"/>
			<point x="8" y="312" type="line"/>
		</contour>
		<component base="O" xOffset="6"/>
	</outline>
</glyph>
<glyph name="Thorn" format="2">
	<advance width="248"/>
	<unicode hex="00DE"/>
	<outline>
		<contour>
			<point x="43" y="0" type="line"/>
			<point x="98" y="0" type="line"/>
			<point x="98" y="190" type="line"/>
			<point x="131" y="190" type="line" smooth="yes"/>
			<point x="184" y="190"/>
			<point x="215" y="222"/>
			<point x="215" y="276" type="curve" smooth="yes"/>
			<point x="215" y="534" type="line" smooth="yes"/>
			<point x="215" y="588"/>
			<point x="185" y="620"/>
			<point x="133" y="620" type="curve" smooth="yes"/>
			<point x="98" y="620" type="line"/>
			<point x="98" y="820" type="line"/>
			<point x="43" y="820" type="line"/>
		</contour>
		<contour>
			<point x="98" y="240" type="line"/>
			<point x="98" y="570" type="line"/>
			<point x="132" y="570" type="line" smooth="yes"/>
			<point x="150" y="570"/>
			<point x="160" y="558"/>
			<point x="160" y="539" type="curve" smooth="yes"/>
			<point x="160" y="271" type="line" smooth="yes"/>
			<point x="160" y="252"/>
			<point x="150" y="240"/>
			<point x="132" y="240" type="curve" smooth="yes"/>
		</contour>
	</outline>
</glyph>
<glyph name="germandbls" format="2">
	<advance width="224"/>
	<unicode hex="00DF"/>
	<outline>
		<contour>
			<point x="134" y="-5" type="curve" smooth="yes"/>
			<point x="179" y="-5"/>
			<point x="206" y="27"/>
			<point x="206" y="80" type="curve" smooth="yes"/>
			<point x="206" y="409" type="line" smooth="yes"/>
			<point x="206" y="444"/>
			<point x="189" y="466"/>
			<point x="161" y="468" type="curve"/>
			<point x="161" y="472" type="line"/>
			<point x="189" y="474"/>
			<point x="206" y="494"/>
			<point x="206" y="525" type="curve" smooth="yes"/>
			<point x="206" y="750" type="line" smooth="yes"/>
			<point x="206" y="800"/>
			<point x="174" y="830"/>
			<point x="119" y="830" type="curve" smooth="yes"/>
			<point x="63" y="830"/>
			<point x="30" y="797"/>
			<point x="30" y="740" type="curve" smooth="yes"/>
			<point x="30" y="-60" type="line"/>
			<point x="80" y="-60" type="line"/>
			<point x="80" y="745" type="line" smooth="yes"/>
			<point x="80" y="770"/>
			<point x="94" y="785"/>
			<point x="118" y="785" type="curve" smooth="yes"/>
			<point x="142" y="785"/>
			<point x="156" y="770"/>
			<point x="156" y="745" type="curve" smooth="yes"/>
			<point x="156" y="520" type="line" smooth="yes"/>
			<point x="156" y="501"/>
			<point x="147" y="490"/>
			<point x="133" y="490" type="curve" smooth="yes"/>
			<point x="110" y="490" type="line"/>
			<point x="110" y="445" type="line"/>
			<point x="127" y="445" type="line" smooth="yes"/>
			<point x="145" y="445"/>
			<point x="156" y="436"/>
			<point x="156" y="420" type="curve" smooth="yes"/>
			<point x="156" y="75" type="line" smooth="yes"/>
			<point x="156" y="56"/>
			<point x="146" y="45"/>
			<point x="128" y="45" type="curve" smooth="yes"/>
			<point x="120" y="45"/>
			<point x="112" y="46"/>
			<point x="106" y="47" type="curve"/>
			<point x="106" y="0" type="line"/>
			<point x="113" y="-3"/>
			<point x="124" y="-5"/>
		</contour>
	</outline>
</glyph>
<glyph name="ae" format="2">
	<advance width="326"/>
	<unicode hex="00E6"/>
	<outline>
		<contour>
			<point x="26" y="70" type="line" smooth="yes"/>
			<point x="26" y="20"/>
			<point x="51" y="-10"/>
			<point x="94" y="-10" type="curve" smooth="yes"/>
			<point x="135" y="-10"/>
			<point x="164" y="22"/>
			<point x="172" y="76" type="curve"/>
			<point x="172" y="111" type="line"/>
			<point x="142" y="111" type="line"/>
			<point x="142" y="90" type="line" smooth="yes"/>
			<point x="142" y="59"/>
			<point x="129" y="40"/>
			<point x="107" y="40" type="curve" smooth="yes"/>
			<point x="88" y="40"/>
			<point x="76" y="55"/>
			<point x="76" y="80" type="curve" smooth="yes"/>
			<point x="76" y="210" type="line" smooth="yes"/>
			<point x="76" y="244"/>
			<point x="92" y="272"/>
			<point x="118" y="286" type="curve" smooth="yes"/>
			<point x="167" y="312" type="line"/>
			<point x="167" y="359" type="line"/>
			<point x="95" y="319" type="line" smooth="yes"/>
			<point x="48" y="293"/>
			<point x="26" y="249"/>
			<point x="26" y="200" type="curve" smooth="yes"/>
		</contour>
		<contour>
			<point x="36" y="410" type="line"/>
			<point x="86" y="410" type="line"/>
			<point x="86" y="525" type="line" smooth="yes"/>
			<point x="86" y="544"/>
			<point x="96" y="555"/>
			<point x="114" y="555" type="curve" smooth="yes"/>
			<point x="132" y="555"/>
			<point x="142" y="544"/>
			<point x="142" y="525" type="curve" smooth="yes"/>
			<point x="142" y="71" type="line" smooth="yes"/>
			<point x="142" y="20"/>
			<point x="171" y="-10"/>
			<point x="219" y="-10" type="curve" smooth="yes"/>
			<point x="269" y="-10"/>
			<point x="298" y="19"/>
			<point x="298" y="68" type="curve" smooth="yes"/>
			<point x="298" y="195" type="line"/>
			<point x="248" y="195" type="line"/>
			<point x="248" y="71" type="line" smooth="yes"/>
			<point x="248" y="52"/>
			<point x="238" y="40"/>
			<point x="220" y="40" type="curve" smooth="yes"/>
			<point x="202" y="40"/>
			<point x="192" y="50"/>
			<point x="192" y="68" type="curve" smooth="yes"/>
			<point x="192" y="523" type="line" smooth="yes"/>
			<point x="192" y="540"/>
			<point x="202" y="550"/>
			<point x="220" y="550" type="curve" smooth="yes"/>
			<point x="238" y="550"/>
			<point x="248" y="539"/>
			<point x="248" y="520" type="curve" smooth="yes"/>
			<point x="248" y="329" type="line"/>
			<point x="273" y="354" type="line"/>
			<point x="182" y="354" type="line"/>
			<point x="182" y="309" type="line"/>
			<point x="298" y="309" type="line"/>
			<point x="298" y="522" type="line" smooth="yes"/>
			<point x="298" y="571"/>
			<point x="271" y="600"/>
			<point x="225" y="600" type="curve" smooth="yes"/>
			<point x="199" y="600"/>
			<point x="178" y="587"/>
			<point x="170" y="566" type="curve"/>
			<point x="164" y="566" type="line"/>
			<point x="157" y="587"/>
			<point x="137" y="600"/>
			<point x="111" y="600" type="curve" smooth="yes"/>
			<point x="64" y="600"/>
			<point x="36" y="568"/>
			<point x="36" y="515" type="curve" smooth="yes"/>
		</contour>
	</outline>
</glyph>
<glyph name="eth" format="2">
	<advance width="231"/>
	<unicode hex="00F0"/>
	<outline>
		<contour>
			<point x="26" y="520" type="curve"/>
			<point x="26" y="66" type="line"/>
			<point x="26" y="18"/>
			<point x="55" y="-10"/>
			<point x="103" y="-10" type="curve" smooth="yes"/>
			<point x="153" y="-10"/>
			<point x="182" y="17"/>
			<point x="182" y="63" type="curve" smooth="yes"/>
			<point x="182" y="530" type="line" smooth="yes"/>
			<point x="182" y="578"/>
			<point x="174" y="630"/>
			<point x="161" y="670" type="curve" smooth="yes"/>
			<point x="113" y="820" type="line"/>
			<point x="59" y="820" type="line"/>
			<point x="112" y="658" type="line" smooth="yes"/>
			<point x="125" y="618"/>
			<point x="132" y="571"/>
			<point x="132" y="530" type="curve" smooth="yes"/>
			<point x="132" y="66" type="line" smooth="yes"/>
			<point x="132" y="47"/>
			<point x="122" y="35"/>
			<point x="104" y="35" type="curve" smooth="yes"/>
			<point x="86" y="35"/>
			<point x="76" y="45"/>
			<point x="76" y="63" type="curve"/>
			<point x="76" y="510" type="line"/>
			<point x="76" y="538"/>
			<point x="87" y="555"/>
			<point x="106" y="555" type="curve" smooth="yes"/>
			<point x="122" y="555"/>
			<point x="132" y="540"/>
			<point x="132" y="515" type="curve"/>
			<point x="147" y="515" type="line"/>
			<point x="147" y="544" type="line"/>
			<point x="140" y="579"/>
			<point x="116" y="600"/>
			<point x="83" y="600" type="curve" smooth="yes"/>
			<point x="47" y="600"/>
			<point x="26" y="570"/>
		</contour>
		<contour>
			<point x="26" y="686" type="line"/>
			<point x="203" y="714" type="line"/>
			<point x="203" y="760" type="line"/>
			<point x="26" y="732" type="line"/>
		</contour>
	</outline>
</glyph>
<glyph name="oslash" format="2">
	<advance width="210"/>
	<unicode hex="00F8"/>
	<outline>
		<contour>
			<point x="-24" y="287" type="line"/>
			<point x="-24" y="237" type="line"/>
			<point x="232" y="358" type="line"/>
			<point x="232" y="408" type="line"/>
		</contour>
		<component base="o"/>
	</outline>
</glyph>
<glyph name="thorn" format="2">
	<advance width="214"/>
	<unicode hex="00FE"/>
	<outline>
		<contour>
			<point x="30" y="-180" type="line"/>
			<point x="80" y="-180" type="line"/>
			<point x="80" y="820" type="line"/>
			<point x="30" y="820" type="line"/>
		</contour>
		<contour>
			<point x="65" y="46" type="line"/>
			<point x="72" y="11"/>
			<point x="96" y="-10"/>
			<point x="129" y="-10" type="curve" smooth="yes"/>
			<point x="165" y="-10"/>
			<point x="186" y="20"/>
			<point x="186" y="70" type="curve" smooth="yes"/>
			<point x="186" y="530" type="line" smooth="yes"/>
			<point x="186" y="577"/>
			<point x="167" y="600"/>
			<point x="135" y="600" type="curve" smooth="yes"/>
			<point x="99" y="600"/>
			<point x="73" y="575"/>
			<point x="65" y="534" type="curve"/>
			<point x="65" y="515" type="line"/>
			<point x="80" y="515" type="line"/>
			<point x="80" y="540"/>
			<point x="91" y="555"/>
			<point x="110" y="555" type="curve" smooth="yes"/>
			<point x="126" y="555"/>
			<point x="136" y="544"/>
			<point x="136" y="525" type="curve" smooth="yes"/>
			<point x="136" y="80" type="line" smooth="yes"/>
			<point x="136" y="52"/>
			<point x="125" y="35"/>
			<point x="106" y="35" type="curve" smooth="yes"/>
			<point x="90" y="35"/>
			<point x="80" y="50"/>
			<point x="80" y="75" type="curve"/>
			<point x="65" y="75" type="line"/>
		</contour>
	</outline>
</glyph>
<glyph name="dcroat" format="2">
	<advance width="211"/>
	<unicode hex="0111"/>
	<outline>
		<contour>
			<point x="77" y="683" type="line"/>
			<point x="227" y="683" type="line"/>
			<point x="237" y="728" type="line"/>
			<point x="87" y="728" type="line"/>
		</contour>
		<component base="d"/>
	</outline>
</glyph>
<glyph name="hbar" format="2">
	<advance width="218"/>
	<unicode hex="0127"/>
	<outline>
		<contour>
			<point x="-21" y="683" type="line"/>
			<point x="129" y="683" type="line"/>
			<point x="139" y="728" type="line"/>
			<point x="-11" y="728" type="line"/>
		</contour>
		<component base="h" xOffset="4"/>
	</outline>
</glyph>
<glyph name="idotless" format="2">
	<advance width="112"/>
	<unicode hex="0131"/>
	<anchor x="130" y="10" name="ogonek"/>
	<anchor x="55" y="0" name="bottom"/>
	<anchor x="55" y="590" name="top"/>
	<outline>
		<contour>
			<point x="30" y="590" type="line"/>
			<point x="30" y="0" type="line"/>
			<point x="80" y="0" type="line"/>
			<point x="80" y="590" type="line"/>
		</contour>
	</outline>
</glyph>
<glyph name="Lslash" format="2">
	<advance width="244"/>
	<unicode hex="0141"/>
	<outline>
		<contour>
			<point x="5" y="416" type="line"/>
			<point x="185" y="445" type="line"/>
			<point x="185" y="491" type="line"/>
			<point x="5" y="462" type="line"/>
		</contour>
		<component base="L" xOffset="25"/>
	</outline>
</glyph>
<glyph name="lslash" format="2">
	<advance width="151"/>
	<unicode hex="0142"/>
	<outline>
		<contour>
			<point x="-4" y="308" type="line"/>
			<point x="146" y="332" type="line"/>
			<point x="146" y="378" type="line"/>
			<point x="-4" y="354" type="line"/>
		</contour>
		<component base="l" xOffset="16"/>
	</outline>
</glyph>
<glyph name="Eng" format="2">
	<advance width="293"/>
	<unicode hex="014A"/>
	<outline>
		<contour>
			<point x="250" y="20" type="line"/>
			<point x="195" y="20" type="line"/>
			<point x="195" y="-102" type="line" smooth="yes"/>
			<point x="195" y="-120"/>
			<point x="185" y="-130"/>
			<point x="167" y="-130" type="curve" smooth="yes"/>
			<point x="159" y="-130"/>
			<point x="151" y="-129"/>
			<point x="145" y="-128" type="curve"/>
			<point x="145" y="-180" type="line"/>
			<point x="155" y="-183"/>
			<point x="170" y="-185"/>
			<point x="183" y="-185" type="curve" smooth="yes"/>
			<point x="225" y="-185"/>
			<point x="250" y="-162"/>
			<point x="250" y="-122" type="curve" smooth="yes"/>
		</contour>
		<component base="N"/>
	</outline>
</glyph>
<glyph name="eng" format="2">
	<advance width="213"/>
	<unicode hex="014B"/>
	<outline>
		<contour>
			<point x="186" y="100" type="line"/>
			<point x="136" y="100" type="line"/>
			<point x="136" y="-107" type="line" smooth="yes"/>
			<point x="136" y="-125"/>
			<point x="126" y="-135"/>
			<point x="108" y="-135" type="curve" smooth="yes"/>
			<point x="100" y="-135"/>
			<point x="92" y="-134"/>
			<point x="86" y="-133" type="curve"/>
			<point x="86" y="-180" type="line"/>
			<point x="96" y="-183"/>
			<point x="111" y="-185"/>
			<point x="124" y="-185" type="curve" smooth="yes"/>
			<point x="163" y="-185"/>
			<point x="186" y="-162"/>
			<point x="186" y="-122" type="curve" smooth="yes"/>
		</contour>
		<component base="n"/>
	</outline>
</glyph>
<glyph name="OE" format="2">
	<advance width="371"/>
	<unicode hex="0152"/>
	<outline>
		<contour>
			<point x="33" y="76" type="line" smooth="yes"/>
			<point x="33" y="22"/>
			<point x="62" y="-10"/>
			<point x="110" y="-10" type="curve" smooth="yes"/>
			<point x="138" y="-10"/>
			<point x="159" y="2"/>
			<point x="166" y="22" type="curve"/>
			<point x="170" y="22" type="line"/>
			<point x="170" y="0" type="line"/>
			<point x="349" y="0" type="line"/>
			<point x="349" y="50" type="line"/>
			<point x="209" y="50" type="line"/>
			<point x="209" y="420" type="line"/>
			<point x="299" y="420" type="line"/>
			<point x="299" y="470" type="line"/>
			<point x="209" y="470" type="line"/>
			<point x="209" y="750" type="line"/>
			<point x="329" y="750" type="line"/>
			<point x="329" y="800" type="line"/>
			<point x="170" y="800" type="line"/>
			<point x="170" y="778" type="line"/>
			<point x="166" y="778" type="line"/>
			<point x="159" y="798"/>
			<point x="139" y="810"/>
			<point x="112" y="810" type="curve" smooth="yes"/>
			<point x="62" y="810"/>
			<point x="33" y="778"/>
			<point x="33" y="725" type="curve" smooth="yes"/>
		</contour>
		<contour>
			<point x="88" y="75" type="curve" smooth="yes"/>
			<point x="88" y="720" type="line" smooth="yes"/>
			<point x="88" y="745"/>
			<point x="100" y="760"/>
			<point x="121" y="760" type="curve" smooth="yes"/>
			<point x="142" y="760"/>
			<point x="154" y="747"/>
			<point x="154" y="725" type="curve" smooth="yes"/>
			<point x="154" y="80" type="line" smooth="yes"/>
			<point x="154" y="55"/>
			<point x="142" y="40"/>
			<point x="121" y="40" type="curve" smooth="yes"/>
			<point x="100" y="40"/>
			<point x="88" y="53"/>
		</contour>
	</outline>
</glyph>
<glyph name="oe" format="2">
	<advance width="316"/>
	<unicode hex="0153"/>
	<outline>
		<contour>
			<point x="26" y="66" type="line" smooth="yes"/>
			<point x="26" y="18"/>
			<point x="53" y="-10"/>
			<point x="99" y="-10" type="curve" smooth="yes"/>
			<point x="128" y="-10"/>
			<point x="148" y="3"/>
			<point x="154" y="26" type="curve"/>
			<point x="160" y="26" type="line"/>
			<point x="166" y="3"/>
			<point x="186" y="-10"/>
			<point x="213" y="-10" type="curve" smooth="yes"/>
			<point x="260" y="-10"/>
			<point x="288" y="19"/>
			<point x="288" y="68" type="curve" smooth="yes"/>
			<point x="288" y="195" type="line"/>
			<point x="238" y="195" type="line"/>
			<point x="238" y="71" type="line" smooth="yes"/>
			<point x="238" y="52"/>
			<point x="228" y="40"/>
			<point x="210" y="40" type="curve" smooth="yes"/>
			<point x="192" y="40"/>
			<point x="182" y="50"/>
			<point x="182" y="68" type="curve" smooth="yes"/>
			<point x="182" y="523" type="line" smooth="yes"/>
			<point x="182" y="540"/>
			<point x="192" y="550"/>
			<point x="210" y="550" type="curve" smooth="yes"/>
			<point x="228" y="550"/>
			<point x="238" y="539"/>
			<point x="238" y="520" type="curve" smooth="yes"/>
			<point x="238" y="329" type="line"/>
			<point x="263" y="354" type="line"/>
			<point x="172" y="354" type="line"/>
			<point x="172" y="309" type="line"/>
			<point x="288" y="309" type="line"/>
			<point x="288" y="522" type="line" smooth="yes"/>
			<point x="288" y="571"/>
			<point x="261" y="600"/>
			<point x="215" y="600" type="curve" smooth="yes"/>
			<point x="185" y="600"/>
			<point x="165" y="587"/>
			<point x="161" y="564" type="curve"/>
			<point x="155" y="564" type="line"/>
			<point x="151" y="587"/>
			<point x="131" y="600"/>
			<point x="101" y="600" type="curve" smooth="yes"/>
			<point x="54" y="600"/>
			<point x="26" y="572"/>
			<point x="26" y="525" type="curve" smooth="yes"/>
		</contour>
		<contour>
			<point x="76" y="63" type="curve" smooth="yes"/>
			<point x="76" y="528" type="line" smooth="yes"/>
			<point x="76" y="545"/>
			<point x="86" y="555"/>
			<point x="104" y="555" type="curve" smooth="yes"/>
			<point x="122" y="555"/>
			<point x="132" y="544"/>
			<point x="132" y="525" type="curve" smooth="yes"/>
			<point x="132" y="66" type="line" smooth="yes"/>
			<point x="132" y="47"/>
			<point x="122" y="35"/>
			<point x="104" y="35" type="curve" smooth="yes"/>
			<point x="86" y="35"/>
			<point x="76" y="45"/>
		</contour>
	</outline>
</glyph>
<glyph name="tbar" format="2">
	<advance width="210"/>
	<unicode hex="0167"/>
	<outline>
		<contour>
			<point x="25" y="305" type="line"/>
			<point x="175" y="305" type="line"/>
			<point x="185" y="350" type="line"/>
			<point x="35" y="350" type="line"/>
		</contour>
		<component base="t" xOffset="5"/>
	</outline>
</glyph>
<glyph name="jdotless" format="2">
	<advance width="116"/>
	<unicode hex="0237"/>
	<anchor x="59" y="590" name="top"/>
	<anchor x="59" y="-180" name="bottom"/>
	<outline>
		<contour>
			<point x="84" y="-122" type="curve" smooth="yes"/>
			<point x="84" y="590" type="line"/>
			<point x="34" y="590" type="line"/>
			<point x="34" y="-107" type="line" smooth="yes"/>
			<point x="34" y="-125"/>
			<point x="24" y="-135"/>
			<point x="6" y="-135" type="curve" smooth="yes"/>
			<point x="-2" y="-135"/>
			<point x="-10" y="-134"/>
			<point x="-16" y="-133" type="curve"/>
			<point x="-16" y="-180" type="line"/>
			<point x="-6" y="-183"/>
			<point x="9" y="-185"/>
			<point x="22" y="-185" type="curve" smooth="yes"/>
			<point x="61" y="-185"/>
			<point x="84" y="-162"/>
		</contour>
	</outline>
</glyph>
<glyph name="gravecomb" format="2">
	<advance width="183"/>
	<unicode hex="0300"/>
	<anchor x="85" y="780" name="top"/>
	<anchor x="85" y="590" name="_top"/>
	<outline>
		<contour>
			<point x="84" y="780" type="line"/>
			<point x="38" y="780" type="line"/>
			<point x="70" y="670" type="line"/>
			<point x="103" y="670" type="line"/>
		</contour>
	</outline>
</glyph>
<glyph name="acutecomb" format="2">
	<advance width="183"/>
	<unicode hex="0301"/>
	<anchor x="98" y="780" name="top"/>
	<anchor x="98" y="590" name="_top"/>
	<outline>
		<contour>
			<point x="98" y="780" type="line"/>
			<point x="79" y="670" type="line"/>
			<point x="113" y="670" type="line"/>
			<point x="144" y="780" type="line"/>
		</contour>
	</outline>
</glyph>
<glyph name="circumflexcomb" format="2">
	<advance width="116"/>
	<unicode hex="0302"/>
	<anchor x="58" y="780" name="top"/>
	<anchor x="58" y="590" name="_top"/>
	<outline>
		<contour>
			<point x="0" y="670" type="line"/>
			<point x="30" y="670" type="line"/>
			<point x="54" y="735" type="line"/>
			<point x="56" y="756" type="line"/>
			<point x="60" y="756" type="line"/>
			<point x="62" y="735" type="line"/>
			<point x="86" y="670" type="line"/>
			<point x="116" y="670" type="line"/>
			<point x="87" y="780" type="line"/>
			<point x="29" y="780" type="line"/>
		</contour>
	</outline>
</glyph>
<glyph name="tildecomb" format="2">
	<advance width="331"/>
	<unicode hex="0303"/>
	<anchor x="166" y="780" name="top"/>
	<anchor x="166" y="590" name="_top"/>
	<outline>
		<contour>
			<point x="80" y="680" type="curve"/>
			<point x="110" y="676" type="line"/>
			<point x="110" y="702"/>
			<point x="116" y="717"/>
			<point x="126" y="717" type="curve" smooth="yes"/>
			<point x="130" y="717"/>
			<point x="135" y="713"/>
			<point x="139" y="707" type="curve" smooth="yes"/>
			<point x="148" y="693" type="line" smooth="yes"/>
			<point x="157" y="679"/>
			<point x="171" y="670"/>
			<point x="186" y="670" type="curve" smooth="yes"/>
			<point x="217" y="670"/>
			<point x="235" y="699"/>
			<point x="235" y="747" type="curve"/>
			<point x="205" y="751" type="line"/>
			<point x="205" y="725"/>
			<point x="199" y="710"/>
			<point x="189" y="710" type="curve" smooth="yes"/>
			<point x="185" y="710"/>
			<point x="180" y="714"/>
			<point x="176" y="720" type="curve" smooth="yes"/>
			<point x="167" y="734" type="line" smooth="yes"/>
			<point x="158" y="748"/>
			<point x="144" y="757"/>
			<point x="129" y="757" type="curve" smooth="yes"/>
			<point x="98" y="757"/>
			<point x="80" y="728"/>
		</contour>
	</outline>
</glyph>
<glyph name="macroncomb" format="2">
	<advance width="338"/>
	<unicode hex="0304"/>
	<anchor x="169" y="760" name="top"/>
	<anchor x="169" y="590" name="_top"/>
	<outline>
		<contour>
			<point x="104" y="740" type="line"/>
			<point x="104" y="695" type="line"/>
			<point x="234" y="695" type="line"/>
			<point x="234" y="740" type="line"/>
		</contour>
	</outline>
</glyph>
<glyph name="brevecomb" format="2">
	<advance width="312"/>
	<unicode hex="0306"/>
	<anchor x="156" y="780" name="top"/>
	<anchor x="156" y="590" name="_top"/>
	<outline>
		<contour>
			<point x="231" y="755" type="curve"/>
			<point x="196" y="760" type="line"/>
			<point x="196" y="730"/>
			<point x="183" y="715"/>
			<point x="156" y="715" type="curve" smooth="yes"/>
			<point x="129" y="715"/>
			<point x="116" y="730"/>
			<point x="116" y="760" type="curve"/>
			<point x="81" y="755" type="line"/>
			<point x="81" y="705"/>
			<point x="106" y="680"/>
			<point x="156" y="680" type="curve" smooth="yes"/>
			<point x="206" y="680"/>
			<point x="231" y="705"/>
		</contour>
	</outline>
</glyph>
<glyph name="dieresiscomb" format="2">
	<advance width="218"/>
	<unicode hex="0308"/>
	<anchor x="109" y="780" name="top"/>
	<anchor x="109" y="590" name="_top"/>
	<outline>
		<contour>
			<point x="34" y="780" type="line"/>
			<point x="34" y="680" type="line"/>
			<point x="84" y="680" type="line"/>
			<point x="84" y="780" type="line"/>
		</contour>
		<contour>
			<point x="134" y="780" type="line"/>
			<point x="134" y="680" type="line"/>
			<point x="184" y="680" type="line"/>
			<point x="184" y="780" type="line"/>
		</contour>
	</outline>
</glyph>
<glyph name="ringcomb" format="2">
	<advance width="228"/>
	<unicode hex="030A"/>
	<anchor x="114" y="806" name="top"/>
	<anchor x="114" y="590" name="_top"/>
	<outline>
		<contour>
			<point x="114" y="656" type="curve" smooth="yes"/>
			<point x="161" y="656"/>
			<point x="189" y="684"/>
			<point x="189" y="731" type="curve" smooth="yes"/>
			<point x="189" y="778"/>
			<point x="161" y="806"/>
			<point x="114" y="806" type="curve" smooth="yes"/>
			<point x="67" y="806"/>
			<point x="39" y="778"/>
			<point x="39" y="731" type="curve" smooth="yes"/>
			<point x="39" y="684"/>
			<point x="67" y="656"/>
		</contour>
		<contour>
			<point x="114" y="691" type="curve" smooth="yes"/>
			<point x="92" y="691"/>
			<point x="79" y="706"/>
			<point x="79" y="731" type="curve" smooth="yes"/>
			<point x="79" y="756"/>
			<point x="92" y="771"/>
			<point x="114" y="771" type="curve" smooth="yes"/>
			<point x="136" y="771"/>
			<point x="149" y="756"/>
			<point x="149" y="731" type="curve" smooth="yes"/>
			<point x="149" y="706"/>
			<point x="136" y="691"/>
		</contour>
	</outline>
</glyph>
<glyph name="hungarumlautcomb" format="2">
	<advance width="368"/>
	<unicode hex="030B"/>
	<anchor x="200" y="780" name="top"/>
	<anchor x="200" y="590" name="_top"/>
	<outline>
		<contour>
			<point x="144" y="780" type="line"/>
			<point x="125" y="670" type="line"/>
			<point x="155" y="670" type="line"/>
			<point x="190" y="780" type="line"/>
		</contour>
		<contour>
			<point x="229" y="780" type="line"/>
			<point x="210" y="670" type="line"/>
			<point x="240" y="670" type="line"/>
			<point x="275" y="780" type="line"/>
		</contour>
	</outline>
</glyph>
<glyph name="commaaccentcomb" format="2">
	<advance width="108"/>
	<unicode hex="0326"/>
	<anchor x="54" y="0" name="_bottom"/>
	<anchor x="54" y="-180" name="bottom"/>
	<outline>
		<contour>
			<point x="24" y="-217" type="line"/>
			<point x="52" y="-217" type="line"/>
			<point x="84" y="-150" type="line"/>
			<point x="84" y="-70" type="line"/>
			<point x="24" y="-70" type="line"/>
			<point x="24" y="-150" type="line"/>
			<point x="49" y="-150" type="line"/>
		</contour>
	</outline>
</glyph>
<glyph name="cedillacomb" format="2">
	<advance width="174"/>
	<unicode hex="0327"/>
	<anchor x="81" y="0" name="_bottom"/>
	<anchor x="81" y="-150" name="bottom"/>
	<outline>
		<contour>
			<point x="63" y="20" type="line"/>
			<point x="63" y="-13"/>
			<point x="57" y="-44"/>
			<point x="46" y="-62" type="curve"/>
			<point x="60" y="-82" type="line"/>
			<point x="73" y="-82" type="line" smooth="yes"/>
			<point x="87" y="-82"/>
			<point x="96" y="-89"/>
			<point x="96" y="-100" type="curve" smooth="yes"/>
			<point x="96" y="-111"/>
			<point x="87" y="-118"/>
			<point x="73" y="-118" type="curve" smooth="yes"/>
			<point x="65" y="-118"/>
			<point x="56" y="-117"/>
			<point x="48" y="-115" type="curve"/>
			<point x="43" y="-145" type="line"/>
			<point x="52" y="-148"/>
			<point x="65" y="-150"/>
			<point x="77" y="-150" type="curve" smooth="yes"/>
			<point x="114" y="-150"/>
			<point x="136" y="-131"/>
			<point x="136" y="-98" type="curve" smooth="yes"/>
			<point x="136" y="-71"/>
			<point x="117" y="-54"/>
			<point x="85" y="-52" type="curve"/>
			<point x="93" y="-33"/>
			<point x="98" y="-6"/>
			<point x="98" y="20" type="curve"/>
		</contour>
	</outline>
</glyph>
<glyph name="ogonekcomb" format="2">
	<advance width="168"/>
	<unicode hex="0328"/>
	<anchor x="139" y="10" name="_ogonek"/>
	<outline>
		<contour>
			<point x="139" y="0" type="curve"/>
			<point x="129" y="20" type="line"/>
			<point x="108" y="20" type="line"/>
			<point x="84" y="5"/>
			<point x="67" y="-32"/>
			<point x="67" y="-71" type="curve" smooth="yes"/>
			<point x="67" y="-106"/>
			<point x="91" y="-131"/>
			<point x="124" y="-131" type="curve" smooth="yes"/>
			<point x="135" y="-131"/>
			<point x="147" y="-129"/>
			<point x="154" y="-125" type="curve"/>
			<point x="154" y="-93" type="line"/>
			<point x="148" y="-95"/>
			<point x="141" y="-96"/>
			<point x="133" y="-96" type="curve" smooth="yes"/>
			<point x="117" y="-96"/>
			<point x="107" y="-86"/>
			<point x="107" y="-68" type="curve" smooth="yes"/>
			<point x="107" y="-41"/>
			<point x="120" y="-13"/>
		</contour>
	</outline>
</glyph>
<glyph name="endash" format="2">
	<advance width="375"/>
	<unicode hex="2013"/>
	<outline>
		<contour>
			<point x="34" y="316" type="line"/>
			<point x="341" y="316" type="line"/>
			<point x="341" y="361" type="line"/>
			<point x="34" y="361" type="line"/>
		</contour>
	</outline>
</glyph>
<glyph name="emdash" format="2">
	<advance width="473"/>
	<unicode hex="2014"/>
	<outline>
		<contour>
			<point x="34" y="316" type="line"/>
			<point x="439" y="316" type="line"/>
			<point x="439" y="361" type="line"/>
			<point x="34" y="361" type="line"/>
		</contour>
	</outline>
</glyph>
<glyph name="guilsinglright" format="2">
	<advance width="187"/>
	<unicode hex="203A"/>
	<outline>
		<contour>
			<point x="88" y="473" type="line"/>
			<point x="39" y="473" type="line"/>
			<point x="89" y="290" type="line"/>
			<point x="39" y="107" type="line"/>
			<point x="88" y="107" type="line"/>
			<point x="148" y="290" type="line"/>
		</contour>
	</outline>
</glyph>
<glyph name="euro" format="2">
	<advance width="279"/>
	<unicode hex="20AC"/>
	<outline>
		<contour>
			<point x="247" y="235" type="line"/>
			<point x="192" y="235" type="line"/>
			<point x="192" y="80" type="line" smooth="yes"/>
			<point x="192" y="55"/>
			<point x="180" y="40"/>
			<point x="159" y="40" type="curve" smooth="yes"/>
			<point x="138" y="40"/>
			<point x="126" y="53"/>
			<point x="126" y="75" type="curve" smooth="yes"/>
			<point x="126" y="720" type="line" smooth="yes"/>
			<point x="126" y="745"/>
			<point x="138" y="760"/>
			<point x="159" y="760" type="curve" smooth="yes"/>
			<point x="180" y="760"/>
			<point x="192" y="747"/>
			<point x="192" y="725" type="curve" smooth="yes"/>
			<point x="192" y="565" type="line"/>
			<point x="247" y="565" type="line"/>
			<point x="247" y="724" type="line" smooth="yes"/>
			<point x="247" y="778"/>
			<point x="215" y="810"/>
			<point x="160" y="810" type="curve" smooth="yes"/>
			<point x="104" y="810"/>
			<point x="71" y="778"/>
			<point x="71" y="725" type="curve" smooth="yes"/>
			<point x="71" y="76" type="line" smooth="yes"/>
			<point x="71" y="22"/>
			<point x="103" y="-10"/>
			<point x="158" y="-10" type="curve" smooth="yes"/>
			<point x="214" y="-10"/>
			<point x="247" y="22"/>
			<point x="247" y="75" type="curve" smooth="yes"/>
		</contour>
		<contour>
			<point x="20" y="305" type="line"/>
			<point x="190" y="305" type="line"/>
			<point x="200" y="355" type="line"/>
			<point x="30" y="355" type="line"/>
		</contour>
		<contour>
			<point x="20" y="435" type="line"/>
			<point x="190" y="435" type="line"/>
			<point x="200" y="485" type="line"/>
			<point x="30" y="485" type="line"/>
		</contour>
	</outline>
</glyph>
<glyph name="trademark" format="2">
	<advance width="250"/>
	<unicode hex="2122"/>
	<guideline x="120" y="708" angle="0"/>
	<outline>
		<contour>
			<point x="24" y="820" type="line"/>
			<point x="24" y="801" type="line"/>
			<point x="48" y="801" type="line"/>
			<point x="48" y="590" type="line"/>
			<point x="69" y="590" type="line"/>
			<point x="69" y="801" type="line"/>
			<point x="93" y="801" type="line"/>
			<point x="93" y="820" type="line"/>
		</contour>
		<contour>
			<point x="227" y="590" type="line"/>
			<point x="227" y="820" type="line"/>
			<point x="194" y="820" type="line"/>
			<point x="170" y="653" type="line"/>
			<point x="168" y="616" type="line"/>
			<point x="164" y="616" type="line"/>
			<point x="162" y="653" type="line"/>
			<point x="138" y="820" type="line"/>
			<point x="106" y="820" type="line"/>
			<point x="106" y="590" type="line"/>
			<point x="125" y="590" type="line"/>
			<point x="125" y="740" type="line"/>
			<point x="122" y="794" type="line"/>
			<point x="126" y="794" type="line"/>
			<point x="131" y="740" type="line"/>
			<point x="151" y="590" type="line"/>
			<point x="178" y="590" type="line"/>
			<point x="200" y="740" type="line"/>
			<point x="205" y="794" type="line"/>
			<point x="209" y="794" type="line"/>
			<point x="206" y="740" type="line"/>
			<point x="206" y="590" type="line"/>
		</contour>
	</outline>
</glyph>
<glyph name="lozenge" format="2">
	<advance width="359"/>
	<unicode hex="25CA"/>
	<outline>
		<contour>
			<point x="33" y="400" type="line"/>
			<point x="148" y="0" type="line"/>
			<point x="211" y="0" type="line"/>
			<point x="326" y="400" type="line"/>
			<point x="211" y="800" type="line"/>
			<point x="148" y="800" type="line"/>
		</contour>
		<contour>
			<point x="272" y="400" type="line"/>
			<point x="189" y="101" type="line"/>
			<point x="183" y="49" type="line"/>
			<point x="176" y="49" type="line"/>
			<point x="170" y="101" type="line"/>
			<point x="87" y="400" type="line"/>
			<point x="170" y="699" type="line"/>
			<point x="176" y="751" type="line"/>
			<point x="183" y="751" type="line"/>
			<point x="189" y="699" type="line"/>
		</contour>
	</outline>
</glyph>
<glyph name="J.ss03" format="2">
	<advance width="171"/>
	<outline>
		<contour>
			<point x="128" y="58" type="curve" smooth="yes"/>
			<point x="128" y="800" type="line"/>
			<point x="73" y="800" type="line"/>
			<point x="73" y="78" type="line" smooth="yes"/>
			<point x="73" y="60"/>
			<point x="63" y="50"/>
			<point x="45" y="50" type="curve" smooth="yes"/>
			<point x="37" y="50"/>
			<point x="29" y="51"/>
			<point x="23" y="52" type="curve"/>
			<point x="23" y="0" type="line"/>
			<point x="33" y="-3"/>
			<point x="48" y="-5"/>
			<point x="61" y="-5" type="curve" smooth="yes"/>
			<point x="103" y="-5"/>
			<point x="128" y="18"/>
		</contour>
	</outline>
</glyph>
<glyph name="K.ss04" format="2">
	<advance width="269"/>
	<anchor x="134" y="800" name="top"/>
	<anchor x="134" y="0" name="bottom"/>
	<outline>
		<contour>
			<point x="43" y="0" type="line"/>
			<point x="98" y="0" type="line"/>
			<point x="98" y="360" type="line"/>
			<point x="95" y="398" type="line"/>
			<point x="101" y="398" type="line"/>
			<point x="106" y="360" type="line"/>
			<point x="189" y="0" type="line"/>
			<point x="248" y="0" type="line"/>
			<point x="145" y="422" type="line"/>
			<point x="239" y="800" type="line"/>
			<point x="184" y="800" type="line"/>
			<point x="106" y="471" type="line"/>
			<point x="101" y="433" type="line"/>
			<point x="95" y="433" type="line"/>
			<point x="98" y="471" type="line"/>
			<point x="98" y="800" type="line"/>
			<point x="43" y="800" type="line"/>
		</contour>
	</outline>
</glyph>
<glyph name="R.ss05" format="2">
	<advance width="269"/>
	<anchor x="138" y="800" name="top"/>
	<anchor x="138" y="0" name="bottom"/>
	<outline>
		<contour>
			<point x="43" y="0" type="line"/>
			<point x="98" y="0" type="line"/>
			<point x="98" y="390" type="line"/>
			<point x="135" y="390" type="line" smooth="yes"/>
			<point x="154" y="390"/>
			<point x="165" y="368"/>
			<point x="165" y="330" type="curve" smooth="yes"/>
			<point x="165" y="80" type="line" smooth="yes"/>
			<point x="165" y="48"/>
			<point x="171" y="18"/>
			<point x="182" y="0" type="curve"/>
			<point x="236" y="0" type="line"/>
			<point x="238" y="4" type="line"/>
			<point x="227" y="27"/>
			<point x="220" y="58"/>
			<point x="220" y="89" type="curve" smooth="yes"/>
			<point x="220" y="324" type="line" smooth="yes"/>
			<point x="220" y="370"/>
			<point x="204" y="403"/>
			<point x="177" y="413" type="curve"/>
			<point x="177" y="417" type="line"/>
			<point x="201" y="428"/>
			<point x="215" y="451"/>
			<point x="215" y="480" type="curve" smooth="yes"/>
			<point x="215" y="710" type="line" smooth="yes"/>
			<point x="215" y="767"/>
			<point x="183" y="800"/>
			<point x="128" y="800" type="curve" smooth="yes"/>
			<point x="43" y="800" type="line"/>
		</contour>
		<contour>
			<point x="98" y="440" type="line"/>
			<point x="98" y="750" type="line"/>
			<point x="127" y="750" type="line" smooth="yes"/>
			<point x="148" y="750"/>
			<point x="160" y="737"/>
			<point x="160" y="715" type="curve" smooth="yes"/>
			<point x="160" y="475" type="line" smooth="yes"/>
			<point x="160" y="453"/>
			<point x="148" y="440"/>
			<point x="127" y="440" type="curve" smooth="yes"/>
		</contour>
	</outline>
</glyph>
<glyph name="a.sc" format="2">
	<advance width="247"/>
	<anchor x="226" y="10" name="ogonek"/>
	<anchor x="127" y="0" name="bottom"/>
	<anchor x="122" y="620" name="top"/>
	<outline>
		<contour>
			<point x="226" y="0" type="line"/>
			<point x="158" y="620" type="line"/>
			<point x="86" y="620" type="line"/>
			<point x="23" y="0" type="line"/>
			<point x="76" y="0" type="line"/>
			<point x="111" y="420" type="line"/>
			<point x="117" y="550" type="line"/>
			<point x="123" y="550" type="line"/>
			<point x="129" y="420" type="line"/>
			<point x="168" y="0" type="line"/>
		</contour>
		<contour>
			<point x="58" y="150" type="line"/>
			<point x="58" y="100" type="line"/>
			<point x="193" y="100" type="line"/>
			<point x="193" y="150" type="line"/>
		</contour>
	</outline>
</glyph>
<glyph name="a.ss01" format="2">
	<advance width="210"/>
	<anchor x="198" y="10" name="ogonek"/>
	<anchor x="87" y="0" name="bottom"/>
	<anchor x="107" y="590" name="top"/>
	<outline>
		<contour>
			<point x="132" y="80" type="line" smooth="yes"/>
			<point x="132" y="50"/>
			<point x="138" y="20"/>
			<point x="149" y="0" type="curve"/>
			<point x="198" y="0" type="line"/>
			<point x="200" y="4" type="line"/>
			<point x="189" y="26"/>
			<point x="182" y="59"/>
			<point x="182" y="89" type="curve" smooth="yes"/>
			<point x="182" y="590" type="line"/>
			<point x="142" y="590" type="line"/>
			<point x="132" y="515" type="line"/>
		</contour>
		<contour>
			<point x="147" y="544" type="line"/>
			<point x="140" y="579"/>
			<point x="116" y="600"/>
			<point x="83" y="600" type="curve" smooth="yes"/>
			<point x="47" y="600"/>
			<point x="26" y="570"/>
			<point x="26" y="520" type="curve" smooth="yes"/>
			<point x="26" y="60" type="line" smooth="yes"/>
			<point x="26" y="13"/>
			<point x="45" y="-10"/>
			<point x="77" y="-10" type="curve" smooth="yes"/>
			<point x="113" y="-10"/>
			<point x="139" y="15"/>
			<point x="147" y="56" type="curve"/>
			<point x="147" y="75" type="line"/>
			<point x="132" y="75" type="line"/>
			<point x="132" y="50"/>
			<point x="121" y="35"/>
			<point x="102" y="35" type="curve" smooth="yes"/>
			<point x="86" y="35"/>
			<point x="76" y="46"/>
			<point x="76" y="65" type="curve" smooth="yes"/>
			<point x="76" y="510" type="line" smooth="yes"/>
			<point x="76" y="538"/>
			<point x="87" y="555"/>
			<point x="106" y="555" type="curve" smooth="yes"/>
			<point x="122" y="555"/>
			<point x="132" y="540"/>
			<point x="132" y="515" type="curve"/>
			<point x="147" y="515" type="line"/>
		</contour>
	</outline>
</glyph>
<glyph name="ae.sc" format="2">
	<advance width="346"/>
	<outline>
		<contour>
			<point x="23" y="0" type="line"/>
			<point x="79" y="0" type="line"/>
			<point x="152" y="570" type="line"/>
			<point x="169" y="570" type="line"/>
			<point x="169" y="0" type="line"/>
			<point x="324" y="0" type="line"/>
			<point x="324" y="50" type="line"/>
			<point x="224" y="50" type="line"/>
			<point x="224" y="320" type="line"/>
			<point x="299" y="320" type="line"/>
			<point x="299" y="370" type="line"/>
			<point x="224" y="370" type="line"/>
			<point x="224" y="570" type="line"/>
			<point x="314" y="570" type="line"/>
			<point x="314" y="620" type="line"/>
			<point x="114" y="620" type="line"/>
		</contour>
		<contour>
			<point x="69" y="150" type="line"/>
			<point x="69" y="100" type="line"/>
			<point x="204" y="100" type="line"/>
			<point x="204" y="150" type="line"/>
		</contour>
	</outline>
</glyph>
<glyph name="b.sc" format="2">
	<advance width="228"/>
	<outline>
		<contour>
			<point x="25" y="0" type="line"/>
			<point x="115" y="0" type="line" smooth="yes"/>
			<point x="167" y="0"/>
			<point x="197" y="32"/>
			<point x="197" y="85" type="curve" smooth="yes"/>
			<point x="197" y="274" type="line" smooth="yes"/>
			<point x="197" y="307"/>
			<point x="179" y="330"/>
			<point x="149" y="337" type="curve"/>
			<point x="149" y="341" type="line"/>
			<point x="176" y="347"/>
			<point x="192" y="367"/>
			<point x="192" y="396" type="curve" smooth="yes"/>
			<point x="192" y="535" type="line" smooth="yes"/>
			<point x="192" y="588"/>
			<point x="162" y="620"/>
			<point x="110" y="620" type="curve" smooth="yes"/>
			<point x="25" y="620" type="line"/>
		</contour>
		<contour>
			<point x="80" y="50" type="line"/>
			<point x="80" y="310" type="line"/>
			<point x="114" y="310" type="line" smooth="yes"/>
			<point x="132" y="310"/>
			<point x="142" y="298"/>
			<point x="142" y="279" type="curve" smooth="yes"/>
			<point x="142" y="80" type="line" smooth="yes"/>
			<point x="142" y="62"/>
			<point x="132" y="50"/>
			<point x="114" y="50" type="curve" smooth="yes"/>
		</contour>
		<contour>
			<point x="80" y="360" type="line"/>
			<point x="80" y="571" type="line"/>
			<point x="109" y="571" type="line" smooth="yes"/>
			<point x="127" y="571"/>
			<point x="137" y="559"/>
			<point x="137" y="540" type="curve" smooth="yes"/>
			<point x="137" y="391" type="line" smooth="yes"/>
			<point x="137" y="372"/>
			<point x="127" y="360"/>
			<point x="109" y="360" type="curve" smooth="yes"/>
		</contour>
	</outline>
</glyph>
<glyph name="circumflexcomb.alt" format="2">
	<advance width="96"/>
	<anchor x="48" y="780" name="top"/>
	<anchor x="48" y="590" name="_top"/>
	<outline>
		<contour>
			<point x="0" y="670" type="line"/>
			<point x="32" y="670" type="line"/>
			<point x="45" y="730" type="line"/>
			<point x="45" y="751" type="line"/>
			<point x="51" y="751" type="line"/>
			<point x="51" y="730" type="line"/>
			<point x="64" y="670" type="line"/>
			<point x="96" y="670" type="line"/>
			<point x="77" y="780" type="line"/>
			<point x="19" y="780" type="line"/>
		</contour>
	</outline>
</glyph>
<glyph name="d.sc" format="2">
	<advance width="240"/>
	<anchor x="121" y="340" name="center"/>
	<anchor x="121" y="0" name="bottom"/>
	<anchor x="120" y="620" name="top"/>
	<outline>
		<contour>
			<point x="30" y="0" type="line"/>
			<point x="123" y="0" type="line" smooth="yes"/>
			<point x="179" y="0"/>
			<point x="212" y="30"/>
			<point x="212" y="80" type="curve" smooth="yes"/>
			<point x="212" y="534" type="line" smooth="yes"/>
			<point x="212" y="588"/>
			<point x="180" y="620"/>
			<point x="125" y="620" type="curve" smooth="yes"/>
			<point x="30" y="620" type="line"/>
		</contour>
		<contour>
			<point x="85" y="50" type="line"/>
			<point x="85" y="570" type="line"/>
			<point x="124" y="570" type="line" smooth="yes"/>
			<point x="145" y="570"/>
			<point x="157" y="559"/>
			<point x="157" y="540" type="curve" smooth="yes"/>
			<point x="157" y="85" type="line" smooth="yes"/>
			<point x="157" y="63"/>
			<point x="145" y="50"/>
			<point x="124" y="50" type="curve" smooth="yes"/>
		</contour>
	</outline>
</glyph>
<glyph name="dieresiscomb.alt" format="2">
	<advance width="348"/>
	<anchor x="174" y="780" name="top"/>
	<anchor x="174" y="590" name="_top"/>
	<outline>
		<contour>
			<point x="141" y="780" type="line"/>
			<point x="141" y="670" type="line"/>
			<point x="186" y="670" type="line"/>
			<point x="186" y="780" type="line"/>
		</contour>
		<contour>
			<point x="231" y="780" type="line"/>
			<point x="231" y="670" type="line"/>
			<point x="276" y="670" type="line"/>
			<point x="276" y="780" type="line"/>
		</contour>
	</outline>
</glyph>
<glyph name="e.sc" format="2">
	<advance width="202"/>
	<anchor x="180" y="10" name="ogonek"/>
	<anchor x="101" y="620" name="top"/>
	<anchor x="25" y="620" name="topleft"/>
	<anchor x="101" y="0" name="bottom"/>
	<outline>
		<contour>
			<point x="25" y="0" type="line"/>
			<point x="180" y="0" type="line"/>
			<point x="180" y="50" type="line"/>
			<point x="80" y="50" type="line"/>
			<point x="80" y="320" type="line"/>
			<point x="155" y="320" type="line"/>
			<point x="155" y="370" type="line"/>
			<point x="80" y="370" type="line"/>
			<point x="80" y="570" type="line"/>
			<point x="170" y="570" type="line"/>
			<point x="170" y="620" type="line"/>
			<point x="25" y="620" type="line"/>
		</contour>
	</outline>
</glyph>
<glyph name="eng.sc" format="2">
	<advance width="299"/>
	<outline>
		<contour>
			<point x="256" y="30" type="line"/>
			<point x="206" y="30" type="line"/>
			<point x="206" y="-107" type="line" smooth="yes"/>
			<point x="206" y="-125"/>
			<point x="196" y="-135"/>
			<point x="178" y="-135" type="curve" smooth="yes"/>
			<point x="170" y="-135"/>
			<point x="162" y="-134"/>
			<point x="156" y="-133" type="curve"/>
			<point x="156" y="-180" type="line"/>
			<point x="166" y="-183"/>
			<point x="181" y="-185"/>
			<point x="194" y="-185" type="curve" smooth="yes"/>
			<point x="233" y="-185"/>
			<point x="256" y="-162"/>
			<point x="256" y="-122" type="curve" smooth="yes"/>
		</contour>
		<component base="n.sc" xOffset="18"/>
	</outline>
</glyph>
<glyph name="eth.sc" format="2">
	<advance width="260"/>
	<outline>
		<contour>
			<point x="15" y="355" type="line"/>
			<point x="5" y="305" type="line"/>
			<point x="145" y="305" type="line"/>
			<point x="155" y="355" type="line"/>
		</contour>
		<component base="d.sc" xOffset="20"/>
	</outline>
</glyph>
<glyph name="f_f" format="2">
	<advance width="340"/>
	<outline>
		<contour>
			<point x="75" y="0" type="line"/>
			<point x="125" y="0" type="line"/>
			<point x="125" y="747" type="line" smooth="yes"/>
			<point x="125" y="765"/>
			<point x="135" y="775"/>
			<point x="153" y="775" type="curve" smooth="yes"/>
			<point x="161" y="775"/>
			<point x="169" y="774"/>
			<point x="175" y="773" type="curve"/>
			<point x="175" y="820" type="line"/>
			<point x="165" y="823"/>
			<point x="150" y="825"/>
			<point x="137" y="825" type="curve" smooth="yes"/>
			<point x="98" y="825"/>
			<point x="75" y="802"/>
			<point x="75" y="762" type="curve" smooth="yes"/>
		</contour>
		<contour>
			<point x="215" y="0" type="line"/>
			<point x="265" y="0" type="line"/>
			<point x="265" y="747" type="line" smooth="yes"/>
			<point x="265" y="765"/>
			<point x="275" y="775"/>
			<point x="293" y="775" type="curve" smooth="yes"/>
			<point x="301" y="775"/>
			<point x="309" y="774"/>
			<point x="315" y="773" type="curve"/>
			<point x="315" y="820" type="line"/>
			<point x="305" y="823"/>
			<point x="290" y="825"/>
			<point x="277" y="825" type="curve" smooth="yes"/>
			<point x="238" y="825"/>
			<point x="215" y="802"/>
			<point x="215" y="762" type="curve" smooth="yes"/>
		</contour>
		<contour>
			<point x="25" y="590" type="line"/>
			<point x="25" y="545" type="line"/>
			<point x="315" y="545" type="line"/>
			<point x="315" y="590" type="line"/>
		</contour>
	</outline>
</glyph>
<glyph name="f_f_jdotless" format="2">
	<advance width="451"/>
	<anchor x="394" y="590" name="top"/>
	<anchor x="394" y="-180" name="bottom"/>
	<outline>
		<contour>
			<point x="75" y="0" type="line"/>
			<point x="125" y="0" type="line"/>
			<point x="125" y="747" type="line" smooth="yes"/>
			<point x="125" y="765"/>
			<point x="135" y="775"/>
			<point x="153" y="775" type="curve" smooth="yes"/>
			<point x="161" y="775"/>
			<point x="169" y="774"/>
			<point x="175" y="773" type="curve"/>
			<point x="175" y="820" type="line"/>
			<point x="165" y="823"/>
			<point x="150" y="825"/>
			<point x="137" y="825" type="curve" smooth="yes"/>
			<point x="98" y="825"/>
			<point x="75" y="802"/>
			<point x="75" y="762" type="curve" smooth="yes"/>
		</contour>
		<contour>
			<point x="222" y="0" type="line"/>
			<point x="272" y="0" type="line"/>
			<point x="272" y="747" type="line" smooth="yes"/>
			<point x="272" y="765"/>
			<point x="282" y="775"/>
			<point x="300" y="775" type="curve" smooth="yes"/>
			<point x="308" y="775"/>
			<point x="316" y="774"/>
			<point x="322" y="773" type="curve"/>
			<point x="322" y="820" type="line"/>
			<point x="312" y="823"/>
			<point x="297" y="825"/>
			<point x="284" y="825" type="curve" smooth="yes"/>
			<point x="245" y="825"/>
			<point x="222" y="802"/>
			<point x="222" y="762" type="curve" smooth="yes"/>
		</contour>
		<contour>
			<point x="25" y="545" type="line"/>
			<point x="369" y="545" type="line"/>
			<point x="369" y="-107" type="line" smooth="yes"/>
			<point x="369" y="-125"/>
			<point x="359" y="-135"/>
			<point x="341" y="-135" type="curve" smooth="yes"/>
			<point x="333" y="-135"/>
			<point x="325" y="-134"/>
			<point x="319" y="-133" type="curve"/>
			<point x="319" y="-180" type="line"/>
			<point x="329" y="-183"/>
			<point x="344" y="-185"/>
			<point x="357" y="-185" type="curve" smooth="yes"/>
			<point x="396" y="-185"/>
			<point x="419" y="-162"/>
			<point x="419" y="-122" type="curve" smooth="yes"/>
			<point x="419" y="590" type="line"/>
			<point x="25" y="590" type="line"/>
		</contour>
	</outline>
</glyph>
<glyph name="f_f_t" format="2">
	<advance width="494"/>
	<anchor x="394" y="295" name="center"/>
	<anchor x="393" y="590" name="top"/>
	<anchor x="447" y="820" name="topright"/>
	<anchor x="431" y="0" name="bottom"/>
	<outline>
		<contour>
			<point x="75" y="0" type="line"/>
			<point x="125" y="0" type="line"/>
			<point x="125" y="747" type="line" smooth="yes"/>
			<point x="125" y="765"/>
			<point x="135" y="775"/>
			<point x="153" y="775" type="curve" smooth="yes"/>
			<point x="161" y="775"/>
			<point x="169" y="774"/>
			<point x="175" y="773" type="curve"/>
			<point x="175" y="820" type="line"/>
			<point x="165" y="823"/>
			<point x="150" y="825"/>
			<point x="137" y="825" type="curve" smooth="yes"/>
			<point x="98" y="825"/>
			<point x="75" y="802"/>
			<point x="75" y="762" type="curve" smooth="yes"/>
		</contour>
		<contour>
			<point x="222" y="0" type="line"/>
			<point x="272" y="0" type="line"/>
			<point x="272" y="747" type="line" smooth="yes"/>
			<point x="272" y="765"/>
			<point x="282" y="775"/>
			<point x="300" y="775" type="curve" smooth="yes"/>
			<point x="308" y="775"/>
			<point x="316" y="774"/>
			<point x="322" y="773" type="curve"/>
			<point x="322" y="820" type="line"/>
			<point x="312" y="823"/>
			<point x="297" y="825"/>
			<point x="284" y="825" type="curve" smooth="yes"/>
			<point x="245" y="825"/>
			<point x="222" y="802"/>
			<point x="222" y="762" type="curve" smooth="yes"/>
		</contour>
		<contour>
			<point x="369" y="58" type="line" smooth="yes"/>
			<point x="369" y="18"/>
			<point x="392" y="-5"/>
			<point x="431" y="-5" type="curve" smooth="yes"/>
			<point x="444" y="-5"/>
			<point x="459" y="-3"/>
			<point x="469" y="0" type="curve"/>
			<point x="469" y="47" type="line"/>
			<point x="463" y="46"/>
			<point x="455" y="45"/>
			<point x="447" y="45" type="curve" smooth="yes"/>
			<point x="429" y="45"/>
			<point x="419" y="55"/>
			<point x="419" y="73" type="curve" smooth="yes"/>
			<point x="419" y="740" type="line"/>
			<point x="399" y="740" type="line"/>
			<point x="369" y="690" type="line"/>
		</contour>
		<contour>
			<point x="25" y="590" type="line"/>
			<point x="25" y="545" type="line"/>
			<point x="469" y="545" type="line"/>
			<point x="469" y="590" type="line"/>
		</contour>
	</outline>
</glyph>
<glyph name="f_idotless" format="2">
	<advance width="304"/>
	<anchor x="272" y="10" name="ogonek"/>
	<anchor x="247" y="0" name="bottom"/>
	<anchor x="247" y="590" name="top"/>
	<outline>
		<contour>
			<point x="75" y="0" type="line"/>
			<point x="125" y="0" type="line"/>
			<point x="125" y="747" type="line" smooth="yes"/>
			<point x="125" y="765"/>
			<point x="135" y="775"/>
			<point x="153" y="775" type="curve" smooth="yes"/>
			<point x="161" y="775"/>
			<point x="169" y="774"/>
			<point x="175" y="773" type="curve"/>
			<point x="175" y="820" type="line"/>
			<point x="165" y="823"/>
			<point x="150" y="825"/>
			<point x="137" y="825" type="curve" smooth="yes"/>
			<point x="98" y="825"/>
			<point x="75" y="802"/>
			<point x="75" y="762" type="curve" smooth="yes"/>
		</contour>
		<contour>
			<point x="25" y="545" type="line"/>
			<point x="222" y="545" type="line"/>
			<point x="222" y="0" type="line"/>
			<point x="272" y="0" type="line"/>
			<point x="272" y="590" type="line"/>
			<point x="25" y="590" type="line"/>
		</contour>
	</outline>
</glyph>
<glyph name="f_jdotless" format="2">
	<advance width="304"/>
	<anchor x="247" y="590" name="top"/>
	<anchor x="247" y="-180" name="bottom"/>
	<outline>
		<contour>
			<point x="75" y="0" type="line"/>
			<point x="125" y="0" type="line"/>
			<point x="125" y="747" type="line" smooth="yes"/>
			<point x="125" y="765"/>
			<point x="135" y="775"/>
			<point x="153" y="775" type="curve" smooth="yes"/>
			<point x="161" y="775"/>
			<point x="169" y="774"/>
			<point x="175" y="773" type="curve"/>
			<point x="175" y="820" type="line"/>
			<point x="165" y="823"/>
			<point x="150" y="825"/>
			<point x="137" y="825" type="curve" smooth="yes"/>
			<point x="98" y="825"/>
			<point x="75" y="802"/>
			<point x="75" y="762" type="curve" smooth="yes"/>
		</contour>
		<contour>
			<point x="25" y="545" type="line"/>
			<point x="222" y="545" type="line"/>
			<point x="222" y="-107" type="line" smooth="yes"/>
			<point x="222" y="-125"/>
			<point x="212" y="-135"/>
			<point x="194" y="-135" type="curve" smooth="yes"/>
			<point x="186" y="-135"/>
			<point x="178" y="-134"/>
			<point x="172" y="-133" type="curve"/>
			<point x="172" y="-180" type="line"/>
			<point x="182" y="-183"/>
			<point x="197" y="-185"/>
			<point x="210" y="-185" type="curve" smooth="yes"/>
			<point x="249" y="-185"/>
			<point x="272" y="-162"/>
			<point x="272" y="-122" type="curve" smooth="yes"/>
			<point x="272" y="590" type="line"/>
			<point x="25" y="590" type="line"/>
		</contour>
	</outline>
</glyph>
<glyph name="f_t" format="2">
	<advance width="347"/>
	<anchor x="247" y="295" name="center"/>
	<anchor x="247" y="590" name="top"/>
	<anchor x="302" y="820" name="topright"/>
	<anchor x="295" y="0" name="bottom"/>
	<outline>
		<contour>
			<point x="75" y="0" type="line"/>
			<point x="125" y="0" type="line"/>
			<point x="125" y="747" type="line" smooth="yes"/>
			<point x="125" y="765"/>
			<point x="135" y="775"/>
			<point x="153" y="775" type="curve" smooth="yes"/>
			<point x="161" y="775"/>
			<point x="169" y="774"/>
			<point x="175" y="773" type="curve"/>
			<point x="175" y="820" type="line"/>
			<point x="165" y="823"/>
			<point x="150" y="825"/>
			<point x="137" y="825" type="curve" smooth="yes"/>
			<point x="98" y="825"/>
			<point x="75" y="802"/>
			<point x="75" y="762" type="curve" smooth="yes"/>
		</contour>
		<contour>
			<point x="222" y="58" type="line" smooth="yes"/>
			<point x="222" y="18"/>
			<point x="245" y="-5"/>
			<point x="284" y="-5" type="curve" smooth="yes"/>
			<point x="297" y="-5"/>
			<point x="312" y="-3"/>
			<point x="322" y="0" type="curve"/>
			<point x="322" y="47" type="line"/>
			<point x="316" y="46"/>
			<point x="308" y="45"/>
			<point x="300" y="45" type="curve" smooth="yes"/>
			<point x="282" y="45"/>
			<point x="272" y="55"/>
			<point x="272" y="73" type="curve" smooth="yes"/>
			<point x="272" y="740" type="line"/>
			<point x="252" y="740" type="line"/>
			<point x="222" y="690" type="line"/>
		</contour>
		<contour>
			<point x="25" y="590" type="line"/>
			<point x="25" y="545" type="line"/>
			<point x="322" y="545" type="line"/>
			<point x="322" y="590" type="line"/>
		</contour>
	</outline>
</glyph>
<glyph name="f_tbar" format="2">
	<advance width="352"/>
	<outline>
		<contour>
			<point x="167" y="305" type="line"/>
			<point x="317" y="305" type="line"/>
			<point x="327" y="350" type="line"/>
			<point x="177" y="350" type="line"/>
		</contour>
		<component base="f_t"/>
	</outline>
</glyph>
<glyph name="g.sc" format="2">
	<advance width="230"/>
	<anchor x="113" y="620" name="top"/>
	<anchor x="113" y="0" name="bottom"/>
	<outline>
		<contour>
			<point x="202" y="360" type="line"/>
			<point x="112" y="360" type="line"/>
			<point x="112" y="310" type="line"/>
			<point x="147" y="310" type="line"/>
			<point x="147" y="80" type="line" smooth="yes"/>
			<point x="147" y="55"/>
			<point x="135" y="40"/>
			<point x="114" y="40" type="curve" smooth="yes"/>
			<point x="93" y="40"/>
			<point x="81" y="53"/>
			<point x="81" y="75" type="curve" smooth="yes"/>
			<point x="81" y="540" type="line" smooth="yes"/>
			<point x="81" y="565"/>
			<point x="93" y="580"/>
			<point x="114" y="580" type="curve" smooth="yes"/>
			<point x="135" y="580"/>
			<point x="147" y="567"/>
			<point x="147" y="545" type="curve" smooth="yes"/>
			<point x="147" y="414" type="line"/>
			<point x="202" y="414" type="line"/>
			<point x="202" y="544" type="line" smooth="yes"/>
			<point x="202" y="598"/>
			<point x="170" y="630"/>
			<point x="115" y="630" type="curve" smooth="yes"/>
			<point x="59" y="630"/>
			<point x="26" y="598"/>
			<point x="26" y="545" type="curve" smooth="yes"/>
			<point x="26" y="76" type="line" smooth="yes"/>
			<point x="26" y="22"/>
			<point x="58" y="-10"/>
			<point x="113" y="-10" type="curve" smooth="yes"/>
			<point x="169" y="-10"/>
			<point x="202" y="22"/>
			<point x="202" y="75" type="curve" smooth="yes"/>
		</contour>
	</outline>
</glyph>
<glyph name="g.ss02" format="2">
	<advance width="247"/>
	<anchor x="120" y="600" name="top"/>
	<anchor x="124" y="-180" name="bottom"/>
	<outline>
		<contour>
			<point x="44" y="86" type="line" smooth="yes"/>
			<point x="44" y="38"/>
			<point x="72" y="10"/>
			<point x="120" y="10" type="curve" smooth="yes"/>
			<point x="169" y="10"/>
			<point x="198" y="37"/>
			<point x="198" y="83" type="curve" smooth="yes"/>
			<point x="198" y="527" type="line" smooth="yes"/>
			<point x="198" y="573"/>
			<point x="170" y="600"/>
			<point x="122" y="600" type="curve" smooth="yes"/>
			<point x="73" y="600"/>
			<point x="44" y="572"/>
			<point x="44" y="525" type="curve" smooth="yes"/>
		</contour>
		<contour>
			<point x="94" y="83" type="curve" smooth="yes"/>
			<point x="94" y="528" type="line" smooth="yes"/>
			<point x="94" y="545"/>
			<point x="104" y="555"/>
			<point x="121" y="555" type="curve" smooth="yes"/>
			<point x="138" y="555"/>
			<point x="148" y="544"/>
			<point x="148" y="525" type="curve" smooth="yes"/>
			<point x="148" y="86" type="line" smooth="yes"/>
			<point x="148" y="67"/>
			<point x="138" y="55"/>
			<point x="121" y="55" type="curve" smooth="yes"/>
			<point x="104" y="55"/>
			<point x="94" y="65"/>
		</contour>
		<contour>
			<point x="79" y="39" type="line"/>
			<point x="59" y="25"/>
			<point x="47" y="5"/>
			<point x="47" y="-14" type="curve" smooth="yes"/>
			<point x="47" y="-40"/>
			<point x="62" y="-60"/>
			<point x="87" y="-67" type="curve" smooth="yes"/>
			<point x="133" y="-79" type="line" smooth="yes"/>
			<point x="158" y="-85"/>
			<point x="172" y="-98"/>
			<point x="172" y="-115" type="curve" smooth="yes"/>
			<point x="172" y="-134"/>
			<point x="154" y="-145"/>
			<point x="124" y="-145" type="curve" smooth="yes"/>
			<point x="94" y="-145"/>
			<point x="76" y="-133"/>
			<point x="76" y="-112" type="curve" smooth="yes"/>
			<point x="76" y="-91"/>
			<point x="90" y="-73"/>
			<point x="113" y="-64" type="curve"/>
			<point x="99" y="-50" type="line"/>
			<point x="53" y="-60"/>
			<point x="26" y="-87"/>
			<point x="26" y="-122" type="curve" smooth="yes"/>
			<point x="26" y="-165"/>
			<point x="62" y="-190"/>
			<point x="124" y="-190" type="curve" smooth="yes"/>
			<point x="186" y="-190"/>
			<point x="222" y="-160"/>
			<point x="222" y="-109" type="curve" smooth="yes"/>
			<point x="222" y="-75"/>
			<point x="199" y="-49"/>
			<point x="160" y="-39" type="curve" smooth="yes"/>
			<point x="114" y="-27" type="line" smooth="yes"/>
			<point x="100" y="-24"/>
			<point x="92" y="-16"/>
			<point x="92" y="-6" type="curve" smooth="yes"/>
			<point x="92" y="4"/>
			<point x="96" y="13"/>
			<point x="102" y="18" type="curve"/>
		</contour>
		<contour>
			<point x="165" y="575" type="curve"/>
			<point x="193" y="550" type="line"/>
			<point x="200" y="563"/>
			<point x="213" y="570"/>
			<point x="229" y="570" type="curve"/>
			<point x="229" y="620" type="line"/>
			<point x="200" y="620"/>
			<point x="176" y="603"/>
		</contour>
	</outline>
</glyph>
<glyph name="hbar.sc" format="2">
	<advance width="270"/>
	<outline>
		<contour>
			<point x="15" y="490" type="line"/>
			<point x="5" y="440" type="line"/>
			<point x="255" y="440" type="line"/>
			<point x="265" y="490" type="line"/>
		</contour>
		<component base="h.sc" xOffset="15"/>
	</outline>
</glyph>
<glyph name="i.sc" format="2">
	<advance width="107"/>
	<anchor x="80" y="10" name="ogonek"/>
	<anchor x="53" y="620" name="top"/>
	<anchor x="25" y="620" name="topleft"/>
	<anchor x="53" y="0" name="bottom"/>
	<outline>
		<contour>
			<point x="80" y="620" type="line"/>
			<point x="25" y="620" type="line"/>
			<point x="25" y="0" type="line"/>
			<point x="80" y="0" type="line"/>
		</contour>
	</outline>
</glyph>
<glyph name="j.sc" format="2">
	<advance width="226"/>
	<outline>
		<contour>
			<point x="78" y="266" type="line"/>
			<point x="23" y="266" type="line"/>
			<point x="23" y="76" type="line" smooth="yes"/>
			<point x="23" y="22"/>
			<point x="55" y="-10"/>
			<point x="110" y="-10" type="curve" smooth="yes"/>
			<point x="166" y="-10"/>
			<point x="199" y="22"/>
			<point x="199" y="75" type="curve" smooth="yes"/>
			<point x="199" y="620" type="line"/>
			<point x="144" y="620" type="line"/>
			<point x="144" y="80" type="line" smooth="yes"/>
			<point x="144" y="55"/>
			<point x="132" y="40"/>
			<point x="111" y="40" type="curve" smooth="yes"/>
			<point x="90" y="40"/>
			<point x="78" y="53"/>
			<point x="78" y="75" type="curve" smooth="yes"/>
		</contour>
	</outline>
</glyph>
<glyph name="j.sc.ss03" format="2">
	<advance width="155"/>
	<outline>
		<contour>
			<point x="128" y="58" type="curve" smooth="yes"/>
			<point x="128" y="620" type="line"/>
			<point x="73" y="620" type="line"/>
			<point x="73" y="73" type="line" smooth="yes"/>
			<point x="73" y="55"/>
			<point x="63" y="45"/>
			<point x="45" y="45" type="curve" smooth="yes"/>
			<point x="37" y="45"/>
			<point x="29" y="46"/>
			<point x="23" y="47" type="curve"/>
			<point x="23" y="0" type="line"/>
			<point x="33" y="-3"/>
			<point x="48" y="-5"/>
			<point x="61" y="-5" type="curve" smooth="yes"/>
			<point x="100" y="-5"/>
			<point x="128" y="18"/>
		</contour>
	</outline>
</glyph>
<glyph name="k.sc" format="2">
	<advance width="235"/>
	<anchor x="106" y="620" name="top"/>
	<anchor x="106" y="0" name="bottom"/>
	<outline>
		<contour>
			<point x="25" y="0" type="line"/>
			<point x="80" y="0" type="line"/>
			<point x="80" y="317" type="line"/>
			<point x="87" y="355" type="line"/>
			<point x="93" y="355" type="line"/>
			<point x="156" y="0" type="line"/>
			<point x="217" y="0" type="line"/>
			<point x="126" y="399" type="line"/>
			<point x="202" y="620" type="line"/>
			<point x="145" y="620" type="line"/>
			<point x="90" y="430" type="line"/>
			<point x="83" y="381" type="line"/>
			<point x="77" y="381" type="line"/>
			<point x="80" y="433" type="line"/>
			<point x="80" y="620" type="line"/>
			<point x="25" y="620" type="line"/>
		</contour>
	</outline>
</glyph>
<glyph name="k.sc.ss04" format="2">
	<advance width="245"/>
	<guideline x="91" y="442" angle="90"/>
	<anchor x="115" y="620" name="top"/>
	<anchor x="115" y="0" name="bottom"/>
	<outline>
		<contour>
			<point x="25" y="0" type="line"/>
			<point x="80" y="0" type="line"/>
			<point x="80" y="270" type="line"/>
			<point x="77" y="314" type="line"/>
			<point x="81" y="314" type="line"/>
			<point x="91" y="270" type="line"/>
			<point x="168" y="0" type="line"/>
			<point x="227" y="0" type="line"/>
			<point x="124" y="327" type="line"/>
			<point x="218" y="620" type="line"/>
			<point x="159" y="620" type="line"/>
			<point x="91" y="383" type="line"/>
			<point x="81" y="338" type="line"/>
			<point x="77" y="338" type="line"/>
			<point x="80" y="383" type="line"/>
			<point x="80" y="620" type="line"/>
			<point x="25" y="620" type="line"/>
		</contour>
	</outline>
</glyph>
<glyph name="k.ss04" format="2">
	<advance width="237"/>
	<anchor x="115" y="820" name="top"/>
	<anchor x="118" y="0" name="bottom"/>
	<outline>
		<contour>
			<point x="30" y="0" type="line"/>
			<point x="80" y="0" type="line"/>
			<point x="80" y="293" type="line"/>
			<point x="78" y="326" type="line"/>
			<point x="84" y="326" type="line"/>
			<point x="88" y="293" type="line"/>
			<point x="167" y="0" type="line"/>
			<point x="219" y="0" type="line"/>
			<point x="123" y="342" type="line"/>
			<point x="202" y="590" type="line"/>
			<point x="152" y="590" type="line"/>
			<point x="88" y="376" type="line"/>
			<point x="84" y="343" type="line"/>
			<point x="78" y="343" type="line"/>
			<point x="80" y="376" type="line"/>
			<point x="80" y="820" type="line"/>
			<point x="30" y="820" type="line"/>
		</contour>
	</outline>
</glyph>
<glyph name="l.sc" format="2">
	<advance width="201"/>
	<anchor x="52" y="400" name="center"/>
	<anchor x="50" y="620" name="top"/>
	<anchor x="110" y="640" name="topright"/>
	<anchor x="110" y="0" name="bottom"/>
	<outline>
		<contour>
			<point x="180" y="0" type="line"/>
			<point x="180" y="50" type="line"/>
			<point x="80" y="50" type="line"/>
			<point x="80" y="620" type="line"/>
			<point x="25" y="620" type="line"/>
			<point x="25" y="0" type="line"/>
		</contour>
	</outline>
</glyph>
<glyph name="m.sc" format="2">
	<advance width="358"/>
	<outline>
		<contour>
			<point x="331" y="0" type="line"/>
			<point x="331" y="620" type="line"/>
			<point x="248" y="620" type="line"/>
			<point x="184" y="169" type="line"/>
			<point x="180" y="70" type="line"/>
			<point x="174" y="70" type="line"/>
			<point x="170" y="169" type="line"/>
			<point x="106" y="620" type="line"/>
			<point x="25" y="620" type="line"/>
			<point x="25" y="0" type="line"/>
			<point x="75" y="0" type="line"/>
			<point x="75" y="404" type="line"/>
			<point x="67" y="550" type="line"/>
			<point x="73" y="550" type="line"/>
			<point x="86" y="404" type="line"/>
			<point x="141" y="0" type="line"/>
			<point x="208" y="0" type="line"/>
			<point x="265" y="404" type="line"/>
			<point x="278" y="550" type="line"/>
			<point x="284" y="550" type="line"/>
			<point x="276" y="404" type="line"/>
			<point x="276" y="0" type="line"/>
		</contour>
	</outline>
</glyph>
<glyph name="macroncomb.alt" format="2">
	<advance width="338"/>
	<anchor x="169" y="760" name="top"/>
	<anchor x="169" y="590" name="_top"/>
	<outline>
		<contour>
			<point x="134" y="760" type="line"/>
			<point x="134" y="715" type="line"/>
			<point x="274" y="715" type="line"/>
			<point x="274" y="760" type="line"/>
		</contour>
	</outline>
</glyph>
<glyph name="n.sc" format="2">
	<advance width="265"/>
	<anchor x="139" y="620" name="top"/>
	<anchor x="135" y="0" name="bottom"/>
	<outline>
		<contour>
			<point x="25" y="620" type="line"/>
			<point x="25" y="0" type="line"/>
			<point x="75" y="0" type="line"/>
			<point x="75" y="390" type="line"/>
			<point x="65" y="550" type="line"/>
			<point x="71" y="550" type="line"/>
			<point x="92" y="390" type="line"/>
			<point x="166" y="0" type="line"/>
			<point x="238" y="0" type="line"/>
			<point x="238" y="620" type="line"/>
			<point x="188" y="620" type="line"/>
			<point x="188" y="220" type="line"/>
			<point x="198" y="60" type="line"/>
			<point x="192" y="60" type="line"/>
			<point x="171" y="220" type="line"/>
			<point x="95" y="620" type="line"/>
		</contour>
	</outline>
</glyph>
<glyph name="oe.sc" format="2">
	<advance width="371"/>
	<outline>
		<contour>
			<point x="33" y="76" type="line" smooth="yes"/>
			<point x="33" y="22"/>
			<point x="62" y="-10"/>
			<point x="110" y="-10" type="curve" smooth="yes"/>
			<point x="140" y="-10"/>
			<point x="161" y="1"/>
			<point x="166" y="20" type="curve"/>
			<point x="170" y="20" type="line"/>
			<point x="170" y="0" type="line"/>
			<point x="349" y="0" type="line"/>
			<point x="349" y="50" type="line"/>
			<point x="209" y="50" type="line"/>
			<point x="209" y="320" type="line"/>
			<point x="299" y="320" type="line"/>
			<point x="299" y="370" type="line"/>
			<point x="209" y="370" type="line"/>
			<point x="209" y="570" type="line"/>
			<point x="329" y="570" type="line"/>
			<point x="329" y="620" type="line"/>
			<point x="170" y="620" type="line"/>
			<point x="170" y="600" type="line"/>
			<point x="166" y="600" type="line"/>
			<point x="161" y="619"/>
			<point x="141" y="630"/>
			<point x="112" y="630" type="curve" smooth="yes"/>
			<point x="62" y="630"/>
			<point x="33" y="598"/>
			<point x="33" y="545" type="curve" smooth="yes"/>
		</contour>
		<contour>
			<point x="88" y="75" type="curve" smooth="yes"/>
			<point x="88" y="540" type="line" smooth="yes"/>
			<point x="88" y="565"/>
			<point x="100" y="580"/>
			<point x="121" y="580" type="curve" smooth="yes"/>
			<point x="142" y="580"/>
			<point x="154" y="567"/>
			<point x="154" y="545" type="curve" smooth="yes"/>
			<point x="154" y="80" type="line" smooth="yes"/>
			<point x="154" y="55"/>
			<point x="142" y="40"/>
			<point x="121" y="40" type="curve" smooth="yes"/>
			<point x="100" y="40"/>
			<point x="88" y="53"/>
		</contour>
	</outline>
</glyph>
<glyph name="one.ss07" format="2">
	<advance width="141"/>
	<outline>
		<contour>
			<point x="63" y="780" type="line"/>
			<point x="63" y="732"/>
			<point x="56" y="679"/>
			<point x="43" y="635" type="curve"/>
			<point x="43" y="0" type="line"/>
			<point x="98" y="0" type="line"/>
			<point x="98" y="780" type="line"/>
		</contour>
	</outline>
</glyph>
<glyph name="oslash.sc" format="2">
	<advance width="254"/>
	<outline>
		<contour>
			<point x="250" y="350" type="line"/>
			<point x="250" y="400" type="line"/>
			<point x="8" y="282" type="line"/>
			<point x="8" y="232" type="line"/>
		</contour>
		<component base="o.sc" xOffset="16"/>
	</outline>
</glyph>
<glyph name="p.sc" format="2">
	<advance width="229"/>
	<outline>
		<contour>
			<point x="25" y="0" type="line"/>
			<point x="80" y="0" type="line"/>
			<point x="80" y="270" type="line"/>
			<point x="113" y="270" type="line" smooth="yes"/>
			<point x="166" y="270"/>
			<point x="197" y="302"/>
			<point x="197" y="356" type="curve" smooth="yes"/>
			<point x="197" y="534" type="line" smooth="yes"/>
			<point x="197" y="588"/>
			<point x="167" y="620"/>
			<point x="115" y="620" type="curve" smooth="yes"/>
			<point x="25" y="620" type="line"/>
		</contour>
		<contour>
			<point x="80" y="320" type="line"/>
			<point x="80" y="570" type="line"/>
			<point x="114" y="570" type="line" smooth="yes"/>
			<point x="132" y="570"/>
			<point x="142" y="558"/>
			<point x="142" y="539" type="curve" smooth="yes"/>
			<point x="142" y="351" type="line" smooth="yes"/>
			<point x="142" y="332"/>
			<point x="132" y="320"/>
			<point x="114" y="320" type="curve" smooth="yes"/>
		</contour>
	</outline>
</glyph>
<glyph name="q.sc" format="2">
	<advance width="230"/>
	<outline>
		<contour>
			<point x="26" y="76" type="line" smooth="yes"/>
			<point x="26" y="22"/>
			<point x="58" y="-10"/>
			<point x="113" y="-10" type="curve" smooth="yes"/>
			<point x="169" y="-10"/>
			<point x="202" y="22"/>
			<point x="202" y="75" type="curve" smooth="yes"/>
			<point x="202" y="544" type="line" smooth="yes"/>
			<point x="202" y="598"/>
			<point x="170" y="630"/>
			<point x="115" y="630" type="curve" smooth="yes"/>
			<point x="59" y="630"/>
			<point x="26" y="598"/>
			<point x="26" y="545" type="curve" smooth="yes"/>
		</contour>
		<contour>
			<point x="81" y="75" type="curve" smooth="yes"/>
			<point x="81" y="540" type="line" smooth="yes"/>
			<point x="81" y="565"/>
			<point x="93" y="580"/>
			<point x="114" y="580" type="curve" smooth="yes"/>
			<point x="135" y="580"/>
			<point x="147" y="567"/>
			<point x="147" y="545" type="curve" smooth="yes"/>
			<point x="147" y="80" type="line" smooth="yes"/>
			<point x="147" y="55"/>
			<point x="135" y="40"/>
			<point x="114" y="40" type="curve" smooth="yes"/>
			<point x="93" y="40"/>
			<point x="81" y="53"/>
		</contour>
		<contour>
			<point x="115" y="14" type="line"/>
			<point x="115" y="4" type="line" smooth="yes"/>
			<point x="115" y="-46"/>
			<point x="139" y="-76"/>
			<point x="180" y="-76" type="curve" smooth="yes"/>
			<point x="189" y="-76"/>
			<point x="197" y="-75"/>
			<point x="202" y="-73" type="curve"/>
			<point x="202" y="-24" type="line"/>
			<point x="198" y="-25"/>
			<point x="191" y="-26"/>
			<point x="184" y="-26" type="curve" smooth="yes"/>
			<point x="159" y="-26"/>
			<point x="145" y="-13"/>
			<point x="145" y="9" type="curve" smooth="yes"/>
			<point x="145" y="14" type="line"/>
		</contour>
	</outline>
</glyph>
<glyph name="r.sc" format="2">
	<advance width="252"/>
	<anchor x="101" y="620" name="top"/>
	<anchor x="121" y="0" name="bottom"/>
	<outline>
		<contour>
			<point x="25" y="0" type="line"/>
			<point x="80" y="0" type="line"/>
			<point x="80" y="300" type="line"/>
			<point x="117" y="300" type="line"/>
			<point x="175" y="0" type="line"/>
			<point x="231" y="0" type="line"/>
			<point x="171" y="289" type="line" smooth="yes"/>
			<point x="168" y="305"/>
			<point x="159" y="316"/>
			<point x="148" y="319" type="curve"/>
			<point x="148" y="323" type="line"/>
			<point x="179" y="330"/>
			<point x="197" y="355"/>
			<point x="197" y="390" type="curve" smooth="yes"/>
			<point x="197" y="530" type="line" smooth="yes"/>
			<point x="197" y="587"/>
			<point x="165" y="620"/>
			<point x="110" y="620" type="curve" smooth="yes"/>
			<point x="25" y="620" type="line"/>
		</contour>
		<contour>
			<point x="80" y="350" type="line"/>
			<point x="80" y="570" type="line"/>
			<point x="109" y="570" type="line" smooth="yes"/>
			<point x="130" y="570"/>
			<point x="142" y="557"/>
			<point x="142" y="535" type="curve" smooth="yes"/>
			<point x="142" y="385" type="line" smooth="yes"/>
			<point x="142" y="363"/>
			<point x="130" y="350"/>
			<point x="109" y="350" type="curve" smooth="yes"/>
		</contour>
	</outline>
</glyph>
<glyph name="r.sc.ss05" format="2">
	<advance width="269"/>
	<anchor x="138" y="620" name="top"/>
	<anchor x="138" y="0" name="bottom"/>
	<outline>
		<contour>
			<point x="43" y="0" type="line"/>
			<point x="98" y="0" type="line"/>
			<point x="98" y="270" type="line"/>
			<point x="135" y="270" type="line" smooth="yes"/>
			<point x="154" y="270"/>
			<point x="165" y="248"/>
			<point x="165" y="210" type="curve" smooth="yes"/>
			<point x="165" y="80" type="line" smooth="yes"/>
			<point x="165" y="48"/>
			<point x="171" y="18"/>
			<point x="182" y="0" type="curve"/>
			<point x="236" y="0" type="line"/>
			<point x="238" y="4" type="line"/>
			<point x="227" y="27"/>
			<point x="220" y="58"/>
			<point x="220" y="89" type="curve" smooth="yes"/>
			<point x="220" y="204" type="line" smooth="yes"/>
			<point x="220" y="248"/>
			<point x="203" y="281"/>
			<point x="175" y="292" type="curve"/>
			<point x="175" y="296" type="line"/>
			<point x="200" y="304"/>
			<point x="215" y="328"/>
			<point x="215" y="360" type="curve" smooth="yes"/>
			<point x="215" y="530" type="line" smooth="yes"/>
			<point x="215" y="587"/>
			<point x="183" y="620"/>
			<point x="128" y="620" type="curve" smooth="yes"/>
			<point x="43" y="620" type="line"/>
		</contour>
		<contour>
			<point x="98" y="320" type="line"/>
			<point x="98" y="570" type="line"/>
			<point x="127" y="570" type="line" smooth="yes"/>
			<point x="148" y="570"/>
			<point x="160" y="557"/>
			<point x="160" y="535" type="curve" smooth="yes"/>
			<point x="160" y="355" type="line" smooth="yes"/>
			<point x="160" y="333"/>
			<point x="148" y="320"/>
			<point x="127" y="320" type="curve" smooth="yes"/>
		</contour>
	</outline>
</glyph>
<glyph name="registered.ss10" format="2">
	<advance width="866"/>
	<outline>
		<contour>
			<point x="433" y="800" type="curve" smooth="yes"/>
			<point x="212" y="800"/>
			<point x="33" y="621"/>
			<point x="33" y="400" type="curve" smooth="yes"/>
			<point x="33" y="179"/>
			<point x="212" y="0"/>
			<point x="433" y="0" type="curve" smooth="yes"/>
			<point x="656" y="0"/>
			<point x="833" y="179"/>
			<point x="833" y="400" type="curve" smooth="yes"/>
			<point x="833" y="621"/>
			<point x="654" y="800"/>
		</contour>
		<contour>
			<point x="433" y="760" type="curve" smooth="yes"/>
			<point x="635" y="760"/>
			<point x="793" y="597"/>
			<point x="793" y="400" type="curve" smooth="yes"/>
			<point x="793" y="200"/>
			<point x="633" y="40"/>
			<point x="433" y="40" type="curve" smooth="yes"/>
			<point x="233" y="40"/>
			<point x="73" y="200"/>
			<point x="73" y="400" type="curve" smooth="yes"/>
			<point x="73" y="600"/>
			<point x="233" y="760"/>
		</contour>
		<contour>
			<point x="365" y="166" type="line"/>
			<point x="407" y="166" type="line"/>
			<point x="407" y="393" type="line"/>
			<point x="435" y="393" type="line"/>
			<point x="478" y="166" type="line"/>
			<point x="521" y="166" type="line"/>
			<point x="475" y="384" type="line" smooth="yes"/>
			<point x="472" y="397"/>
			<point x="466" y="405"/>
			<point x="458" y="407" type="curve"/>
			<point x="458" y="411" type="line"/>
			<point x="481" y="416"/>
			<point x="495" y="434"/>
			<point x="495" y="460" type="curve" smooth="yes"/>
			<point x="495" y="566" type="line" smooth="yes"/>
			<point x="495" y="609"/>
			<point x="470" y="634"/>
			<point x="429" y="634" type="curve" smooth="yes"/>
			<point x="365" y="634" type="line"/>
		</contour>
		<contour>
			<point x="407" y="430" type="line"/>
			<point x="407" y="596" type="line"/>
			<point x="429" y="596" type="line" smooth="yes"/>
			<point x="445" y="596"/>
			<point x="454" y="586"/>
			<point x="454" y="570" type="curve" smooth="yes"/>
			<point x="454" y="457" type="line" smooth="yes"/>
			<point x="454" y="440"/>
			<point x="445" y="430"/>
			<point x="429" y="430" type="curve" smooth="yes"/>
		</contour>
	</outline>
</glyph>
<glyph name="s.sc" format="2">
	<advance width="219"/>
	<anchor x="106" y="620" name="top"/>
	<anchor x="106" y="0" name="bottom"/>
	<outline>
		<contour>
			<point x="15" y="170" type="line"/>
			<point x="15" y="85" type="line" smooth="yes"/>
			<point x="15" y="25"/>
			<point x="50" y="-10"/>
			<point x="110" y="-10" type="curve" smooth="yes"/>
			<point x="167" y="-10"/>
			<point x="201" y="27"/>
			<point x="201" y="90" type="curve" smooth="yes"/>
			<point x="201" y="112"/>
			<point x="197" y="143"/>
			<point x="189" y="173" type="curve" smooth="yes"/>
			<point x="179" y="210"/>
			<point x="165" y="254"/>
			<point x="150" y="292" type="curve" smooth="yes"/>
			<point x="118" y="372" type="line" smooth="yes"/>
			<point x="106" y="401"/>
			<point x="94" y="437"/>
			<point x="85" y="469" type="curve" smooth="yes"/>
			<point x="77" y="497"/>
			<point x="75" y="522"/>
			<point x="75" y="535" type="curve" smooth="yes"/>
			<point x="75" y="540" type="line" smooth="yes"/>
			<point x="75" y="565"/>
			<point x="87" y="580"/>
			<point x="108" y="580" type="curve" smooth="yes"/>
			<point x="129" y="580"/>
			<point x="141" y="565"/>
			<point x="141" y="540" type="curve" smooth="yes"/>
			<point x="141" y="474" type="line"/>
			<point x="196" y="474" type="line"/>
			<point x="196" y="539" type="line" smooth="yes"/>
			<point x="196" y="596"/>
			<point x="163" y="630"/>
			<point x="107" y="630" type="curve" smooth="yes"/>
			<point x="52" y="630"/>
			<point x="20" y="595"/>
			<point x="20" y="535" type="curve" smooth="yes"/>
			<point x="20" y="517"/>
			<point x="24" y="489"/>
			<point x="31" y="460" type="curve" smooth="yes"/>
			<point x="39" y="429"/>
			<point x="52" y="390"/>
			<point x="66" y="355" type="curve" smooth="yes"/>
			<point x="98" y="275" type="line" smooth="yes"/>
			<point x="111" y="243"/>
			<point x="125" y="201"/>
			<point x="136" y="160" type="curve" smooth="yes"/>
			<point x="144" y="131"/>
			<point x="146" y="105"/>
			<point x="146" y="90" type="curve" smooth="yes"/>
			<point x="146" y="85" type="line" smooth="yes"/>
			<point x="146" y="57"/>
			<point x="132" y="40"/>
			<point x="108" y="40" type="curve" smooth="yes"/>
			<point x="84" y="40"/>
			<point x="70" y="57"/>
			<point x="70" y="85" type="curve" smooth="yes"/>
			<point x="70" y="170" type="line"/>
		</contour>
	</outline>
</glyph>
<glyph name="seven.ss09" format="2">
	<advance width="304"/>
	<outline>
		<contour>
			<point x="23" y="730" type="line"/>
			<point x="233" y="730" type="line"/>
			<point x="86" y="0" type="line"/>
			<point x="142" y="0" type="line"/>
			<point x="283" y="730" type="line"/>
			<point x="283" y="780" type="line"/>
			<point x="23" y="780" type="line"/>
		</contour>
	</outline>
</glyph>
<glyph name="t.sc" format="2">
	<advance width="218"/>
	<anchor x="108" y="400" name="center"/>
	<anchor x="108" y="0" name="bottom"/>
	<anchor x="108" y="620" name="top"/>
	<outline>
		<contour>
			<point x="15" y="620" type="line"/>
			<point x="15" y="570" type="line"/>
			<point x="80" y="570" type="line"/>
			<point x="80" y="0" type="line"/>
			<point x="135" y="0" type="line"/>
			<point x="135" y="570" type="line"/>
			<point x="200" y="570" type="line"/>
			<point x="200" y="620" type="line"/>
		</contour>
	</outline>
</glyph>
<glyph name="tbar.sc" format="2">
	<advance width="233"/>
	<outline>
		<contour>
			<point x="25" y="365" type="line"/>
			<point x="15" y="315" type="line"/>
			<point x="205" y="315" type="line"/>
			<point x="215" y="365" type="line"/>
		</contour>
		<component base="t.sc"/>
	</outline>
</glyph>
<glyph name="thorn.sc" format="2">
	<advance width="247"/>
	<outline>
		<contour>
			<point x="43" y="0" type="line"/>
			<point x="98" y="0" type="line"/>
			<point x="98" y="150" type="line"/>
			<point x="131" y="150" type="line" smooth="yes"/>
			<point x="184" y="150"/>
			<point x="215" y="182"/>
			<point x="215" y="236" type="curve" smooth="yes"/>
			<point x="215" y="414" type="line" smooth="yes"/>
			<point x="215" y="468"/>
			<point x="185" y="500"/>
			<point x="133" y="500" type="curve" smooth="yes"/>
			<point x="98" y="500" type="line"/>
			<point x="98" y="620" type="line"/>
			<point x="43" y="620" type="line"/>
		</contour>
		<contour>
			<point x="98" y="200" type="line"/>
			<point x="98" y="450" type="line"/>
			<point x="132" y="450" type="line" smooth="yes"/>
			<point x="150" y="450"/>
			<point x="160" y="438"/>
			<point x="160" y="419" type="curve" smooth="yes"/>
			<point x="160" y="231" type="line" smooth="yes"/>
			<point x="160" y="212"/>
			<point x="150" y="200"/>
			<point x="132" y="200" type="curve" smooth="yes"/>
		</contour>
	</outline>
</glyph>
<glyph name="two.ss08" format="2">
	<advance width="277"/>
	<outline>
		<contour>
			<point x="38" y="550" type="line"/>
			<point x="93" y="550" type="line"/>
			<point x="93" y="690" type="line" smooth="yes"/>
			<point x="93" y="721"/>
			<point x="107" y="740"/>
			<point x="131" y="740" type="curve" smooth="yes"/>
			<point x="155" y="740"/>
			<point x="169" y="723"/>
			<point x="169" y="694" type="curve" smooth="yes"/>
			<point x="169" y="657"/>
			<point x="164" y="615"/>
			<point x="157" y="583" type="curve" smooth="yes"/>
			<point x="33" y="50" type="line"/>
			<point x="33" y="0" type="line"/>
			<point x="244" y="0" type="line"/>
			<point x="244" y="50" type="line"/>
			<point x="88" y="50" type="line"/>
			<point x="210" y="575" type="line" smooth="yes"/>
			<point x="219" y="615"/>
			<point x="224" y="655"/>
			<point x="224" y="684" type="curve" smooth="yes"/>
			<point x="224" y="751"/>
			<point x="190" y="790"/>
			<point x="132" y="790" type="curve" smooth="yes"/>
			<point x="73" y="790"/>
			<point x="38" y="755"/>
			<point x="38" y="695" type="curve" smooth="yes"/>
		</contour>
	</outline>
</glyph>
<glyph name="u.sc" format="2">
	<advance width="262"/>
	<anchor x="178" y="10" name="ogonek"/>
	<anchor x="131" y="620" name="top"/>
	<anchor x="249" y="620" name="topright"/>
	<anchor x="131" y="0" name="bottom"/>
	<outline>
		<contour>
			<point x="219" y="620" type="line"/>
			<point x="164" y="620" type="line"/>
			<point x="164" y="80" type="line" smooth="yes"/>
			<point x="164" y="55"/>
			<point x="152" y="40"/>
			<point x="131" y="40" type="curve" smooth="yes"/>
			<point x="110" y="40"/>
			<point x="98" y="53"/>
			<point x="98" y="75" type="curve" smooth="yes"/>
			<point x="98" y="620" type="line"/>
			<point x="43" y="620" type="line"/>
			<point x="43" y="76" type="line" smooth="yes"/>
			<point x="43" y="22"/>
			<point x="75" y="-10"/>
			<point x="130" y="-10" type="curve" smooth="yes"/>
			<point x="186" y="-10"/>
			<point x="219" y="22"/>
			<point x="219" y="75" type="curve" smooth="yes"/>
		</contour>
	</outline>
</glyph>
<glyph name="v.sc" format="2">
	<advance width="229"/>
	<outline>
		<contour>
			<point x="15" y="620" type="line"/>
			<point x="81" y="0" type="line"/>
			<point x="146" y="0" type="line"/>
			<point x="211" y="620" type="line"/>
			<point x="160" y="620" type="line"/>
			<point x="121" y="180" type="line"/>
			<point x="118" y="70" type="line"/>
			<point x="112" y="70" type="line"/>
			<point x="109" y="180" type="line"/>
			<point x="72" y="620" type="line"/>
		</contour>
	</outline>
</glyph>
<glyph name="w.sc" format="2">
	<advance width="401"/>
	<guideline x="243" y="264" angle="0"/>
	<anchor x="200" y="620" name="top"/>
	<anchor x="200" y="0" name="bottom"/>
	<outline>
		<contour>
			<point x="15" y="620" type="line"/>
			<point x="76" y="0" type="line"/>
			<point x="145" y="0" type="line"/>
			<point x="193" y="463" type="line"/>
			<point x="196" y="550" type="line"/>
			<point x="202" y="550" type="line"/>
			<point x="205" y="463" type="line"/>
			<point x="254" y="0" type="line"/>
			<point x="323" y="0" type="line"/>
			<point x="383" y="620" type="line"/>
			<point x="332" y="620" type="line"/>
			<point x="298" y="180" type="line"/>
			<point x="293" y="70" type="line"/>
			<point x="287" y="70" type="line"/>
			<point x="282" y="180" type="line"/>
			<point x="240" y="620" type="line"/>
			<point x="164" y="620" type="line"/>
			<point x="120" y="180" type="line"/>
			<point x="115" y="70" type="line"/>
			<point x="109" y="70" type="line"/>
			<point x="104" y="180" type="line"/>
			<point x="72" y="620" type="line"/>
		</contour>
	</outline>
</glyph>
<glyph name="x.sc" format="2">
	<advance width="229"/>
	<outline>
		<contour>
			<point x="15" y="0" type="line"/>
			<point x="66" y="0" type="line"/>
			<point x="102" y="187" type="line"/>
			<point x="105" y="269" type="line"/>
			<point x="111" y="269" type="line"/>
			<point x="114" y="187" type="line"/>
			<point x="153" y="0" type="line"/>
			<point x="211" y="0" type="line"/>
			<point x="142" y="315" type="line"/>
			<point x="198" y="620" type="line"/>
			<point x="147" y="620" type="line"/>
			<point x="118" y="443" type="line"/>
			<point x="115" y="361" type="line"/>
			<point x="109" y="361" type="line"/>
			<point x="106" y="443" type="line"/>
			<point x="73" y="620" type="line"/>
			<point x="15" y="620" type="line"/>
			<point x="77" y="315" type="line"/>
		</contour>
	</outline>
</glyph>
<glyph name="y.sc" format="2">
	<advance width="240"/>
	<anchor x="120" y="620" name="top"/>
	<anchor x="120" y="0" name="bottom"/>
	<anchor x="22" y="620" name="topleft"/>
	<outline>
		<contour>
			<point x="15" y="620" type="line"/>
			<point x="91" y="150" type="line"/>
			<point x="91" y="0" type="line"/>
			<point x="146" y="0" type="line"/>
			<point x="146" y="150" type="line"/>
			<point x="222" y="620" type="line"/>
			<point x="167" y="620" type="line"/>
			<point x="127" y="320" type="line"/>
			<point x="123" y="230" type="line"/>
			<point x="117" y="230" type="line"/>
			<point x="113" y="320" type="line"/>
			<point x="75" y="620" type="line"/>
		</contour>
	</outline>
</glyph>
<glyph name="y.ss06" format="2">
	<advance width="220"/>
	<guideline x="-87" y="231" angle="0"/>
	<anchor x="112" y="590" name="top"/>
	<anchor x="112" y="0" name="bottom"/>
	<outline>
		<contour>
			<point x="15" y="590" type="line"/>
			<point x="84" y="0" type="line"/>
			<point x="72" y="-107" type="line" smooth="yes"/>
			<point x="70" y="-125"/>
			<point x="60" y="-135"/>
			<point x="44" y="-135" type="curve" smooth="yes"/>
			<point x="37" y="-135"/>
			<point x="29" y="-134"/>
			<point x="21" y="-132" type="curve"/>
			<point x="21" y="-180" type="line"/>
			<point x="31" y="-183"/>
			<point x="46" y="-185"/>
			<point x="59" y="-185" type="curve" smooth="yes"/>
			<point x="98" y="-185"/>
			<point x="116" y="-162"/>
			<point x="121" y="-122" type="curve" smooth="yes"/>
			<point x="202" y="590" type="line"/>
			<point x="151" y="590" type="line"/>
			<point x="117" y="166" type="line"/>
			<point x="115" y="50" type="line"/>
			<point x="109" y="50" type="line"/>
			<point x="107" y="166" type="line"/>
			<point x="70" y="590" type="line"/>
		</contour>
	</outline>
</glyph>
<glyph name="z.sc" format="2">
	<advance width="220"/>
	<anchor x="123" y="620" name="top"/>
	<anchor x="123" y="0" name="bottom"/>
	<outline>
		<contour>
			<point x="22" y="0" type="line"/>
			<point x="198" y="0" type="line"/>
			<point x="198" y="50" type="line"/>
			<point x="71" y="50" type="line"/>
			<point x="71" y="54" type="line"/>
			<point x="81" y="60" type="line"/>
			<point x="188" y="584" type="line"/>
			<point x="188" y="620" type="line"/>
			<point x="42" y="620" type="line"/>
			<point x="42" y="570" type="line"/>
			<point x="138" y="570" type="line"/>
			<point x="138" y="566" type="line"/>
			<point x="128" y="560" type="line"/>
			<point x="22" y="36" type="line"/>
		</contour>
	</outline>
</glyph>
